<svg xmlns="http://www.w3.org/2000/svg" width="410" height="49" fill="none" viewBox="0 0 410 49"><path fill="#ffe492" d="M390.137 10.04c-.456.017-.918.027-1.365.051-.291.015-.415-.029-.609-.051-.065-.008-.134-.024-.194-.022l-1.356.051c-.139.04-.226.09-.439.11-.207.018-.452.018-.682.027l-.914.031c-.152.005-.277.024-.327.06-.009.006.092.02.147.03.185.03.365.063.568.086.193.022.433-.014.641.014.466.063.471.062.826.05q.456-.018.913-.031c.06-.002.129.013.194.02.194.023.318.072.604.054.217-.015.457-.018.683-.026.189.029.365.061.568.084.189.022.244.039.143.068a1.6 1.6 0 0 1-.392.04c-.153 0-.305.01-.457.014l-.226.008c-.291.011-.291.011-.821-.052-.208-.025-.443.01-.642-.014-.133-.016-.249-.04-.378-.057a2 2 0 0 0-.212-.006c-.231.007-.462.012-.683.025-.157.009-.249.037-.231.065a.6.6 0 0 0 .18.027c.148.002.305-.011.448-.005.138.007.281.027.383.05.207.045.442.004.641.016.207.013.378.053.577.077.05.005.147-.004.226-.007l.678-.02c.189.028.392.054.563.087.309.06.641.083 1.042.054a2.3 2.3 0 0 1 .628.029c.184.04.396.035.632.027.217-.008.438-.03.659-.002.48.062.485.065 1.052.041.171-.007.3-.009.429.014.12.021.249.039.374.059l.683-.022c.29-.011.452.003.521.059.042.033.06.064.162.087.12.028.249.027.424.019.166-.007.286-.018.355-.054a.7.7 0 0 1 .134-.04c.042-.01.106-.023.143-.021a.7.7 0 0 1 .185.027c.226.12.226.122.456.156.254.04.517.074.748.118.207.038.415.022.641.022.171 0 .281.025.268.051-.01.015-.074.037-.13.039q-.679.03-1.365.05c-.056.003-.125-.015-.189-.024-.129-.018-.245-.046-.383-.052-.139-.006-.3.01-.452.014-.153.005-.314.018-.452.01-.139-.008-.25-.037-.379-.056-.06-.009-.143-.022-.194-.019a3 3 0 0 1-.825-.052 1 1 0 0 0-.203-.013c-.535.017-1.066.037-1.601.056-.217.008-.392-.027-.438-.086-.024-.033-.07-.066-.07-.098 0-.06-.253-.093-.438-.086-.304.01-.613.018-.913.033q-.369.018-.619-.036c-.193-.04-.415-.033-.636-.022-.166.008-.212.041-.203.124.009.066-.069.087-.369.098q-.57.022-1.144.039c-.06.002-.13-.015-.19-.024-.129-.018-.244-.047-.383-.053-.138-.007-.299.008-.452.014-.152.005-.313.019-.452.012-.138-.007-.253-.037-.378-.056-.06-.008-.134-.021-.194-.02q-.456.013-.913.031c-.342.012-.342.012-.826-.05-.221-.027-.443-.005-.66.003-.23.008-.447.012-.627-.028a1.6 1.6 0 0 0-.397-.037c-.383.012-.761.027-1.144.039a1 1 0 0 1-.203-.012 3.3 3.3 0 0 0-.826-.054c-.295.018-.613.02-.909.036-.161.009-.235.04-.203.066a.6.6 0 0 0 .18.027c.148.001.309-.013.448-.008.286.012.429.096.802.073.222-.014.453-.019.683-.023.06 0 .125.018.189.028.185.027.346.062.614.044.221-.014.457-.018.683-.026.36-.013.36-.012.826.048.221.03.442.006.659 0 .162-.005.314-.015.443-.001.199.02.342.068.586.065.231-.003.457-.017.687-.022a1.6 1.6 0 0 1 .393.04c.12.027.249.039.406.033q.34-.014.687-.023c.065-.001.138.008.198.016q.193.028.379.058c.226-.006.456-.008.678-.02.171-.01.291-.005.429.014.175.027.318.075.604.052.143-.01.309-.008.452-.018.176-.013.296-.008.42.022.235.057.531.058.835.036a3.2 3.2 0 0 1 .831.048c.263.045.263.044.466.155.06.031.23.046.373.04.24-.01.448-.005.623.033.185.04.406.036.632.025.3-.015.6-.028.844.03.12.028.25.035.411.028.457-.018.918-.03 1.366-.051.272-.014.429.018.613.045.249.037.521.07.521.148 0 .013.065.028.12.038.12.02.25.038.374.058.185.03.365.055.618.039.222-.013.457-.017.683-.026s.434-.014.637.024q.351.066.752.115c.189.023.438-.016.641.015.125.019.244.04.378.057.056.007.143.002.217 0 .152-.004.309-.007.457-.017.171-.011.3-.01.429.014.12.02.24.05.378.055.208.01.438-.03.646.015.106.023.24.045.378.052.139.007.3-.008.448-.007.064 0 .143.016.18.029.023.007-.009.026-.042.036a.7.7 0 0 1-.161.03q-.686.024-1.37.05c-.273.01-.273.01-.822-.054a3 3 0 0 0-.433-.005c-.217.01-.438.026-.665.008-.295-.067-.659-.073-1.047-.047-.161.01-.309.01-.429-.008-.254-.038-.521-.073-.747-.117-.176-.035-.259-.038-.332.01-.023.014-.047.03-.042.044.028.05.078.099.106.148.009.014-.027.03-.051.045-.073.042-.17.039-.332.004a2.2 2.2 0 0 0-.613-.042c-.222.014-.462.012-.683.027a3.2 3.2 0 0 1-.826-.053 1 1 0 0 0-.203-.011c-.687.022-1.37.048-2.057.071a1.5 1.5 0 0 1-.397-.037 1.6 1.6 0 0 0-.402-.035q-.913.029-1.827.065a2.5 2.5 0 0 1-.618-.037 1.8 1.8 0 0 0-.41-.03c-.176.002-.3.012-.388.041-.083.028-.023.045.162.067.198.024.383.054.572.082.152-.004.304-.012.452-.01.064 0 .124.017.189.027.185.029.355.058.618.042.222-.014.457-.017.683-.026.314-.01.314-.01.821.052.129.016.268.015.434.006.143-.007.29.007.392.037.041.011.028.031-.06.097 0 .049.097.027.129-.005.051-.046-.046-.06-.231-.036-.129.018-.193.044-.161.065.018.01.106.025.263-.024.406-.06.715-.067 1.01-.083.176-.009.286-.005.425.021.166.031.332.064.604.048.295-.018.609-.02.909-.035.277-.014.42.03.595.056.212.03.448-.004.641.014.203.018.346.061.582.07.341-.027.558.022.816.055.203.025.443.003.66-.008a2.5 2.5 0 0 1 .618.035c.194.04.411.032.632.023.517-.02.535-.023.835.031.217.04.425.022.641.017.19.027.374.056.572.08.051.006.148-.004.227-.007l.682-.024c.153-.005.314-.02.452-.014.139.007.254.036.379.055.124.019.254.037.373.057.185.03.36.055.619.04.221-.013.452-.017.682-.026.291-.01.282-.008.822.052.29.033.59-.007.885-.011a1.5 1.5 0 0 1 .392.038c.042.012.028.032.042.049-.761.026-1.527.05-2.279.082-.291.013-.443-.023-.6-.053-.258-.047-.599.022-.844-.04a2 2 0 0 0-.614-.04c-.147.01-.304.01-.456.019-.388.022-.743.022-1.052-.046-.106-.024-.258-.037-.369-.06a1.8 1.8 0 0 0-.406-.033q-1.03.034-2.053.073c-.06.002-.12.017-.171.028q-.193.042.12.067c.069.006.125.02.189.03.125.018.24.048.378.055.139.007.3-.007.453-.012.152-.005.313-.02.452-.014.138.007.253.036.383.054.06.009.133.024.193.023.305-.006.605-.017.909-.026.189.027.351.065.577.074.143.006.295-.005.443-.003a.7.7 0 0 1 .18.03c.018.007-.042.027-.088.037-.175.038-.415.03-.632.043a2.4 2.4 0 0 1-.627-.03 1.6 1.6 0 0 0-.402-.035c-.383.013-.761.028-1.144.039a2 2 0 0 1-.203-.014c-.484-.06-.484-.063-.826-.05-.503.02-.502.02-.839-.034-.065-.01-.134-.028-.189-.027-.536.016-1.066.031-1.597.054a1.7 1.7 0 0 1-.424-.019 2.5 2.5 0 0 0-.378-.052c-.143-.006-.3.009-.453.014-.152.005-.313.018-.447.01-.138-.008-.258-.036-.378-.056a2 2 0 0 0-.429-.012c-.526.023-.531.02-1.052-.042a2 2 0 0 0-.203-.013c-.383.012-.761.027-1.144.04a1.4 1.4 0 0 1-.392-.038c-.042-.012-.028-.032-.056-.07-.032-.01.005.007.014.022.069-.002.152 0 .203-.008.129-.02.194-.044.161-.065a.5.5 0 0 0-.161-.025c-.101 0-.189.022-.217.076-.29.033-.6.04-.899.055-.176.01-.286.005-.425-.02a2.2 2.2 0 0 0-.609-.047c-.295.018-.609.02-.913.035-.351.015-.503-.074-.798-.072-.305.002-.609.019-.914.03-.267.01-.267.01-.821-.054-.203-.024-.443.011-.641-.014-.134-.016-.249-.04-.379-.056a2 2 0 0 0-.212-.005c-.383.012-.77.02-1.139.041a4 4 0 0 1-1.038-.06c-.379.01-.762.017-1.135.036-.272.014-.429-.02-.614-.046-.064-.009-.12-.024-.189-.028s-.152.004-.226.007c-.305.011-.618.016-.914.034-.364.023-.502-.059-.784-.069-.189.049-.29.116-.664.12-.305.005-.609.02-.914.031l-.456.016c-.245.01-.36.048-.309.107q.04.05.073.099c.047.058-.069.108-.263.115-.535.02-1.065.039-1.6.056a1.6 1.6 0 0 1-.397-.039 1.6 1.6 0 0 0-.402-.034c-.535.02-1.065.039-1.6.056a1.3 1.3 0 0 1-.199-.016q-.192-.028-.378-.058c-.305.01-.604.015-.904.027-.485.018-.485.02-.84-.036-.064-.01-.129-.028-.189-.027-.231.004-.457.014-.687.023-.679.025-.679.025-.877-.005-.18-.027-.341-.061-.614-.045-.295.018-.609.024-.913.034-.226.006-.452.014-.678.016-.06.001-.125-.017-.189-.027a2.5 2.5 0 0 0-.619-.04c-.147.01-.304.013-.456.018-.397.014-.397.014-1.048-.046a2 2 0 0 0-.207-.01c-.535.018-1.066.038-1.601.055a2 2 0 0 1-.208-.01c-.728-.057-.728-.057-1.504-.029-.295.01-.304.014-.613-.039a2 2 0 0 0-.415-.027c-.609.024-1.223.04-1.827.068-.272.012-.429-.018-.614-.045-.064-.009-.134-.028-.189-.027-.609.018-1.218.041-1.827.06-.055.002-.124-.018-.189-.027-.125-.018-.245-.044-.383-.05-.143-.006-.3.008-.457.013-.383.013-.383.012-.826-.046-.06-.008-.138-.02-.198-.017-.609.02-1.222.037-1.827.066a3.5 3.5 0 0 1-.826-.055 1 1 0 0 0-.203-.011c-.687.023-1.37.049-2.057.072a1.6 1.6 0 0 1-.397-.038c-.184-.041-.401-.036-.632-.027-.53.02-.535.02-.849-.028-.064-.01-.12-.023-.189-.028-.064-.005-.147-.002-.217 0l-.913.032c-.305.01-.614.017-.914.034-.369.02-.544-.044-.802-.074-.379.013-.766.021-1.14.042-.286.016-.42-.028-.609-.05-.064-.009-.134-.026-.194-.024q-1.031.033-2.057.073a2 2 0 0 1-.415-.026c-.309-.053-.323-.052-.84-.032-.226.01-.443.017-.637-.024a2.5 2.5 0 0 0-.623-.033c-.299.015-.608.023-.913.033-.304.01-.609.025-.913.03-.245.005-.393-.041-.586-.065a2 2 0 0 0-.213-.006c-.304.009-.618.016-.913.033-.36.02-.558-.034-.812-.066a2 2 0 0 0-.217 0c-.535.018-1.066.038-1.601.057l-.572-.08-.913.03c-.231.009-.466.012-.683.027-.281.02-.42-.027-.609-.05-.065-.008-.134-.025-.194-.023q-.575.015-1.144.04c-.36.017-.503-.073-.798-.072-.304.001-.618.014-.913.032-.342.021-.582-.01-.826-.053a1 1 0 0 0-.203-.012c-.383.012-.761.027-1.144.038a2 2 0 0 1-.208-.008c-.729-.06-.729-.06-1.047-.048q-.34.014-.687.023a1.4 1.4 0 0 1-.204-.015c-.479-.06-.479-.062-.825-.05l-.914.033-.572-.08c-.378.013-.766.023-1.139.041a1.7 1.7 0 0 1-.425-.02c-.166-.03-.332-.064-.609-.047-.295.017-.609.02-.909.034-.359.018-.507-.072-.798-.071-.304 0-.618.014-.913.031-.342.021-.581-.01-.826-.053a1 1 0 0 0-.203-.012l-2.514.088c-.517.02-.517.02-1.5-.034a3 3 0 0 0-.212-.006c-.304.009-.618.016-.913.032-.36.021-.559-.032-.812-.065-.056-.007-.143-.003-.217-.001-.231.007-.457.016-.687.024q-.457.016-.914.033l-.572-.079c-.378.013-.766.02-1.139.04-.287.017-.42-.025-.609-.049-.065-.008-.134-.025-.194-.024q-1.033.032-2.058.073c-.281.012-.41-.033-.6-.056-.064-.007-.138-.02-.198-.018q-.685.022-1.37.048c-.258.01-.258.01-.821-.052a2 2 0 0 0-.203-.012c-1.449.05-2.893.103-4.341.152a1.5 1.5 0 0 1-.397-.036 1.6 1.6 0 0 0-.402-.036c-.609.02-1.222.04-1.826.065-.25.011-.448-.002-.619-.036a1.7 1.7 0 0 0-.41-.03l-.914.033-.913.032c-.305.011-.614.017-.914.034-.369.021-.549-.04-.802-.071q-.687.022-1.366.045-.913.033-1.827.064c-.055.002-.124-.016-.189-.025-.189-.025-.328-.06-.609-.049-1.366.053-2.74.098-4.11.15-.287.01-.411-.032-.605-.055-.064-.007-.138-.021-.198-.02l-2.284.08c-.309.011-.309.011-.826-.05-.06-.007-.138-.016-.203-.014l-2.971.104a1.6 1.6 0 0 1-.401-.036 1.6 1.6 0 0 0-.397-.036c-.913.031-1.831.062-2.74.097-.245.01-.448.001-.623-.035a1.6 1.6 0 0 0-.406-.03q-2.055.07-4.111.146a2.5 2.5 0 0 1-.613-.041 1.8 1.8 0 0 0-.415-.027 1.4 1.4 0 0 0-.379.046c-.124.038-.203.087-.498.09a20 20 0 0 0-.913.032c-.286.017-.42-.028-.6-.055a2 2 0 0 0-.429-.013 1.2 1.2 0 0 0-.346.057c-.203.068-.222.068-.471.025a2 2 0 0 0-.401-.037q-.913.03-1.827.065c-.351.012-.355.014-.618-.035a1.7 1.7 0 0 0-.406-.031c-1.675.06-3.349.117-5.024.18-.258.01-.434-.011-.618-.04-.06-.01-.12-.025-.189-.029-.07-.004-.148 0-.222.002-1.218.043-2.44.084-3.654.132-.277.01-.424-.021-.613-.047-.065-.01-.12-.023-.189-.027-.07-.003-.153.004-.227.007-1.217.043-2.44.083-3.653.131-.291.011-.416-.03-.605-.053-.064-.008-.133-.023-.193-.02-.383.01-.762.025-1.145.038q-1.37.048-2.74.098c-.351.013-.503-.076-.798-.072-.383.005-.761.025-1.144.039q-.457.014-.914.033c-.3.01-.3.01-1.047-.047-.064-.005-.143-.012-.207-.01-1.066.037-2.136.074-3.198.113a2.6 2.6 0 0 1-.622-.033 1.6 1.6 0 0 0-.406-.032l-4.798.169a1.4 1.4 0 0 1-.199-.016q-.192-.028-.378-.058c-.092.023-.212.044-.272.07-.083.034-.194.044-.369.05a1.8 1.8 0 0 1-.425-.021 2.5 2.5 0 0 0-.609-.047q-2.511.091-5.024.18c-.276.01-.406-.033-.599-.056-.065-.007-.139-.018-.199-.016-.687.023-1.37.048-2.057.072q-2.86.098-5.712.203a3.6 3.6 0 0 1-.825-.054 1 1 0 0 0-.203-.012q-4.002.14-7.995.282a1.6 1.6 0 0 1-.397-.037 1.6 1.6 0 0 0-.402-.035l-3.653.13c-.305.01-.31.012-.623-.036-.065-.01-.134-.029-.185-.027a.8.8 0 0 0-.281.064c-.074.035-.189.045-.36.052a1.8 1.8 0 0 1-.424-.02c-.171-.03-.328-.058-.605-.048q-5.252.189-10.505.375c-.281.01-.41-.031-.604-.054-.065-.007-.129-.017-.198-.02-.074-.001-.153.005-.226.008q-8.568.302-17.134.606c-.342.012-.337.012-.711.103-.046.011-.106.026-.171.028q-2.623.095-5.254.187-1.143.042-2.284.08c-.272.01-.272.01-.923.117-.055.009-.12.02-.184.023l-9.139.323c-.24.008-.434.025-.545.073a.9.9 0 0 1-.332.06q-3.196.114-6.399.225a1.8 1.8 0 0 0-.53.079c-.042.014-.079.03-.139.04-.055.008-.138.011-.207.014-1.827.065-3.654.132-5.486.193-.272.01-.382.046-.516.085-.046.013-.079.03-.139.04-.06.007-.147.007-.221.01l-4.567.161c-.296-.005-.36.053-.503.088-.051.012-.088.028-.148.035-.064.008-.148.008-.226.01-1.218.042-2.436.088-3.658.128-.282.009-.337.06-.489.094-.051.011-.102.028-.162.03q-1.141.044-2.283.082c-.254.01-.254.008-.702.107-.05.01-.11.023-.175.025q-1.711.062-3.428.123a.8.8 0 0 0-.323.062.9.9 0 0 1-.327.061q-1.37.051-2.741.096c-.253.008-.419.033-.53.078-.083.034-.185.05-.346.056-.914.032-1.827.067-2.745.095-.268.008-.406.042-.517.083a1.1 1.1 0 0 1-.36.052c-1.674.058-3.354.115-5.024.179-.281.01-.424-.024-.609-.049-.263-.035-.507-.072-.507-.15 0-.012-.078-.026-.134-.036-.41-.074-.41-.074-.475-.154-.037-.048-.079-.098-.11-.148-.06-.081-.209-.102-.633-.087q-.228.009-.457.016c-.226.007-.396-.026-.438-.086l-.074-.098c.231-.008.226-.009.632-.13.171-.05.171-.05-.156-.1-.125-.02-.245-.04-.379-.058a1.4 1.4 0 0 0-.203-.011c-.383.012-.76.026-1.14.04-.608.021-.608.021-1.227-.08-.05-.008-.129-.023-.12-.03.051-.038.176-.053.333-.057q.344-.01.683-.024l.456-.016c.143-.038.29-.075.425-.113.212-.06.212-.062-.079-.104-.184-.028-.383-.052-.572-.078l-.683.024c-.286.008-.401-.01-.475-.075-.064-.057.014-.105.236-.117.226-.012.438-.02.553-.07.11-.05.305-.068.544-.072q.23-.006.457-.016c.199-.008.305-.059.263-.116-.023-.036-.069-.067-.249-.075-.798-.035-.807-.034-1.204-.101-.037-.006-.065-.024-.05-.033a.3.3 0 0 1 .129-.04q.795-.034 1.591-.056c.175-.006.305-.012.365-.05.083-.05.046-.097-.116-.131a1 1 0 0 0-.189-.024c-.609.018-1.213.04-1.822.058a.6.6 0 0 1-.18-.027c-.046-.024.023-.056.184-.067.213-.015.43-.016.572-.066.199-.07.443-.135.665-.202.037-.012.097-.035.083-.037-.115-.022-.25-.039-.37-.06-.202-.034-.202-.083-.156-.13.037-.038.175-.053.346-.053.074 0 .166 0 .226-.009.157-.021.207-.05.13-.07a.8.8 0 0 0-.185-.027c-.988.033-1.98.065-2.962.105-.29.012-.425-.025-.6-.052a1.6 1.6 0 0 0-.424-.014 1.1 1.1 0 0 1-.406-.027c-.079-.027.06-.05.433-.075.07-.005.148-.008.199-.018.535-.108.535-.109.904-.123.36-.013.36-.014.549-.071.088-.027.184-.054.267-.082.033-.01.088-.03.07-.036-.102-.031-.24-.038-.402-.031-.36.017-.784.003-.973.097-.074.036-.19.046-.355.052-1.67.057-3.34.12-5.015.175-.272.009-.397.046-.503.086-.092.034-.194.044-.37.05-.174.006-.313.009-.414-.024-.06-.02-.01-.048.129-.075.198-.04.161-.09.097-.137-.046-.03-.19-.052-.342-.05-.226.004-.442.015-.632-.025-.11-.023-.249-.039-.373-.059-.24-.04-.48-.082-.817-.055-.23-.01-.392-.046-.577-.074-.309-.046-.336-.053-.115-.101.25-.055.055-.127.194-.18.147-.058.35-.108.53-.162l.134-.04c-.106-.02-.203-.046-.327-.06-.162-.017-.245-.04-.236-.1-.032-.01-.018.013.019.019a1 1 0 0 0 .194-.006c.129-.019.193-.044.161-.065a.5.5 0 0 0-.161-.024c-.102 0-.19.021-.217.075-.517.04-1.052.06-1.587.077-.056.002-.125-.018-.19-.028-.212-.034-.212-.033-.835-.043a.7.7 0 0 1-.184-.029c-.134-.06-.13-.127-.194-.191q.179-.063.365-.124c.249-.082.572-.155.766-.245-.042-.049-.097-.098.106-.137.576-.05.572-.05.729-.098.447-.135.89-.271 1.356-.404.124-.035.124-.054-.097-.069a3 3 0 0 0-.217-.003c-.23.007-.461.025-.687.021-.226-.003-.392-.046-.577-.073l-.567-.086c-.217.003-.434.031-.65-.014-.167-.034-.374-.06-.564-.088.143-.076.411-.133.619-.2.189-.06.193-.06.7-.106.24-.022.324-.134.12-.167-.244-.04-.502-.077-.751-.114-.217.003-.439.03-.646-.015a2.3 2.3 0 0 0-.614-.044c-.452.022-.913.033-1.37.05-.157.007-.328.003-.397-.031-.046-.024.088-.057.24-.064.23-.01.438-.022.554-.071.11-.05.314-.065.553-.072a.7.7 0 0 0 .171-.026c.166-.057.35-.107.706-.105.148-.02.226-.045.18-.069a.6.6 0 0 0-.18-.027c-.383.01-.766.02-1.14.037-.175.008-.309.01-.42-.02-.078-.02-.036-.046.111-.075.13-.025.166-.054.157-.087-.023-.079-.161-.102-.604-.097-.319.004-.397-.009-.466-.076-.019-.016-.065-.038-.032-.05.198-.067.327-.15.7-.182.148-.012.305-.012.398-.038.092-.026.175-.055.272-.08.12-.03.203-.058.147-.077-.092-.034-.24-.037-.41-.025-.148.01-.305.011-.457.017-.272.011-.493-.015-.526-.058-.087-.116-.18-.23-.258-.345-.01-.014.014-.032.05-.044.13-.042.268-.081.402-.122.157-.047.406-.038.618-.047.3-.013.3-.012.701-.107.157-.038.43-.023.59-.057.052-.01.13-.029.116-.038a1.647 1.647 0 0 0-.392-.035c-.84.029-1.674.06-2.514.087-.143.005-.3-.017-.35-.048-.052-.028-.038-.063-.047-.096.134-.04.286-.079.401-.122.088-.034.19-.049.365-.05.23-.004.457-.016.715-.025.48-.145.95-.297 1.467-.442.207-.059.157-.118.198-.18.042-.058.351-.05.559-.066.166-.014.221-.046.156-.068a.7.7 0 0 0-.184-.028c-.152 0-.305.01-.457.014-.152.005-.327.002-.452.02-.12.015-.198.049-.277.078a1.2 1.2 0 0 1-.378.044c-.226.002-.452.011-.678.018-.25-.039-.508-.076-.748-.117-.046-.008-.055-.03-.05-.046.009-.039-.06-.062-.213-.081-.129-.016-.235-.039-.355-.059.093-.027.194-.053.268-.081.161-.061.364-.105.715-.103.138-.039.249-.086.429-.113.17-.026.461 0 .59-.059a1 1 0 0 1 .286-.073c.199-.02.457-.01.573-.065.069-.032.17-.06.304-.068.152-.01.31-.011.42-.03.06-.01.124-.026.124-.04a1.537 1.537 0 0 0-.364-.039c-.23.006-.457.017-.687.023-.065.002-.139-.005-.208-.01-.203-.017-.19-.037-.028-.072s.277-.08.41-.12c.148-.008.333-.005.434-.023.171-.031.291-.076.43-.115.152-.006.309-.008.452-.019.06-.004.087-.025.138-.038.092-.025.17-.06.295-.073.203-.018.453-.01.572-.065a.8.8 0 0 1 .305-.068c.36-.004.512-.059.697-.11.138-.04.433-.02.585-.058.102-.025.176-.056.277-.08.042-.01.13-.014.199-.017.378-.015.76-.026 1.14-.042.06-.003.114-.018.16-.03.097-.026.157-.062.277-.078.12-.017.291-.017.439-.022.475-.015.512-.011.729-.096.175-.068.604-.02.747-.095.083-.044.235-.08.507-.085.383-.006.762-.025 1.144-.038.342-.012.337-.012.706-.105.166-.041.411-.035.628-.043.23-.008.443-.02.553-.07.111-.049.314-.064.55-.071.216-.007.46-.002.632-.042.415-.096.41-.097.7-.107q.686-.022 1.37-.048c.305-.011.624-.013.91-.035.207-.016.3-.072.433-.11l1.135-.044q.797-.03 1.601-.057c.23-.037.263-.12.65-.125.231-.002.457-.015.688-.023.383-.014.761-.032 1.144-.038.291-.005.341-.06.494-.093.05-.012.097-.029.157-.032.599-.028 1.217-.033 1.803-.074.06-.004.116-.025.13-.04.009-.008-.07-.023-.12-.03a1.4 1.4 0 0 0-.203-.014l-5.716.201c-.268.01-.268.009-.918.118q-.085.017-.19.022c-.304.012-.613.02-.913.034-.244.012-.447 0-.623-.036a2 2 0 0 0-.41-.032c-.176.003-.291.014-.392.041-.134.037-.203.085-.485.095-1.296.042-2.593.09-3.885.136-.18-.014-.267-.035-.22-.06a.4.4 0 0 1 .138-.037l1.596-.058c.073-.003.175-.001.216-.011.204-.045.277-.118.66-.123.222-.003.448-.017.66-.031.06-.004.115-.025.13-.04.004-.008-.07-.023-.125-.03-.203-.029-.439.006-.642-.014a.8.8 0 0 1-.18-.029c-.009-.01.07-.028.125-.04.05-.01.12-.018.19-.021q.912-.036 1.826-.065c.25-.007.424-.032.535-.077a1 1 0 0 1 .342-.057c1.065-.037 2.131-.077 3.201-.111.268-.008.406-.041.517-.084.088-.034.19-.045.36-.051 1.527-.052 3.045-.11 4.572-.16.281-.008.364-.051.507-.088.051-.013.083-.029.148-.037s.147-.007.226-.009c1.218-.042 2.436-.088 3.658-.128.286-.009.342-.058.489-.093.051-.011.097-.029.157-.032q1.37-.05 2.741-.098l1.826-.065c.3-.01.3-.01.706-.105a1 1 0 0 1 .171-.027c1.753-.064 3.502-.124 5.255-.187a.9.9 0 0 0 .327-.062.9.9 0 0 1 .323-.061q2.054-.076 4.115-.145.372-.01.535-.077a1 1 0 0 1 .342-.056c1.37-.048 2.74-.099 4.115-.144.263-.01.392-.043.521-.083.046-.014.083-.037.139-.039.683-.028 1.361-.056 2.048-.075.286-.008.383-.05.498-.09.093-.031.199-.042.374-.046q.574-.016 1.135-.043c.055-.003.125-.025.129-.039.009-.026-.097-.044-.272-.052l-5.485.193c-.3.011-.3.011-.706.106a1 1 0 0 1-.176.026l-5.254.187a.9.9 0 0 0-.328.062.9.9 0 0 1-.323.061q-2.51.09-5.028.177c-.249.008-.425.031-.535.077a1 1 0 0 1-.342.057c-1.601.055-3.197.114-4.802.167-.162.005-.282-.023-.273-.05.005-.014.074-.037.13-.039.835-.033 1.665-.067 2.505-.091.281-.008.364-.052.507-.089.046-.013.083-.03.143-.037.065-.008.148-.007.226-.009 1.979-.07 3.959-.142 5.942-.208.286-.01.342-.059.489-.094.051-.012.097-.03.157-.031q.913-.035 1.827-.066l3.202-.113c.309-.011.309-.011.706-.105a1 1 0 0 1 .17-.026l8.457-.3a.9.9 0 0 0 .327-.062.9.9 0 0 1 .323-.063c3.811-.135 7.617-.27 11.428-.403.249-.01.424-.03.535-.077a1 1 0 0 1 .341-.057l12.572-.446q4.227-.15 8.456-.298c.258-.009.397-.04.526-.08.041-.014.083-.037.138-.039q.907-.037 1.813-.07l.568.079c.143-.038.281-.077.424-.114.914-.03 1.813-.074 2.736-.088.06 0 .125.018.189.028.429.063.674.058.946-.026.097-.03.18-.056.327-.061.457-.018.919-.03 1.371-.051.244-.011.447-.001.622.035.125.026.254.037.406.03.84-.03 1.675-.058 2.515-.09.06-.002.115-.019.161-.03.097-.027.18-.054.272-.081.125.017.263.03.365.052.129.025.249.025.424.018 3.35-.12 6.704-.237 10.053-.358.286-.01.41.031.604.053.065.008.129.018.199.02.073.002.152-.004.226-.007q3.77-.134 7.543-.267c.332-.012.332-.012.825.05.06.008.139.016.203.014l3.428-.12c.148-.006.272.01.406.033.263.045.281.045.475-.02.092-.032.189-.05.342-.06.166-.01.3-.006.429.012.184.024.318.066.6.055 1.217-.047 2.44-.085 3.653-.133.277-.01.425.023.609.048.065.009.125.023.194.026s.152-.004.226-.007c1.522-.054 3.049-.107 4.567-.164.286-.011.411.031.605.053.064.008.138.022.198.02.913-.03 1.832-.063 2.745-.096.328-.012.328-.011.826.05.06.007.138.015.203.013q1.601-.055 3.202-.112c.327-.012.327-.012 1.273.04.069.004.143.01.212.008 1.218-.043 2.44-.085 3.658-.13.245-.01.448-.001.623.034.125.026.254.037.406.031 1.37-.049 2.745-.095 4.111-.147.263-.01.433.012.618.04.06.01.12.025.189.029s.148 0 .222-.003c1.37-.049 2.745-.095 4.11-.147.277-.011.425.022.609.047.065.01.134.027.189.026.535-.017 1.071-.032 1.601-.056.286-.014.411.031.604.053.065.007.139.022.199.02q1.717-.059 3.428-.121a1.7 1.7 0 0 1 .41.029c.171.034.369.048.618.037.531-.022 1.066-.038 1.601-.057.314-.011.314-.011 1.274.04.069.004.143.01.212.008.913-.031 1.831-.062 2.74-.097.245-.01.448 0 .623.035.124.026.249.037.406.03l2.514-.089c.305-.01.609-.03.914-.03.221.001.383.05.581.073.055.007.148-.001.221-.003 1.066-.038 2.136-.073 3.197-.115.277-.011.425.023.609.047.065.01.134.027.19.026.382-.01.761-.026 1.144-.039.456-.015.918-.027 1.37-.05.369-.017.507.07.803.072.226.003.456-.014.682-.022q.685-.024 1.371-.047c.161-.005.286-.021.336-.057.01-.007-.069-.022-.12-.03-.613-.102-.613-.102-1.231-.08-.383.014-.762.028-1.145.04-.064.002-.138-.006-.202-.012-.185-.017-.167-.037-.01-.073s.277-.08.411-.12l.563.077.456-.016q1.143-.039 2.284-.076c.055-.002.125.018.189.028.185.029.351.053.618.043.683-.03 1.371-.05 2.053-.075.3-.01.3-.01.826.05.06.008.139.016.203.014.688-.023 1.37-.048 2.058-.072.147-.005.29.008.397.037.041.012.032.032.207.195.544.132.918.118 1.297.106.161-.005.304-.01.41-.03.055-.01.125-.027.125-.04 0-.01-.102-.026-.166-.027-.457-.02-.891.021-1.338.03-.208.004-.388-.03-.425-.087a.3.3 0 0 0-.037-.049c-.014-.016-.023-.033-.037-.049-.179-.004-.286.013-.364.047-.065.028-.157.06-.281.075-.125.016-.296.013-.448.018-.148.005-.309.018-.447.01-.139-.007-.25-.036-.379-.054-.06-.01-.134-.022-.194-.02q-.794.024-1.582.056c-.277.012-.415-.03-.59-.056-.139-.02-.277-.015-.3.03-.06.11.152.156.623.135.387-.018.738-.02 1.042.047.042.009.139.013.198.01.379-.011.752-.026 1.131-.038.069-.002.143.002.207.006.942.053.942.054 1.26.043.152-.006.3-.011.286-.162.291-.162.752-.173 1.199-.197.291-.015.416.029.605.051.064.008.134.024.194.022q1.486-.048 2.966-.104c.166-.006.286 0 .415.026.166.033.351.054.614.042.526-.024 1.061-.04 1.596-.059.272-.01.272-.01.821.052.06.007.138.015.203.013q.802-.027 1.596-.056.223-.006.397.036c.115.026.254.04.397.035q.802-.027 1.596-.055c.065-.002.143.005.203.012.563.061.563.061.821.051.379-.015.766-.021 1.14-.041.364-.02.553.037.802.07.683-.024 1.371-.043 2.049-.07.277-.012.424.02.609.046.064.01.129.028.189.027.231-.004.457-.015.683-.023l.683-.024c.258.03.429.097.798.074.221-.014.456-.017.682-.025l.683-.024c.152-.005.309-.008.457-.017.272-.014.406.034.6.056.064.007.138.019.198.017.457-.014.918-.026 1.366-.049.346-.018.581.012.825.054.051.009.139.014.203.012q.802-.027 1.597-.056c.143-.005.281.011.396.037q.18.042.402.035l1.596-.056c.065-.002.143.006.203.014.517.062.517.063.821.05l.226-.007c.379-.014.771-.02 1.14-.043.424-.027.733.007 1.033.064.378-.012.766-.02 1.135-.04.277-.014.425.024.609.049.065.009.134.026.189.024.535-.016 1.07-.031 1.596-.056.286-.014.411.03.605.053.064.008.134.022.193.02q.458-.014.914-.03c.355-.013.355-.012.826.048.221.029.443.006.66 0 .23-.009.447-.015.632.026.115.026.253.042.396.038.305-.01.614-.018.914-.033.24-.012.447-.004.623.033.124.026.253.039.406.033.682-.024 1.37-.05 2.052-.072.06-.002.143.007.199.016q.193.028.378.058c.3-.01.609-.013.904-.027.314-.014.6-.02.845.036a.8.8 0 0 0 .184.027c.231-.004.457-.014.683-.022l.683-.023c.263.024.429.096.798.073.221-.014.457-.017.683-.025l.682-.024c.074-.002.157-.006.222-.003.069.004.129.018.189.028.185.03.355.058.618.041.222-.014.457-.017.683-.026.309-.01.309-.01.821.052.208.026.443-.008.641.014.134.015.25.04.379.056.055.007.143.01.207.008.305-.009.614-.017.914-.032.244-.012.447 0 .618.035.125.026.249.037.406.031.761-.028 1.522-.051 2.279-.082.258-.011.466.006.609.041.244.062.591-.01.844.04.157.03.314.066.6.05.526-.025 1.061-.039 1.592-.057q.282.04.572.08l.913-.031.683-.024c.074-.002.152-.006.221 0 .07.004.125.017.19.027.318.049.318.05.844.03.226-.01.443-.015.632.025.175.036.383.043.623.032q.678-.028 1.37-.048c.143-.005.277.012.397.037.179.041.401.037.627.026.3-.014.595-.028.849.028a1 1 0 0 0 .184.028c.379-.008.762-.014 1.131-.033s.549.043.802.073l1.14-.04c.074-.002.161-.011.226-.006.272.02.429.095.803.072.216-.012.452-.016.678-.02a.7.7 0 0 1 .18.03c.023.006 0 .025-.028.035-.083.028-.184.054-.258.083a.5.5 0 0 0 .129.03c.124.017.267.014.434.006.143-.006.29.007.392.037.041.012.027.032-.06.098 0 .048.097.026.129-.005.051-.046-.046-.061-.231-.036-.129.018-.193.044-.161.064.018.011.106.025.263-.023.406-.06.71-.07 1.015-.082.078-.003.17-.013.226-.007.198.024.383.053.576.08.222-.006.429-.021.646.018.305.054.319.05.614.038l.457-.016c.152-.005.272.01.406.033.272.047.295.047.475-.017a.57.57 0 0 1 .313-.033c.443.06.448.064.826.046.314-.015.609-.019.84.038a.46.46 0 0 0 .332-.011c.332-.11.484-.108 1.107-.029.291.038.591-.003.886-.008.249-.004.424.02.443.083.014.039.055.066.221.08.065.004.143.011.208.01l1.144-.04c.194-.008.3-.054.263-.116-.041-.065.032-.09.309-.108.166-.011.3-.01.434.009.148.02.106.038-.023.073-.309.088-.272.141.124.202.139.02.249.04.282.07.018.017 0 .037.041.05.226.066.54.109.891.14.336-.026.567.018.825.054.203.028.443.004.66-.006.245-.01.448-.003.623.034.125.026.254.038.406.033.304-.011.613-.018.913-.034a2.3 2.3 0 0 1 .614.04c.203.042.429.014.641.02.286.006.429.095.803.071.221-.014.452-.019.683-.023a.8.8 0 0 1 .184.028c.245.055.531.052.845.036.216-.011.429-.021.641.017.35.063.738.119 1.107.178.051.045.014.099.277.126.138.014.267.035.374.057.129.027.249.034.415.027.3-.014.613-.017.909-.035.272-.015.442.017.609.048.133.025.258.037.419.02.166-.018.286-.007.42.02.189.037.203.033.831.044a.7.7 0 0 1 .18.028c.018.007-.024.027-.056.037a1 1 0 0 1-.166.029q-1.026.037-2.053.075c-.069.003-.143.01-.194.02-.055.01-.124.025-.124.04 0 .01.092.021.157.028.203.023.443-.012.641.014.134.017.244.04.378.057.056.007.143.006.212.004.231-.007.457-.017.688-.023.064-.001.138.009.198.017.443.06.443.06.826.046.152-.005.314-.02.457-.014.138.006.258.033.383.05.258.036.503.07.521.148.009.03.161.056.314.058.147.002.304-.01.456-.015.36-.012.36-.012.826.049.129.016.268.018.434.008a2 2 0 0 1 .212.005c.226.015.226.034.078.07-.207.053-.189.058.393.102.221.017.392.05.576.077.3.045.296.045.097.103-.046.013-.087.027-.134.041-.133.039-.24.08-.516.084-.305.004-.609.02-.914.031-.295.011-.373.035-.346.103.033.081.093.09.623.089.152 0 .286.008.401.035a.7.7 0 0 1-.304.062c-.378.015-.761.028-1.14.041l-.913.033c-.189.007-.309.059-.258.116q.04.05.073.099c.051.065.148.082.457.08.079-.002.152-.01.226-.008.3.007.443.09.803.073.3-.014.614-.017.909-.035.272-.016.424.02.613.047.065.009.134.027.19.026.382-.01.765-.021 1.139-.04.175-.008.281-.002.42.022.332.057.341.054.835.036.36-.014.364-.012.826.049.129.017.267.017.433.009.217-.01.443-.026.669-.011a.7.7 0 0 1 .18.029c.014.009-.05.03-.106.038-.406.051-.881.042-1.324.063a1.5 1.5 0 0 1-.392-.04 1.6 1.6 0 0 0-.406-.032c-.305.01-.614.018-.914.033a2.6 2.6 0 0 1-.618-.04c-.06-.01-.129-.028-.189-.027-.683.02-1.37.04-2.048.067-.272.012-.429-.02-.614-.046-.064-.01-.129-.028-.189-.027-.231.004-.457.015-.687.023-.84.03-1.675.06-2.515.087-.055.002-.124-.019-.189-.028l-.383-.051c-.23.008-.456.018-.687.024-.166.004-.314.017-.337.055-.014.025.139.048.3.046.157-.002.314-.014.443-.001.641.064.641.065 1.043.052.35-.012.313-.022.622.032.134.024.254.038.406.032q.57-.022 1.144-.04c.06-.002.139.008.199.016.452.06.452.062.826.047.489-.018.507-.023.835.038.226.042.433.013.65.01.249.04.521.074.748.118.267.052.548.043.853.028.226-.011.447-.015.632.026.175.037.387.041.627.031.217-.008.439-.027.665-.005.06.005.152.02.147.03-.004.013-.064.033-.124.04-.425.04-.891.039-1.338.058-.06.003-.138-.008-.198-.016q-.193-.028-.379-.058c-.226.006-.456.008-.678.02-.171.009-.3.008-.424-.016-.116-.022-.24-.049-.379-.056-.138-.006-.3.008-.452.014s-.327.003-.447.02c-.12.015-.194.05-.272.078-.088.03-.208.04-.383.044a1.7 1.7 0 0 1-.411-.03 2 2 0 0 0-.189-.028c-.065-.007-.139-.018-.199-.016-.687.023-1.37.048-2.057.072-.341.011-.337.011-1.047-.047-.065-.005-.143-.012-.208-.01-.383.012-.761.026-1.144.04-.388.014-.383.012-1.043-.051-.12-.012-.295.004-.438.002-.3-.005-.447-.089-.798-.073-.3.014-.614.017-.914.035-.272.016-.429-.019-.613-.046-.065-.008-.134-.028-.189-.026-.688.021-1.37.046-2.284.05-.226 0-.124.02.023.027.212.011.282-.01.166-.05a.9.9 0 0 0-.3-.034c-.05.004-.115.023.111.056.24.038.226.059.268.07.101.03.244.042.392.038.231-.007.457-.017.687-.023.065-.002.143.005.203.013.508.061.512.065 1.052.041.171-.007.295-.007.429.012.185.026.318.07.6.056q.563-.027 1.139-.04c.06-.003.125.015.194.023.189.024.328.069.609.05.217-.015.452-.02.683-.022a.6.6 0 0 1 .18.028c.055.023-.014.05-.171.068-.064.008-.152.006-.226.01q-.457.016-.913.031c-.162.005-.314.02-.333.057-.013.025.153.046.31.044.23-.003.461-.01.682-.023.392-.022.734-.016 1.052.046.226.044.212.028.452.157.06.033.24.036.397.034q.569-.006.521.04c-.041.039-.175.05-.346.055q-.456.014-.913.032c-.074.003-.157.01-.226.007-.069-.002-.134-.014-.194-.023-.129-.018-.24-.047-.378-.054-.139-.007-.3.008-.452.014-.153.005-.314.02-.452.013-.139-.007-.254-.037-.379-.055-.06-.009-.133-.023-.193-.022q-.457.013-.914.03c-.374.014-.374.014-.826-.048a2.3 2.3 0 0 0-.433-.009c-.369.016-.374.013-1.048-.045a2 2 0 0 0-.207-.01q-1.03.035-2.053.072c-.586.021-.586.021-.909.12-.24.074-.245.074-.009.108.189.027.36.068.567.083.194.014.434-.03.646.015.106.023.244.048.378.052.213.005.439-.024.642.02.101.021.253.044.383.045.226.002.456-.014.682-.02.07-.003.148-.003.213.002.069.006.129.018.189.028.184.034.383.05.622.033a3.9 3.9 0 0 1 1.048.05c.041.009.143.01.207.006.166-.01.309-.011.434.008.051.008.125.021.115.03-.014.015-.069.035-.129.04-.434.034-.899.038-1.347.056-.06.002-.134-.011-.194-.02-.129-.018-.24-.048-.378-.055s-.3.006-.452.011-.314.02-.452.014a3 3 0 0 1-.379-.054 1.6 1.6 0 0 0-.424-.017c-.221.013-.452.015-.678.021-.125-.018-.249-.04-.378-.057a1.3 1.3 0 0 0-.199-.02q-.457.014-.913.032c-.305.01-.305.01-.821-.05a2 2 0 0 0-.204-.014q-.571.02-1.144.039a1.6 1.6 0 0 1-.401-.036 1.6 1.6 0 0 0-.397-.037q-.913.03-1.827.066c-.244.01-.452.001-.618-.035-.194-.04-.41-.03-.636-.023-.513.02-.517.02-.845-.031-.064-.01-.129-.03-.189-.028-.53.015-1.066.029-1.591.052-.277.013-.425-.022-.609-.047-.065-.01-.134-.028-.19-.026-.382.01-.766.02-1.139.04-.374.02-.517-.072-.798-.071-.383.001-.761.024-1.14.038l-.913.033q-.457.014-.914.032a1.7 1.7 0 0 1-.415-.026c-.171-.033-.374-.06-.558-.089-.281-.043-.282-.043-.623-.03l-.226.007c-.558.022-.558.02-1.269-.042a.7.7 0 0 0-.147.015q-.144.04-.272.08c-.125-.015-.277-.024-.36-.047-.236-.064-.605.024-.845-.04a2 2 0 0 0-.378-.05c-.143-.006-.304.008-.452.014-.383.015-.383.014-.71.102-.167.044-.406.036-.623.046-.226.01-.443.017-.632-.024a2.5 2.5 0 0 0-.623-.034c-.3.015-.609.024-.914.033a2 2 0 0 1-.207-.009c-.706-.059-.706-.06-1.047-.047-.153.006-.31.008-.457.017a2.5 2.5 0 0 1-.618-.037c-.06-.01-.13-.028-.19-.027q-.455.008-.904.022c-.23.007-.461.011-.682.025-.37.023-.549-.041-.803-.071-.379.013-.761.022-1.14.04-.175.007-.29.004-.424-.02-.171-.03-.328-.063-.605-.048-.369.02-.756.027-1.134.039-.254-.031-.439-.094-.803-.07-.222.013-.457.016-.683.024q-.456.014-.913.033c-.328.012-.323.009-.826-.05-.291-.035-.591.004-.886.01-.231.005-.346.05-.291.11.056.058-.069.104-.281.112-.531.018-1.066.038-1.596.055a2 2 0 0 1-.203-.012c-.568-.062-.568-.061-.821-.052-.379.015-.766.022-1.14.041a2.4 2.4 0 0 1-.614-.041 1.7 1.7 0 0 0-.415-.026c-1.827.066-3.654.128-5.476.197-.272.01-.429-.02-.613-.046-.065-.01-.125-.028-.19-.028-.152 0-.304.009-.456.015-.683.024-1.366.053-2.053.07-.291.008-.369.054-.494.092-.097.029-.207.04-.378.045a1.8 1.8 0 0 1-.415-.027 2.3 2.3 0 0 0-.614-.041c-.3.016-.604.023-.913.034-.157.005-.277.023-.328.058-.009.006.088.021.143.03.185.03.36.065.567.086.213.02.443-.003.665-.01.078-.001.152-.007.226-.006.069 0 .152.006.203.015.24.044.493.075.826.048.286.013.433.096.798.074.221-.013.452-.019.683-.024.06 0 .124.017.189.026.184.025.332.065.609.048.295-.018.609-.021.909-.035.166-.008.286-.001.415.025.166.033.355.057.613.041.222-.013.457-.016.683-.025.295-.011.295-.01.821.051.06.007.139.015.203.013.383-.012.761-.027 1.144-.039.148-.005.291.008.393.037.041.012.027.032.041.049-.761.027-1.522.05-2.279.082-.286.013-.415-.027-.604-.05-.065-.008-.134-.025-.194-.023q-.802.025-1.596.056a1.5 1.5 0 0 1-.415-.025c-.319-.077-.706-.035-1.066-.024-.277.008-.365.039-.332.104.041.078.207.102.632.088q.228-.009.456-.016a1.6 1.6 0 0 1 .402.035c.115.027.253.041.396.037.305-.009.614-.018.909-.033a2.4 2.4 0 0 1 .619.035c.189.041.41.032.632.023.516-.02.521-.019.844.03.064.01.129.03.189.029.531-.015 1.066-.028 1.587-.052.272-.012.429.02.609.046.065.009.129.029.189.027.383-.011.766-.022 1.14-.041.175-.01.281-.003.424.02.341.06.351.057.835.038.148-.005.309-.016.448-.008.138.007.249.036.378.054.06.008.134.02.198.017q.457-.013.914-.03c.286-.012.286-.01.821.05.217.027.443.005.66-.003.235-.009.447-.009.627.03s.397.037.627.029c.217-.008.439-.03.66-.003.508.061.508.062.821.05.457-.017.909-.033 1.371-.047.059-.002.138.01.198.017.129.018.24.048.378.055.139.008.3-.004.448-.01.475-.019.507-.026.826.04.267.054.599-.024.848.038.143.034.337.062.605.045.221-.014.452-.017.682-.025.365-.013.365-.012.826.047.06.008.139.018.199.016.304-.008.613-.015.909-.033.346-.02.567.017.825.054.203.029.443.005.66-.005a2.5 2.5 0 0 1 .623.032c.184.04.401.035.632.027.217-.007.438-.03.66-.002.475.061.475.061.821.05q.457-.019.913-.031c.06-.002.134.01.194.02.129.017.24.047.378.054.139.007.3-.006.452-.01.153-.006.314-.02.452-.015.139.006.268.031.379.053.129.026.249.029.424.019.222-.013.452-.016.678-.023.125.019.254.038.374.059.125.021.258.02.429.013.568-.024.572-.021 1.047.04.217.028.443.005.66-.002.231-.008.448-.012.628.028.175.038.392.043.622.03.148-.007.305-.012.457-.015.069-.001.152.003.203.01.245.043.484.08.821.054.295.008.443.09.798.073.3-.014.614-.017.909-.035a2 2 0 0 1 .605.047c.249.062.599-.022.848.039.143.035.328.062.605.048.304-.016.401.004.489.067.051.036.041.065-.051.093s-.194.023-.341-.01a2.6 2.6 0 0 0-.619-.035c-.239.008-.387-.044-.585-.064-.199-.02-.434.014-.642-.013-.489-.062-.489-.062-.821-.05-.226.008-.461.012-.683.025-.263.017-.433-.013-.613-.041-.065-.01-.129-.03-.185-.028-.53.015-1.066.029-1.591.054-.277.012-.425-.023-.609-.048-.065-.01-.134-.027-.19-.025-.456.014-.908.032-1.365.049-.088.027-.185.052-.268.081-.087.03-.207.043-.383.042-.29 0-.576.042-.867-.011-.3-.054-.323-.05-.613-.038-.37.017-.762.013-1.108.052-.06.007-.124.026-.124.04-.005.009.092.022.152.03.203.023.438-.011.641.013.134.016.245.04.379.057.055.007.138.006.212.005.078-.001.152-.008.226-.007.069.001.143.007.198.016.254.038.522.072.748.117.221.044.429.014.65.012.886.07.886.07 1.481.049q.223-.01.452-.01c.065 0 .125.018.189.028.185.03.36.056.618.04.222-.014.457-.016.683-.025.305-.011.305-.011.821.051.13.016.268.014.434.006.143-.007.291.008.392.037.042.012.028.032.042.049-.457.016-.918.027-1.361.05-.286.015-.415-.027-.605-.05-.064-.008-.133-.025-.193-.023q-.678.022-1.357.051c-.055.002-.124.025-.129.04-.009.025.106.05.272.049.222-.001.439-.018.637.023.166.036.374.051.618.036.148-.01.305-.01.452-.017.392-.024.748-.02 1.043.048.226.018.447.001.664-.008.162-.007.319-.014.434.005.244.04.484.08.821.053.365.028.641.086.946.134.143.023.254.036.42.021.069-.006.152-.006.226-.009.152-.005.313-.02.452-.014.138.007.254.036.378.054.06.009.129.024.189.023q.345-.01.683-.023l.678-.021.572.078.909-.032c.337-.012.337-.011.821.05.217.028.448.01.655-.003.346-.02.577.017.822.057.05.008.143.013.203.009q.36-.021.622.034c.125.026.25.038.402.033q.795-.031 1.591-.056c.065-.002.139.007.199.015.47.06.475.063.821.048.309-.014.595-.02.84.034.05.012.129.03.184.028.378-.01.761-.02 1.135-.038.171-.008.291-.005.424.018.171.03.323.064.605.051.78-.037.784-.03 1.707.038.064.005.152-.003.226-.007.157-.01.272.004.41.027.309.051.319.048.614.037.226-.009.461-.01.683-.025.341-.022.567.016.821.053.203.029.438.005.655-.004a2.6 2.6 0 0 1 .623.031c.12.026.249.04.401.035l1.592-.056c.064-.002.143.006.203.013.526.062.526.065 1.047.042.166-.007.305-.01.429.012.12.02.249.038.374.057.226-.007.457-.009.678-.02a2 2 0 0 1 .424.015c.176.027.323.074.6.051.143-.01.309-.008.452-.018.171-.013.286-.005.42.021.166.03.337.063.604.047.296-.018.609-.021.909-.035.166-.008.282 0 .416.026.166.033.355.053.613.04.526-.024.531-.02 1.043.043.129.016.267.014.433.006.143-.007.291.008.392.037.097.032.088.052.097.069m-41.11-8.962c-.152.005-.304.011-.526-.075-.013-.015-.004-.033-.036-.046a1.1 1.1 0 0 0-.328-.049c-.249-.004-.549.03-.544.056q.007.032.235.059c.064.007.115.018.175.026.176.023.314.068.568.045-.046-.061-.023-.03 0 0q-.036.058.212.076a1 1 0 0 0 .152-.005c.143-.022.166-.052.06-.13-.018.012-.005.035.037.041a1 1 0 0 0 .194-.006c.129-.019.194-.043.161-.064a.5.5 0 0 0-.161-.025c-.097 0-.185.022-.199.097m37.304 11.524c-.336.02-.724.012-1.061.051-.06.007-.12.025-.124.039-.005.009.087.022.143.029.124.015.263.01.424.006.245-.007.388.038.577.061.06.007.138.012.203.01q.558-.018 1.116-.039a2 2 0 0 0 .189-.018c.185-.03.167-.048-.013-.07-.199-.024-.356-.064-.559-.082-.29-.027-.586.008-.895.013m-26.199.726-.674.024c-.074.003-.152.004-.221.008a.9.9 0 0 0-.319.06q.163.04.379.038c.226-.006.447-.019.673-.022.245-.004.388.04.577.064.06.007.134.008.203.009.341.004.549-.048.484-.12-.046-.057-.221-.091-.433-.084zm27.777-2.194c.056-.017.116-.03.143-.044.083-.05.051-.088-.101-.128-.185-.049-.411-.016-.619-.011a.4.4 0 0 0-.133.035c-.019.008-.019.027.009.032.226.04.466.077.701.116m-40.021-2.936c-.222.008-.448.014-.669.025a.4.4 0 0 0-.138.035c-.06.024.004.056.193.06.217.003.443-.013.669-.021.286-.01.457-.047.351-.079a1.1 1.1 0 0 0-.406-.02M105.043 6.075l.447-.016a.9.9 0 0 0 .314-.062 1.6 1.6 0 0 0-.387-.037q-.338.009-.669.024c-.139.006-.272.028-.305.062-.032.026.277.04.6.029m223.335-.153c.06.009.12.026.18.026.147 0 .3-.006.438-.015a.4.4 0 0 0 .134-.036c.018-.01.014-.025-.014-.033-.134-.048-.669-.03-.757.024-.009.01.014.023.019.034M313.822.48c.014.016.019.032.037.048.037.03.139.051.286.066.116-.025.176-.052.171-.082q-.007-.024-.037-.048c-.037-.03-.138-.052-.286-.066q-.172.035-.171.082m84.749 13.02q-.061.021-.13.039c.125.028.24.037.328.021.055-.01.088-.024.129-.037a.9.9 0 0 0-.327-.022m-2.87.136c.06.009.116.02.18.027a.53.53 0 0 0 .277-.043c-.06-.009-.115-.02-.18-.027a.53.53 0 0 0-.277.043m1.818-.182c-.033.024.032.044.203.06.041-.012.097-.024.124-.038.047-.023-.032-.044-.198-.06zm-9.739-1.071c-.032.024.032.044.203.06.041-.012.097-.024.124-.038.047-.023-.032-.044-.198-.06zM374.512 5.35q-.062.02-.129.038a.9.9 0 0 0 .327.022c.056-.01.088-.025.129-.038a.9.9 0 0 0-.327-.022m-12.71-3.73a.56.56 0 0 0 .281-.044c-.06-.009-.115-.02-.18-.027a.5.5 0 0 0-.276.043zm-6.749-.234-.13.038c.125.029.24.038.328.022.055-.01.088-.025.129-.038a.9.9 0 0 0-.327-.022M309.283.48q-.062.02-.129.038a.9.9 0 0 0 .327.022c.056-.01.088-.025.13-.038a.9.9 0 0 0-.328-.022M81.385 8.564q-.091-.014-.175-.028c-.134.027-.175.052-.101.07.046.013.115.02.175.028q.206-.04.101-.07M18.48 35.251c-.435.019-.866.042-1.3.054-.231.006-.314.048-.409.087a.9.9 0 0 1-.302.047q-1.767.073-3.53.149c-.147-.013-.219-.034-.185-.058a.2.2 0 0 1 .11-.037c.805-.036 1.606-.074 2.415-.102.23-.008.294-.05.412-.086.037-.012.068-.03.117-.036.049-.008.12-.007.185-.009l3.9-.166c.147.013.219.033.185.058a.2.2 0 0 1-.11.037q-.747.03-1.489.062M256.668 40.456c-.196.012-.446.028-.65-.028a1 1 0 0 0-.332-.03q-.28.014-.563.023a1 1 0 0 1-.163-.019c-.106-.017-.196-.047-.31-.055-.113-.007-.249.014-.366.01-.155-.008-.219-.034-.178-.058a.3.3 0 0 1 .117-.036c.699-.037.703-.037.9-.002.151.028.291.058.506.041.181-.013.374-.016.559-.025.257-.012.257-.01.673.051.106.016.219.015.355.006.117-.007.231.009.325.035a.6.6 0 0 1-.265.06c-.188.01-.374.017-.608.027M249.314 40.155c.477-.02.957-.038 1.433-.062.196-.01.351.001.487.034.147.037.314.034.495.027a.8.8 0 0 1 .299.039c.03.01.022.03.034.046q-.624.028-1.255.052a1 1 0 0 1-.155-.016c-.102-.017-.189-.046-.298-.052-.235-.013-.469.013-.707.018a1 1 0 0 1-.299-.04c-.03-.012-.022-.03-.034-.046M77.268 31.751l1.485-.063c.147.014.215.033.185.058a.2.2 0 0 1-.11.037q-1.486.066-2.966.128c-.147-.014-.215-.034-.185-.058a.2.2 0 0 1 .11-.037c.49-.023.986-.043 1.48-.065M.82 37.182c-.223.002-.457.038-.706.011-.05-.005-.118-.02-.114-.03.008-.014.053-.032.102-.038.216-.025.484-.028.593-.096.053-.035.152-.047.284-.054.14-.008.238-.005.348.016.143.026.264.075.49.05.012.015.038.033.027.048s-.06.028-.106.039a1 1 0 0 1-.15.021c-.25.012-.5.022-.768.033M197.321 36.986c.185-.008.377-.012.559-.025.143-.011.234-.004.347.02.193.04.205.036.677.042a.5.5 0 0 1 .147.028c.019.007-.007.026-.03.036a.4.4 0 0 1-.128.029c-.299.003-.601.06-.892-.006a1.7 1.7 0 0 0-.51-.034c-.121.009-.25.013-.374.017a.9.9 0 0 1-.322-.037c-.109-.043-.045-.06.152-.056.124.002.249-.01.374-.014M265.797 43.724q.356-.016.718-.03c.049-.002.109.01.155.016.181.03.155.08.162.123.004.046-.416.083-.593.052-.197-.035-.374-.075-.646-.054a.75.75 0 0 1-.299-.038c-.102-.041-.045-.058.148-.055.113.002.234-.008.355-.014M145.823 30.42c.246-.01.492-.027.737-.028.144-.001.216.03.182.054a.2.2 0 0 1-.11.037c-.491.024-.982.043-1.474.065-.143-.014-.215-.034-.181-.058a.23.23 0 0 1 .11-.037c.245-.014.491-.022.736-.033M261.025 40.542c.238-.01.48-.024.718-.03.125-.001.223.021.238.047.008.011-.053.032-.102.037-.34.033-.707.037-1.062.054a.8.8 0 0 1-.302-.039c-.102-.042-.045-.057.147-.054.121 0 .242-.01.363-.015M203.603 37.118c.121-.005.246-.018.363-.014a.45.45 0 0 1 .242.062c.042.032.038.063 0 .09-.06.047-.121.045-.261.014-.215-.05-.23-.044-.657-.042a.5.5 0 0 1-.148-.027c-.056-.02-.026-.05.106-.067.098-.013.234-.011.355-.016M252.871 40.221c.177-.008.355-.02.532-.02.125-.001.223.021.235.046.003.011-.053.03-.099.037-.215.026-.457.028-.691.037a.8.8 0 0 1-.299-.04c-.102-.04-.041-.059.144-.053.057.002.117-.004.178-.007M224.32 39.022c-.264.012-.514-.003-.495-.028.027-.033.136-.055.25-.06q.27-.015.548-.024.175-.005.317.036a.6.6 0 0 1-.257.06c-.117.007-.242.011-.363.016M222.603 38.897c.178-.008.355-.02.533-.02.124-.002.223.021.234.045.004.012-.053.032-.098.038-.216.026-.457.028-.692.037a.8.8 0 0 1-.298-.04c-.102-.04-.042-.059.143-.053.057.002.117-.004.178-.007M201.892 37.11c.178-.007.355-.02.533-.021.124-.001.223.022.234.046.004.012-.053.03-.098.037-.216.027-.457.029-.692.037a.8.8 0 0 1-.298-.039c-.102-.04-.042-.06.143-.054.057.002.118-.004.178-.005M200.406 37.053c.189-.008.249-.013.31-.013a.9.9 0 0 1 .298.04c.102.04.042.053-.143.055-.238.002-.473.022-.711.026-.124.002-.223-.022-.23-.046-.004-.012.053-.032.098-.036.159-.015.333-.024.378-.026M221.186 31.303c-.121.005-.249.018-.363.013-.151-.006-.211-.033-.173-.057a.25.25 0 0 1 .109-.036c.242-.014.488-.023.73-.033.143.015.207.035.17.06a.3.3 0 0 1-.11.036c-.117.01-.242.012-.363.017M74.513 31.867q.177-.002.313.036a.6.6 0 0 1-.253.06 4 4 0 0 1-.181.008 1.1 1.1 0 0 1-.314-.036.7.7 0 0 1 .253-.06c.057-.005.121-.006.182-.009"/><path fill="#ffe492" d="M260.465 40.538c-.004-.028.227-.06.435-.06a.9.9 0 0 1 .287.041c.098.04.041.056-.144.053-.113-.002-.234.015-.348.012-.128-.001-.204-.023-.23-.046M204.724 37.236c-.004-.01-.023-.023-.011-.033.071-.054.506-.07.619-.023.019.008.027.023.012.032a.3.3 0 0 1-.11.035q-.176.015-.359.016c-.053 0-.102-.017-.151-.027M2.803 37.026c-.446.02-.453.019-.374-.03.072-.044.204-.07.397-.07.057 0 .117-.002.166.002a.5.5 0 0 1 .14.026c.023.022-.042.047-.155.063-.049.008-.113.006-.174.01M80.008 31.729a.7.7 0 0 1-.329-.02c-.083-.032.05-.07.28-.078.06-.002.125-.01.181-.006a.6.6 0 0 1 .148.027c.06.02.022.046-.099.068-.049.009-.12.007-.181.009M259.676 40.465q.05-.02.106-.038c.14.017.2.037.162.06-.023.013-.068.024-.102.037q-.21-.025-.166-.06M8.762 48.152c0-.011.053-.03.094-.034a.6.6 0 0 1 .246.034c.094.04.038.06-.136.05-.121-.008-.204-.028-.204-.05M206.531 36.326q.075.014.144.028a.37.37 0 0 1-.227.042c-.053-.006-.098-.018-.147-.027a.4.4 0 0 1 .23-.043M205.606 36.283a.6.6 0 0 1 .272.021c-.034.013-.064.027-.106.037a.6.6 0 0 1-.268-.021q.045-.018.102-.038M204.143 36.325q.075.014.143.028a.37.37 0 0 1-.227.042c-.052-.006-.098-.018-.147-.027a.4.4 0 0 1 .231-.043M203.372 36.274q.084.029-.083.069c-.049-.009-.106-.016-.143-.028q-.09-.028.083-.069.069.015.143.027"/></svg>