<svg xmlns="http://www.w3.org/2000/svg" width="49" height="90" fill="none" viewBox="0 0 49 90"><path fill="#1a3453" d="M13.485 50.681H2.36c-1.798 0-2.36-.674-2.36-2.36V34.724c0-1.798.674-2.36 2.36-2.36h11.125v-9.89c0-4.494.787-8.764 3.034-12.697C18.88 5.73 22.25 3.034 26.52 1.46 29.33.449 32.14 0 35.173 0h11.013c1.573 0 2.248.674 2.248 2.247v12.811c0 1.573-.675 2.248-2.248 2.248-3.034 0-6.068 0-9.102.112-3.035 0-4.608 1.461-4.608 4.607-.112 3.372 0 6.63 0 10.114h13.036c1.798 0 2.472.674 2.472 2.472V48.21c0 1.798-.562 2.36-2.472 2.36H32.476v36.634c0 1.91-.562 2.584-2.584 2.584H15.845c-1.686 0-2.36-.674-2.36-2.36z"/></svg>