<svg xmlns="http://www.w3.org/2000/svg" width="73" height="73" fill="none" viewBox="0 0 73 73"><path fill="#1a3453" d="M36.283 0c-1.302 0-2.604.07-3.898.21a34 34 0 0 0-4.187.709A36.33 36.33 0 0 0 8.945 12.39C-4.247 27.535-2.664 50.507 12.481 63.7c14.5 12.629 36.325 11.789 49.81-1.919q.684-.698 1.334-1.437a36.3 36.3 0 0 0 9.025-23.977C72.65 16.282 56.368 0 36.283 0M11.894 12.77c.192-.198.39-.388.586-.581.225-.222.45-.445.68-.66.202-.189.41-.37.618-.555q.349-.312.707-.614c.21-.179.428-.35.644-.522q.362-.293.734-.574.331-.25.67-.485c.252-.18.504-.364.76-.531a33 33 0 0 1 2.191-1.357 38 38 0 0 1 1.536-.826 35 35 0 0 1 1.58-.746l.861-.364q.375-.155.755-.3.44-.166.887-.32.378-.135.763-.26.454-.146.912-.276.383-.113.766-.22c.098-.025.197-.045.295-.071a30.1 30.1 0 0 0-7.747 12.58 40.7 40.7 0 0 1-8.307-3.196c.04-.042.074-.085.11-.121m-1.743 1.952c2.912 1.578 6 2.807 9.2 3.661a63 63 0 0 0-2.448 16.772H2.37a33.87 33.87 0 0 1 7.782-20.433m0 43.29A33.87 33.87 0 0 1 2.37 37.578h14.534a63 63 0 0 0 2.448 16.771 42.1 42.1 0 0 0-9.2 3.661m17.386 11.147c-.245-.062-.498-.142-.75-.216q-.462-.133-.918-.277-.383-.126-.76-.26a29 29 0 0 1-1.642-.62q-.435-.18-.866-.363-.371-.163-.738-.337-.423-.199-.849-.41c-.242-.12-.485-.242-.727-.374a34 34 0 0 1-2.314-1.36q-.346-.219-.688-.448a34 34 0 0 1-.767-.538q-.334-.236-.662-.485-.375-.285-.742-.58-.323-.255-.638-.517c-.242-.201-.476-.41-.711-.62-.206-.182-.414-.363-.615-.55-.231-.215-.456-.44-.681-.662-.195-.192-.394-.383-.586-.58q-.052-.058-.104-.113a40.7 40.7 0 0 1 8.306-3.198 30.1 30.1 0 0 0 7.748 12.58c-.098-.025-.198-.045-.296-.072m7.534 1.055c-5.187-.737-9.734-6.151-12.595-14.146a61.6 61.6 0 0 1 12.595-1.482zm0-18.053c-4.496.06-8.973.593-13.356 1.593a60.7 60.7 0 0 1-2.387-16.175H35.07zm0-17.006H19.328a60.6 60.6 0 0 1 2.387-16.175c4.383 1 8.86 1.533 13.356 1.593zm0-17.007a61.5 61.5 0 0 1-12.595-1.482C25.336 8.67 29.884 3.257 35.07 2.52zm27.344-3.426a33.87 33.87 0 0 1 7.783 20.433H55.663a63 63 0 0 0-2.447-16.772 42.2 42.2 0 0 0 9.2-3.66M45.02 3.574c.254.063.508.143.76.217.307.09.614.179.918.277q.382.126.76.26a29 29 0 0 1 1.641.619q.436.181.867.364.37.163.738.337.422.199.849.41c.242.12.484.242.727.374a34 34 0 0 1 2.314 1.359q.346.22.687.448.387.264.767.537a28 28 0 0 1 1.404 1.065q.322.253.638.516c.243.201.476.411.712.62.206.183.413.363.614.55.232.216.456.44.682.662.195.193.394.383.585.58l.104.113a40.7 40.7 0 0 1-8.306 3.198A30.1 30.1 0 0 0 44.724 3.5c.098.026.198.047.296.074M37.495 2.52c5.188.737 9.735 6.151 12.596 14.146a61.6 61.6 0 0 1-12.596 1.482zm0 18.053a64 64 0 0 0 13.357-1.593 60.7 60.7 0 0 1 2.387 16.175H37.496zm0 17.006H53.24a60.6 60.6 0 0 1-2.387 16.175c-4.384-1-8.86-1.534-13.356-1.593zm0 32.635V54.586a61.5 61.5 0 0 1 12.596 1.482c-2.861 7.995-7.408 13.409-12.596 14.146m23.177-10.251c-.191.198-.389.388-.584.58-.226.223-.451.447-.683.663-.2.187-.408.363-.614.551q-.351.315-.71.618-.319.264-.643.52-.361.293-.735.575-.331.248-.67.485c-.251.18-.503.364-.759.53q-.343.233-.693.454-.39.252-.785.485c-.242.142-.474.28-.712.417a36 36 0 0 1-2.373 1.233c-.242.115-.494.23-.744.34l-.862.363q-.374.154-.753.3-.443.168-.89.32-.379.136-.76.26-.454.146-.916.276-.38.114-.764.22c-.098.025-.196.046-.294.072a30.1 30.1 0 0 0 7.747-12.581 40.7 40.7 0 0 1 8.306 3.197q-.058.066-.109.122m1.743-1.952a42 42 0 0 0-9.2-3.66 63 63 0 0 0 2.448-16.772h14.535a33.87 33.87 0 0 1-7.783 20.432"/></svg>