<svg xmlns="http://www.w3.org/2000/svg" width="385" height="68" fill="none" viewBox="0 0 385 68"><g fill="#fff" clip-path="url(#a)"><path d="M0 9.813v13.62c0 4.148 5.054 6.36 8.143 3.457l14.743-13.62c3.23-2.973 1.123-8.227-3.3-8.227H4.844C2.176 5.043 0 7.186 0 9.813M69.78 5.043H55.038c-4.353 0-6.53 5.254-3.3 8.227l14.743 13.62c3.089 2.835 8.143.691 8.143-3.457V9.813c0-2.627-2.176-4.77-4.844-4.77M40.647 38.298l25.835 23.921c3.089 2.835 8.144.692 8.144-3.456V45.004a4.68 4.68 0 0 0-1.545-3.457L40.647 11.472a4.937 4.937 0 0 0-6.67 0L1.545 41.547A4.68 4.68 0 0 0 0 45.004v13.759c0 4.148 5.054 6.36 8.143 3.456l25.835-23.921a4.937 4.937 0 0 1 6.67 0"/></g><path fill="#fff" d="m104.281 55-8.383-30.804h8.643l4.773 20.696h.281l4.974-20.696h8.483l5.054 20.576h.26l4.693-20.576h8.623L133.32 55h-9.045l-5.294-19.373h-.381L113.305 55zm50.502-17.808V55h-8.543V13.928h8.302v15.703h.361q1.044-2.727 3.37-4.272 2.326-1.564 5.835-1.564 3.21 0 5.596 1.404 2.406 1.384 3.73 3.99 1.344 2.588 1.323 6.198V55h-8.543V36.91q.02-2.847-1.444-4.431-1.443-1.584-4.051-1.585-1.744 0-3.088.742-1.324.743-2.086 2.166-.742 1.404-.762 3.39M181.481 55V24.196h8.543V55zm4.291-34.775q-1.905 0-3.269-1.263-1.343-1.283-1.343-3.068 0-1.765 1.343-3.029 1.364-1.283 3.269-1.283t3.249 1.283q1.364 1.264 1.364 3.029 0 1.785-1.364 3.068-1.343 1.263-3.249 1.263m27.48 3.971v6.418h-18.55v-6.418zm-14.339-7.38h8.543v28.718q0 1.184.361 1.845.361.642 1.003.903.662.26 1.524.26a7.3 7.3 0 0 0 1.204-.1q.601-.12.922-.18l1.344 6.357a24 24 0 0 1-1.805.461q-1.163.28-2.828.341-3.089.12-5.415-.822-2.306-.942-3.589-2.928-1.284-1.986-1.264-5.014zm33.612 38.786q-4.753 0-8.183-1.926-3.41-1.945-5.254-5.495-1.845-3.57-1.845-8.442 0-4.754 1.845-8.343t5.194-5.595q3.369-2.006 7.902-2.006 3.048 0 5.675.983a12.6 12.6 0 0 1 4.613 2.908q1.985 1.946 3.088 4.893 1.103 2.928 1.103 6.859v2.346h-26.011V36.49h17.969q0-1.845-.802-3.27a5.75 5.75 0 0 0-2.226-2.225q-1.404-.823-3.269-.823-1.946 0-3.449.903a6.33 6.33 0 0 0-2.327 2.386q-.842 1.485-.862 3.31v5.033q0 2.286.842 3.95.862 1.665 2.427 2.568 1.564.902 3.71.902 1.424 0 2.607-.4a5.4 5.4 0 0 0 2.026-1.204 5.2 5.2 0 0 0 1.283-1.965l7.902.521q-.603 2.847-2.467 4.974-1.845 2.105-4.773 3.288-2.908 1.164-6.718 1.164m19.713 10.95V24.195h8.423v5.174h.381q.561-1.243 1.625-2.527 1.082-1.303 2.807-2.166 1.745-.882 4.332-.882 3.369 0 6.217 1.765 2.847 1.745 4.552 5.274 1.705 3.51 1.705 8.804 0 5.154-1.665 8.704-1.644 3.53-4.492 5.355-2.827 1.804-6.337 1.804-2.487 0-4.232-.822-1.724-.823-2.827-2.065-1.104-1.265-1.685-2.547h-.261V66.55zm8.363-26.954q0 2.748.762 4.793t2.206 3.189q1.444 1.123 3.51 1.123 2.086 0 3.529-1.143 1.444-1.163 2.186-3.209.762-2.065.762-4.753 0-2.667-.742-4.693t-2.186-3.168-3.549-1.143q-2.086 0-3.53 1.103-1.424 1.103-2.186 3.128t-.762 4.773m36.158 15.984q-2.947 0-5.254-1.023-2.307-1.043-3.65-3.068-1.323-2.046-1.324-5.094 0-2.568.943-4.312a7.6 7.6 0 0 1 2.567-2.808q1.625-1.062 3.69-1.604a28 28 0 0 1 4.372-.762q2.687-.28 4.332-.522 1.645-.26 2.386-.762.742-.501.742-1.484v-.12q0-1.905-1.203-2.948-1.183-1.043-3.369-1.043-2.307 0-3.67 1.023-1.364 1.002-1.805 2.527l-7.902-.642q.602-2.808 2.367-4.853 1.764-2.065 4.552-3.169 2.808-1.122 6.498-1.123 2.567 0 4.913.602 2.367.601 4.192 1.865a9.1 9.1 0 0 1 2.908 3.249q1.062 1.964 1.062 4.713V55h-8.102v-4.272h-.24a8.7 8.7 0 0 1-1.986 2.547q-1.243 1.083-2.988 1.705-1.745.602-4.031.602m2.447-5.897q1.885 0 3.329-.742 1.444-.762 2.266-2.045.822-1.284.822-2.908v-3.269q-.4.26-1.103.482-.681.2-1.544.38-.863.162-1.724.301l-1.565.22q-1.503.222-2.627.703-1.123.48-1.745 1.303-.621.803-.621 2.006 0 1.744 1.263 2.667 1.284.902 3.249.902m35.446 5.917q-4.733 0-8.142-2.006-3.389-2.025-5.214-5.615-1.805-3.59-1.805-8.263 0-4.732 1.825-8.302 1.845-3.59 5.234-5.595 3.39-2.026 8.062-2.026 4.032 0 7.059 1.464 3.029 1.464 4.794 4.111t1.945 6.217h-8.062q-.34-2.306-1.805-3.71-1.444-1.425-3.79-1.424-1.986 0-3.47 1.083-1.464 1.063-2.286 3.109-.822 2.044-.822 4.953 0 2.948.802 5.014.822 2.065 2.306 3.148 1.485 1.083 3.47 1.083 1.464 0 2.627-.601a5.1 5.1 0 0 0 1.945-1.745q.782-1.164 1.023-2.788h8.062q-.201 3.53-1.925 6.217-1.706 2.667-4.713 4.171-3.009 1.505-7.12 1.505m33.266 0q-4.753 0-8.182-1.926-3.41-1.945-5.255-5.495-1.845-3.57-1.845-8.442 0-4.754 1.845-8.343 1.846-3.59 5.194-5.595 3.37-2.006 7.902-2.006 3.048 0 5.675.983a12.6 12.6 0 0 1 4.613 2.908q1.986 1.946 3.088 4.893 1.103 2.928 1.103 6.859v2.346h-26.01V36.49h17.968q0-1.845-.802-3.27a5.75 5.75 0 0 0-2.226-2.225q-1.403-.823-3.269-.823-1.945 0-3.449.903a6.3 6.3 0 0 0-2.326 2.386q-.843 1.485-.863 3.31v5.033q0 2.286.843 3.95.861 1.665 2.426 2.568 1.565.902 3.71.902 1.424 0 2.607-.4a5.4 5.4 0 0 0 2.026-1.204 5.2 5.2 0 0 0 1.283-1.965l7.902.521q-.602 2.847-2.467 4.974-1.845 2.105-4.773 3.288-2.907 1.164-6.718 1.164"/><defs><clipPath id="a"><path fill="#fff" d="M0 5.042h74.626v58.49H0z"/></clipPath></defs></svg>