<svg xmlns="http://www.w3.org/2000/svg" width="319" height="31" fill="none" viewBox="0 0 319 31"><path fill="#ffe492" d="M298.175 15.912c-.434.026-.873.043-1.299.08-.277.024-.395-.045-.58-.081-.061-.013-.127-.038-.184-.035q-.646.039-1.291.082c-.132.062-.215.143-.417.173-.198.029-.431.029-.65.043q-.435.026-.869.05c-.145.008-.264.038-.312.095-.009.01.088.033.14.047.176.047.347.1.54.137.185.035.413-.022.611.022.443.1.448.098.786.079.289-.017.579-.036.869-.049.057-.003.123.02.184.033.185.035.303.113.576.084.206-.024.434-.029.649-.041.18.045.347.097.54.133.18.035.233.062.137.108-.088.042-.211.06-.374.063-.145.001-.29.015-.434.023l-.216.013c-.276.017-.276.017-.781-.084-.198-.04-.422.016-.61-.022-.128-.025-.237-.063-.36-.09a1 1 0 0 0-.202-.009c-.22.011-.439.019-.65.04-.149.014-.237.058-.22.102.005.017.11.042.172.044.14.003.289-.02.425-.008.132.011.268.043.365.077.197.073.421.008.61.027.198.02.36.083.549.121.048.01.14-.006.215-.01q.322-.017.646-.032c.18.045.373.086.535.138.294.095.611.131.993.085.215-.025.425-.016.597.046.175.063.377.057.601.044.207-.013.417-.047.628-.003.457.098.461.102 1.001.064.163-.01.285-.014.408.022.114.034.237.062.356.093.215-.01.435-.022.65-.034.276-.018.43.005.496.093.039.053.057.102.154.138.114.044.237.043.403.03.159-.01.273-.028.339-.085a.5.5 0 0 1 .127-.064.4.4 0 0 1 .136-.034c.066.007.154.024.176.045.215.19.215.192.434.247.242.061.492.116.712.186.197.061.395.034.61.034.162 0 .268.041.255.082-.009.024-.071.058-.123.062a59 59 0 0 1-1.3.08c-.053.003-.118-.025-.18-.04-.123-.028-.233-.072-.364-.081-.132-.01-.286.014-.431.022s-.298.028-.43.015c-.132-.012-.237-.058-.36-.088-.057-.014-.136-.034-.184-.03a1.8 1.8 0 0 1-.786-.083.7.7 0 0 0-.193-.02c-.51.026-1.015.058-1.524.088-.206.012-.373-.043-.417-.136-.022-.052-.066-.104-.066-.156 0-.094-.241-.146-.417-.135-.29.016-.584.028-.869.052q-.35.028-.589-.057c-.184-.064-.395-.052-.606-.035-.158.013-.202.065-.193.196.009.105-.066.138-.351.156q-.541.034-1.089.061c-.057.003-.123-.023-.18-.038-.123-.028-.233-.074-.364-.083-.132-.011-.286.012-.431.022-.145.008-.298.03-.43.019s-.242-.059-.36-.088c-.057-.015-.127-.035-.184-.032-.29.013-.58.032-.87.049-.325.019-.325.019-.786-.079-.21-.044-.421-.01-.628.003-.219.013-.426.02-.597-.044a1 1 0 0 0-.377-.058c-.365.019-.725.043-1.089.061a.7.7 0 0 1-.193-.018 1.9 1.9 0 0 0-.786-.085c-.281.028-.584.03-.865.056-.154.014-.224.065-.193.104.017.02.109.044.171.044.14.002.294-.022.426-.012.272.018.408.15.764.114.21-.021.43-.03.649-.036.058-.001.119.029.18.044.176.043.33.098.584.07.211-.022.435-.029.65-.041.343-.02.343-.02.786.077.211.046.422.01.628-.002.154-.008.299-.023.422-.001.188.033.324.108.557.104.22-.005.435-.027.654-.035a1 1 0 0 1 .374.063.9.9 0 0 0 .386.052c.215-.013.435-.028.654-.036a1 1 0 0 1 .189.025c.123.028.241.061.36.091.215-.01.435-.012.645-.031.163-.014.277-.008.409.023.167.043.303.119.575.082.136-.017.294-.012.43-.028a.76.76 0 0 1 .4.035c.224.09.505.091.794.056.317-.037.554.007.791.076.25.072.25.07.443.246.057.05.22.074.356.064.228-.015.426-.008.593.052.175.065.386.057.601.04.285-.024.571-.044.804.047a.9.9 0 0 0 .39.044c.435-.028.874-.046 1.3-.08.259-.023.408.028.584.07.237.059.496.11.496.235 0 .02.061.044.114.06.114.033.237.061.356.093.175.047.347.087.588.061.211-.02.435-.026.65-.04s.413-.023.606.037c.224.068.461.132.716.183.18.036.417-.025.61.023.118.03.233.065.36.09.052.011.136.003.206 0 .145-.006.294-.01.435-.027.162-.017.285-.014.408.023.114.033.229.078.36.088.198.014.417-.05.615.023.101.037.228.071.36.082s.285-.012.426-.01c.061 0 .136.024.171.045.022.01-.009.04-.039.056a.4.4 0 0 1-.154.048q-.652.04-1.304.078c-.259.016-.259.016-.782-.083a1.6 1.6 0 0 0-.412-.008c-.207.014-.417.041-.633.013-.281-.107-.627-.117-.996-.076a1.2 1.2 0 0 1-.409-.012c-.241-.06-.496-.115-.711-.186-.167-.055-.246-.06-.316.015-.022.024-.044.05-.04.071.027.08.075.156.101.235.009.022-.026.047-.048.07-.07.067-.162.062-.316.007a1.3 1.3 0 0 0-.584-.066c-.211.022-.439.019-.65.043a1.9 1.9 0 0 1-.786-.084.7.7 0 0 0-.193-.019c-.654.036-1.304.077-1.958.114a.9.9 0 0 1-.378-.059.9.9 0 0 0-.382-.056c-.579.033-1.159.063-1.738.104a1.5 1.5 0 0 1-.589-.059 1.1 1.1 0 0 0-.39-.048c-.167.004-.286.02-.369.066-.079.044-.022.07.153.105.189.038.365.087.545.13.145-.005.29-.018.43-.016.062 0 .119.028.18.044.176.045.338.091.589.066.21-.022.434-.027.649-.041.299-.017.299-.017.782.082.123.025.254.023.413.01a.76.76 0 0 1 .373.057c.039.02.026.05-.057.155 0 .077.092.042.123-.008.048-.072-.044-.096-.22-.057-.123.029-.184.07-.154.103.018.017.101.039.251-.038.386-.095.68-.106.961-.13a1 1 0 0 1 .404.032c.158.049.316.1.575.076.281-.029.58-.032.865-.055.264-.023.4.047.567.088.202.049.426-.006.61.022.193.028.329.098.553.11.325-.042.531.036.777.088.194.04.422.005.628-.012.233-.02.426-.002.589.055.184.064.39.05.601.036.492-.032.509-.036.795.05.206.063.404.035.61.027.18.043.356.088.545.126.048.01.14-.006.215-.01l.649-.039c.145-.008.299-.031.431-.022.131.011.241.057.36.087.118.03.241.06.355.091.176.047.343.087.589.063.21-.02.43-.027.65-.04.276-.018.267-.013.781.081.277.052.562-.01.843-.017a.9.9 0 0 1 .373.06c.04.019.027.05.04.077-.725.042-1.454.079-2.169.13-.277.021-.422-.036-.571-.083-.246-.075-.571.035-.803-.063a1.2 1.2 0 0 0-.584-.063c-.141.016-.29.014-.435.029-.369.034-.707.036-1.001-.073-.101-.038-.246-.058-.351-.094a1 1 0 0 0-.387-.054q-.98.056-1.954.117c-.057.003-.114.026-.162.044q-.183.065.114.107c.066.01.119.03.18.045.119.03.228.078.36.089s.286-.011.431-.02c.144-.007.298-.03.43-.021.132.01.241.056.364.085.057.014.128.038.185.036.289-.01.575-.027.865-.041.18.043.333.104.548.118.137.01.281-.008.422-.005.061.002.14.026.171.046.018.013-.039.044-.083.06-.167.06-.395.049-.602.068-.224.02-.426.014-.597-.048a1 1 0 0 0-.382-.055c-.364.02-.724.044-1.089.062a1 1 0 0 1-.193-.022c-.461-.096-.461-.1-.786-.08-.479.03-.478.03-.799-.053-.061-.015-.127-.045-.18-.044-.509.025-1.014.05-1.519.087-.167.01-.281.01-.404-.03a1.5 1.5 0 0 0-.36-.084c-.136-.009-.286.015-.43.023-.145.007-.299.028-.426.015-.132-.012-.246-.056-.36-.088a1.2 1.2 0 0 0-.409-.019c-.5.036-.505.032-1.001-.066a1 1 0 0 0-.193-.02c-.364.018-.724.042-1.089.061a.8.8 0 0 1-.373-.058c-.04-.02-.026-.05-.053-.112-.03-.014.005.01.013.034.066-.003.145 0 .194-.012.123-.03.184-.07.153-.102-.017-.018-.101-.04-.153-.04-.097 0-.18.035-.207.12-.276.052-.571.063-.856.088a.9.9 0 0 1-.404-.033c-.158-.05-.32-.1-.579-.074-.281.028-.58.033-.87.055-.333.025-.478-.116-.759-.113-.29.003-.58.03-.87.049-.254.015-.254.015-.781-.087-.193-.038-.422.017-.61-.022-.128-.025-.238-.063-.36-.09a1 1 0 0 0-.202-.008c-.365.02-.734.032-1.085.066a2.3 2.3 0 0 1-.988-.096c-.36.018-.724.027-1.08.057-.259.022-.408-.03-.584-.072-.061-.015-.114-.038-.18-.044-.066-.007-.145.006-.215.01-.29.018-.588.026-.869.054-.347.036-.479-.093-.747-.109-.18.077-.276.183-.632.19-.29.007-.58.032-.869.05l-.435.025c-.233.014-.342.076-.294.17q.038.078.07.156c.044.093-.066.172-.25.183-.51.03-1.014.061-1.524.088a.9.9 0 0 1-.377-.062.9.9 0 0 0-.382-.053c-.51.03-1.015.061-1.524.088a.8.8 0 0 1-.189-.025c-.123-.029-.241-.062-.36-.091-.289.014-.575.023-.86.042-.461.028-.461.03-.799-.057-.062-.015-.123-.045-.18-.044-.22.006-.435.022-.655.037-.645.04-.645.04-.834-.007-.171-.044-.325-.098-.584-.072-.281.028-.579.038-.869.053-.215.011-.43.024-.646.027-.057.002-.118-.028-.179-.044a1.4 1.4 0 0 0-.589-.062c-.14.016-.29.02-.435.027-.377.022-.377.022-.996-.072a1 1 0 0 0-.198-.016c-.509.028-1.014.06-1.523.087-.062.003-.136-.007-.198-.014-.694-.092-.694-.092-1.431-.048-.281.016-.29.022-.584-.061a1.1 1.1 0 0 0-.395-.043c-.58.038-1.164.063-1.739.107-.259.02-.408-.028-.584-.07-.061-.015-.127-.046-.18-.044-.579.03-1.159.066-1.739.095-.052.004-.118-.028-.18-.042-.118-.028-.232-.07-.364-.08-.136-.01-.286.014-.435.022-.364.02-.364.019-.786-.074-.057-.013-.131-.03-.188-.027-.58.032-1.164.058-1.739.104a2.1 2.1 0 0 1-.786-.087.7.7 0 0 0-.193-.017c-.654.036-1.304.077-1.958.113a.9.9 0 0 1-.378-.06c-.176-.064-.382-.056-.602-.042-.504.033-.509.032-.807-.044-.062-.016-.115-.036-.18-.044-.062-.008-.141-.003-.207 0l-.869.05c-.29.018-.584.027-.87.054-.351.033-.518-.07-.764-.117-.36.02-.728.033-1.084.066-.272.026-.399-.044-.579-.08-.062-.013-.128-.04-.185-.036q-.982.05-1.958.115a1.1 1.1 0 0 1-.395-.041c-.294-.085-.308-.082-.799-.05-.216.014-.422.026-.606-.038a1.4 1.4 0 0 0-.593-.054c-.285.024-.58.036-.869.052-.29.017-.58.041-.87.049-.232.008-.373-.066-.557-.104a1 1 0 0 0-.202-.01c-.29.015-.589.026-.87.052-.342.034-.531-.053-.772-.104-.053-.01-.141-.004-.207 0q-.761.044-1.523.09c-.18-.042-.365-.083-.545-.126l-.869.05c-.22.012-.444.016-.65.04-.268.032-.399-.043-.579-.079-.062-.012-.128-.04-.185-.036q-.548.024-1.089.063c-.342.027-.478-.115-.759-.113-.29.001-.589.022-.87.05a1.9 1.9 0 0 1-.786-.085.7.7 0 0 0-.193-.019c-.364.019-.724.043-1.089.062a1 1 0 0 1-.197-.015c-.694-.093-.694-.094-.997-.075-.215.012-.434.028-.654.036a.8.8 0 0 1-.193-.024c-.457-.096-.457-.097-.786-.078l-.87.052q-.272-.064-.544-.126c-.36.02-.729.036-1.084.064a1 1 0 0 1-.404-.031c-.158-.047-.316-.103-.58-.076-.281.029-.579.032-.865.055-.342.029-.483-.115-.759-.113a9 9 0 0 0-.87.05 1.9 1.9 0 0 1-.786-.085.7.7 0 0 0-.193-.019c-.799.046-1.594.092-2.393.14-.491.03-.491.032-1.427-.055a2 2 0 0 0-.202-.01c-.29.015-.588.026-.869.053-.343.033-.531-.052-.773-.104-.052-.011-.136-.005-.206-.002-.22.011-.435.026-.654.038l-.87.052c-.18-.04-.364-.083-.544-.124-.36.02-.729.031-1.085.064-.272.026-.399-.04-.579-.079-.062-.012-.127-.039-.185-.037q-.982.05-1.958.115c-.268.019-.391-.052-.571-.088-.061-.012-.131-.032-.188-.029q-.653.034-1.304.076c-.246.016-.246.016-.782-.082a1 1 0 0 0-.193-.019c-1.379.079-2.753.162-4.132.24a.9.9 0 0 1-.377-.057.9.9 0 0 0-.382-.057c-.58.033-1.164.063-1.739.104a1.5 1.5 0 0 1-.588-.058 1 1 0 0 0-.391-.048q-.435.028-.869.052l-.87.052c-.289.018-.584.027-.869.054-.351.033-.522-.065-.764-.113q-.653.035-1.3.072c-.579.033-1.159.07-1.738.1-.053.004-.119-.024-.18-.039-.18-.039-.312-.094-.58-.077-1.3.084-2.608.154-3.912.236-.272.018-.391-.05-.575-.086-.062-.011-.132-.033-.189-.03q-1.087.06-2.173.126c-.294.017-.294.017-.786-.08a1 1 0 0 0-.193-.023q-1.414.082-2.828.166a.9.9 0 0 1-.382-.057.9.9 0 0 0-.377-.058c-.87.05-1.744.1-2.608.154a1.5 1.5 0 0 1-.593-.055.95.95 0 0 0-.387-.049c-1.304.077-2.608.151-3.912.233a1.5 1.5 0 0 1-.584-.066 1.1 1.1 0 0 0-.395-.042c-.167.008-.268.025-.36.072-.118.061-.193.139-.474.143-.29.005-.584.024-.869.05-.273.028-.4-.043-.571-.086a1.2 1.2 0 0 0-.408-.02.74.74 0 0 0-.33.09c-.193.107-.21.107-.448.039a1.1 1.1 0 0 0-.382-.058q-.869.047-1.738.102c-.334.02-.338.024-.589-.055a1 1 0 0 0-.386-.049c-1.594.095-3.187.186-4.781.285a1.7 1.7 0 0 1-.589-.064c-.057-.016-.114-.038-.18-.045s-.14 0-.21.004c-1.159.067-2.323.132-3.478.208-.263.017-.404-.034-.584-.075-.061-.014-.114-.036-.18-.042-.066-.005-.145.006-.215.01-1.159.069-2.322.133-3.477.209-.277.017-.395-.049-.575-.084-.062-.012-.128-.036-.185-.033-.364.018-.724.041-1.089.062-.869.052-1.738.1-2.608.154-.333.02-.478-.12-.759-.113-.365.008-.725.039-1.089.061q-.435.025-.87.052c-.285.017-.285.017-.996-.074-.062-.008-.136-.019-.198-.016-1.014.058-2.033.117-3.042.18-.233.014-.426.006-.593-.052a1 1 0 0 0-.387-.052c-1.523.09-3.042.18-4.566.268a.8.8 0 0 1-.189-.026c-.123-.028-.241-.061-.36-.09-.087.035-.202.068-.259.11-.079.054-.184.07-.351.08s-.272.006-.404-.035c-.158-.05-.32-.09-.579-.074-1.594.1-3.188.189-4.782.287-.263.015-.386-.054-.571-.09-.061-.011-.131-.029-.188-.025-.655.036-1.304.075-1.959.113-1.813.107-3.626.21-5.435.323a2.1 2.1 0 0 1-.786-.087.7.7 0 0 0-.193-.019q-3.808.222-7.609.448a.9.9 0 0 1-.378-.059.9.9 0 0 0-.382-.055l-3.477.205c-.29.017-.294.019-.593-.057-.061-.015-.127-.045-.175-.042a.5.5 0 0 0-.268.1c-.071.057-.18.073-.343.084a1.1 1.1 0 0 1-.404-.032c-.162-.047-.311-.092-.575-.077-3.332.202-6.665.396-9.997.596-.268.015-.391-.05-.576-.087-.061-.011-.122-.027-.188-.03-.07-.003-.145.006-.215.011q-8.154.48-16.307.96c-.325.02-.32.02-.676.165-.044.017-.101.04-.163.044q-2.497.15-5 .296-1.088.064-2.174.127c-.259.014-.259.014-.878.184-.053.015-.114.034-.176.037q-4.345.258-8.698.512c-.228.012-.412.04-.518.116a.6.6 0 0 1-.316.095q-3.041.18-6.09.357c-.241.014-.386.058-.505.124-.039.023-.074.048-.131.064-.053.014-.132.018-.198.023-1.739.102-3.477.208-5.22.306-.26.014-.365.072-.492.134-.044.02-.075.048-.132.063-.057.012-.14.012-.21.015l-4.347.257c-.281-.008-.343.083-.479.138-.048.02-.083.045-.14.057-.062.013-.14.011-.215.014-1.16.068-2.319.14-3.482.204-.268.014-.32.094-.466.15-.048.017-.096.043-.153.048q-1.088.068-2.173.13c-.242.013-.242.012-.668.168a.6.6 0 0 1-.167.04q-1.627.1-3.262.194a.54.54 0 0 0-.307.1.56.56 0 0 1-.312.096q-1.305.08-2.608.152c-.242.013-.4.052-.505.123-.079.054-.176.08-.33.09-.869.05-1.738.106-2.612.15-.254.012-.386.066-.492.132-.083.053-.18.072-.342.082-1.594.091-3.192.182-4.781.283-.268.017-.404-.038-.58-.077-.25-.055-.483-.115-.483-.238 0-.019-.075-.04-.127-.056-.39-.119-.39-.119-.452-.244-.035-.078-.075-.156-.106-.235-.057-.13-.197-.162-.601-.139-.145.008-.29.02-.435.025-.215.011-.378-.04-.417-.135q-.035-.078-.07-.156c.22-.013.215-.014.601-.205.163-.08.163-.08-.149-.16-.119-.03-.233-.063-.36-.092a.8.8 0 0 0-.193-.017q-.546.03-1.085.063c-.58.035-.58.035-1.168-.126-.048-.013-.123-.036-.114-.049.048-.058.167-.083.316-.09.22-.009.435-.025.65-.037l.435-.026c.136-.06.276-.118.404-.18.202-.094.202-.097-.075-.163-.176-.044-.364-.083-.544-.124q-.326.02-.65.038c-.272.014-.382-.016-.453-.119-.06-.09.014-.166.224-.185.216-.02.418-.032.527-.112.106-.077.29-.107.518-.114.145-.004.29-.015.435-.025.189-.012.29-.093.25-.182-.021-.059-.065-.108-.237-.12-.76-.055-.768-.054-1.146-.16-.035-.01-.061-.039-.048-.053a.2.2 0 0 1 .123-.063 70 70 0 0 1 1.515-.09c.167-.007.29-.018.347-.077.079-.08.044-.154-.11-.21a.6.6 0 0 0-.18-.037c-.58.028-1.155.065-1.735.093a.34.34 0 0 1-.17-.044c-.045-.038.021-.088.175-.106.202-.023.408-.025.544-.104.19-.111.422-.214.633-.32.035-.02.092-.056.079-.06-.11-.034-.237-.06-.352-.094-.193-.055-.193-.132-.149-.206.035-.06.167-.083.33-.083.07 0 .157 0 .215-.015.149-.034.197-.078.122-.111a.5.5 0 0 0-.175-.043c-.94.052-1.884.102-2.819.167-.277.019-.404-.041-.57-.084a.94.94 0 0 0-.405-.021c-.149.021-.294.009-.386-.043-.075-.043.057-.079.413-.12.066-.008.14-.012.188-.028.51-.17.51-.172.861-.194.343-.02.343-.022.523-.113.083-.043.175-.085.254-.13.03-.017.084-.048.066-.058-.096-.048-.228-.06-.382-.048-.342.026-.746.004-.926.154-.07.057-.18.072-.338.082-1.59.091-3.18.189-4.773.277-.26.014-.378.072-.479.137-.087.054-.184.07-.35.079-.168.01-.3.014-.396-.038-.057-.032-.009-.076.123-.12.189-.063.154-.142.092-.215-.044-.05-.18-.084-.325-.08-.215.005-.421.023-.601-.04-.106-.036-.237-.062-.356-.093-.228-.065-.457-.13-.777-.088-.22-.016-.373-.073-.549-.117-.294-.072-.32-.083-.11-.16.237-.087.053-.2.185-.285.14-.092.333-.172.505-.257l.127-.065c-.1-.031-.193-.07-.312-.093-.153-.028-.232-.063-.224-.16-.03-.015-.017.022.018.031.04.01.136.002.184-.01.123-.03.185-.069.154-.102a.3.3 0 0 0-.154-.039c-.096 0-.18.035-.206.12-.492.064-1.001.096-1.51.12-.053.004-.119-.027-.18-.043-.202-.054-.202-.052-.795-.068a.4.4 0 0 1-.176-.046c-.127-.096-.123-.201-.184-.303q.17-.1.347-.196c.237-.13.544-.245.729-.389-.04-.077-.093-.154.1-.217.55-.079.545-.079.694-.154.426-.215.848-.43 1.291-.641.119-.055.119-.085-.092-.11a2 2 0 0 0-.207-.004c-.219.011-.439.04-.654.033-.215-.005-.373-.074-.549-.116q-.27-.067-.54-.136c-.206.005-.412.05-.619-.022-.158-.055-.355-.094-.535-.14.136-.12.39-.211.588-.317.18-.096.184-.094.667-.168.229-.035.308-.213.115-.265-.233-.063-.479-.12-.716-.18-.206.004-.417.047-.615-.024a1.35 1.35 0 0 0-.584-.07c-.43.035-.869.052-1.304.08-.149.01-.311.004-.377-.05-.044-.037.083-.09.228-.1.22-.016.417-.035.527-.114.105-.079.298-.102.527-.113a.4.4 0 0 0 .162-.041c.158-.091.334-.17.672-.167.14-.032.215-.071.171-.109a.36.36 0 0 0-.171-.044c-.364.016-.729.032-1.084.06-.167.013-.295.016-.4-.031-.075-.032-.035-.075.105-.12.123-.04.158-.085.15-.139-.022-.124-.154-.16-.576-.153-.303.007-.377-.014-.443-.12-.018-.026-.061-.06-.03-.078.188-.107.311-.24.667-.29.14-.019.29-.019.377-.06s.167-.088.26-.127c.113-.047.192-.091.14-.121-.088-.054-.229-.059-.391-.04-.14.016-.29.018-.435.027-.259.017-.47-.024-.5-.093-.084-.183-.171-.364-.246-.546-.009-.023.013-.05.048-.07.123-.066.255-.129.382-.193.15-.074.387-.06.589-.074.285-.02.285-.02.667-.17.15-.06.408-.037.562-.09.048-.018.123-.046.11-.062-.018-.02-.106-.036-.172-.045a1 1 0 0 0-.201-.01c-.8.046-1.594.095-2.393.139-.136.008-.286-.027-.334-.076-.048-.046-.035-.1-.044-.153.127-.064.272-.124.382-.193.083-.054.18-.078.347-.08.22-.005.435-.024.68-.038.457-.23.905-.471 1.397-.701.197-.093.149-.188.188-.287.04-.091.334-.077.532-.104.158-.022.21-.072.149-.107a.4.4 0 0 0-.176-.044c-.145 0-.29.014-.434.022s-.312.003-.43.03c-.115.025-.19.079-.264.124-.084.05-.193.068-.36.071-.215.003-.43.018-.645.029-.238-.062-.483-.122-.712-.186-.044-.013-.053-.049-.048-.073.009-.061-.057-.099-.202-.129-.123-.025-.224-.061-.338-.093.088-.042.184-.083.255-.129.153-.096.346-.165.68-.162.132-.062.237-.137.408-.18.163-.04.44 0 .562-.092a.6.6 0 0 1 .273-.117c.188-.03.434-.014.544-.102a.56.56 0 0 1 .29-.11c.145-.013.294-.016.4-.046.056-.016.118-.041.118-.063 0-.014-.088-.037-.15-.046a1 1 0 0 0-.197-.016c-.22.01-.435.027-.654.037-.062.003-.132-.008-.198-.018-.193-.025-.18-.057-.026-.113.154-.055.263-.126.39-.19.141-.012.317-.007.413-.037.163-.049.277-.12.409-.181.145-.01.294-.013.43-.03.057-.006.083-.041.132-.062.088-.039.162-.095.28-.114.194-.029.431-.018.545-.104a.5.5 0 0 1 .29-.107c.342-.007.487-.093.663-.175.132-.062.413-.03.558-.092.096-.039.166-.088.263-.126a.8.8 0 0 1 .189-.028c.36-.024.724-.04 1.084-.066.057-.005.11-.028.154-.047.092-.041.15-.098.263-.125.115-.026.277-.026.417-.034.453-.024.488-.018.694-.152.167-.108.575-.031.712-.15.079-.07.223-.127.482-.135.365-.01.725-.04 1.09-.061.324-.019.32-.019.671-.165.158-.067.39-.057.597-.07.22-.012.422-.031.527-.11.105-.077.299-.102.522-.113.207-.011.44-.003.602-.066.395-.152.39-.153.668-.169q.652-.037 1.303-.077c.29-.018.593-.02.865-.055.198-.026.286-.114.413-.175l1.08-.07 1.524-.09c.22-.059.25-.191.619-.198.22-.003.434-.023.654-.036.364-.022.725-.05 1.089-.061.276-.008.325-.093.47-.147.048-.019.092-.045.149-.05.57-.044 1.159-.054 1.717-.118.057-.007.11-.04.123-.063.008-.013-.066-.036-.115-.047a.8.8 0 0 0-.193-.022l-5.44.318c-.254.015-.254.014-.873.187a1 1 0 0 1-.18.035c-.29.019-.584.03-.87.053-.233.02-.426 0-.593-.056a1.1 1.1 0 0 0-.39-.05 1 1 0 0 0-.373.064c-.128.058-.194.134-.461.15-1.234.067-2.468.143-3.697.215-.172-.022-.255-.055-.211-.094a.24.24 0 0 1 .132-.059c.505-.033 1.014-.061 1.519-.093.07-.004.167-.001.206-.017.193-.07.264-.186.628-.194.21-.004.426-.028.628-.05.057-.006.11-.04.123-.063.004-.013-.066-.036-.119-.047-.193-.046-.417.01-.61-.022-.066-.011-.158-.027-.171-.046-.01-.017.066-.046.118-.063a.8.8 0 0 1 .18-.035c.58-.036 1.16-.074 1.739-.102.237-.011.404-.05.51-.123a.6.6 0 0 1 .324-.09c1.014-.058 2.029-.122 3.047-.176.255-.013.387-.065.492-.132.083-.054.18-.073.343-.082 1.453-.082 2.897-.173 4.35-.252.268-.014.348-.082.484-.14.048-.02.078-.046.14-.059s.14-.01.215-.014c1.16-.067 2.318-.14 3.482-.203.272-.014.325-.093.465-.148.049-.017.092-.046.15-.05q1.303-.08 2.608-.156.87-.053 1.738-.103c.286-.015.286-.017.672-.167a.6.6 0 0 1 .163-.042c1.668-.1 3.332-.197 5-.296a.56.56 0 0 0 .312-.098.55.55 0 0 1 .308-.097q1.955-.12 3.916-.23c.237-.013.404-.05.51-.122a.6.6 0 0 1 .324-.09c1.304-.075 2.608-.155 3.917-.228.25-.014.373-.067.496-.13.044-.023.079-.059.131-.062.65-.044 1.296-.09 1.95-.12.272-.012.364-.078.474-.141.088-.05.189-.068.356-.074.364-.015.724-.041 1.08-.068.052-.005.118-.04.123-.061.008-.041-.093-.07-.26-.084L49 6.208c-.285.017-.285.017-.672.167a.6.6 0 0 1-.166.043c-1.669.099-3.333.196-5.001.296a.56.56 0 0 0-.312.097.55.55 0 0 1-.307.098q-2.39.143-4.786.28c-.237.013-.404.05-.51.122a.6.6 0 0 1-.324.09c-1.524.088-3.043.18-4.571.265-.154.008-.268-.037-.259-.08.004-.022.07-.058.123-.061.795-.052 1.585-.106 2.384-.145.268-.013.347-.082.483-.14.044-.02.079-.048.136-.059.062-.012.14-.01.215-.014 1.884-.112 3.767-.225 5.655-.33.273-.016.325-.093.466-.149.048-.018.092-.047.149-.05.58-.038 1.16-.07 1.739-.104l3.047-.18c.294-.017.294-.017.672-.165a.6.6 0 0 1 .162-.042q4.024-.24 8.048-.476a.56.56 0 0 0 .312-.098.6.6 0 0 1 .307-.099c3.627-.214 7.249-.428 10.876-.64.237-.013.404-.046.509-.12.075-.054.175-.082.325-.092l11.964-.705q4.025-.239 8.048-.473c.246-.014.378-.063.5-.127.04-.022.08-.059.133-.062q.863-.058 1.725-.112l.54.126.404-.18c.87-.046 1.725-.117 2.604-.14.057 0 .118.03.18.045.408.1.64.091.9-.041.092-.047.17-.09.311-.098.435-.028.874-.047 1.305-.08.232-.017.425-.002.592.055.119.041.242.058.387.049.799-.047 1.593-.093 2.392-.143.058-.004.11-.03.154-.05.092-.04.171-.084.259-.127.119.027.25.047.347.082.123.041.237.041.404.03 3.188-.19 6.38-.376 9.567-.568.272-.016.391.05.575.085.062.012.123.028.189.031.07.003.145-.006.215-.011l7.179-.424c.316-.019.316-.019.786.08a.7.7 0 0 0 .193.021q1.635-.094 3.262-.19c.141-.008.259.017.387.053.25.071.267.071.452-.033a.8.8 0 0 1 .325-.093c.158-.016.285-.01.408.018.176.039.303.105.571.088 1.159-.074 2.322-.136 3.477-.211.264-.018.404.036.58.075.061.014.118.036.184.041s.145-.006.215-.01c1.449-.086 2.902-.17 4.347-.26.272-.018.391.05.575.084.062.013.132.035.189.032.869-.049 1.743-.1 2.612-.153.312-.019.312-.017.786.079a.8.8 0 0 0 .194.022q1.523-.088 3.047-.178c.311-.019.311-.019 1.211.063.066.006.136.016.202.013 1.159-.068 2.323-.134 3.482-.207.233-.014.426-.001.593.055a1 1 0 0 0 .386.05c1.304-.078 2.613-.152 3.912-.234.251-.016.413.019.589.065.057.015.114.037.18.044s.14 0 .21-.005c1.304-.077 2.613-.15 3.912-.233.264-.017.404.036.58.076.061.014.127.042.18.04.509-.026 1.019-.05 1.523-.09.273-.021.391.051.576.086.061.01.131.034.188.031a720 720 0 0 0 3.263-.192 1 1 0 0 1 .39.046c.163.055.352.077.589.06.505-.037 1.014-.062 1.523-.092.299-.017.299-.017 1.212.065.066.006.136.016.202.012.869-.05 1.743-.099 2.608-.154.233-.016.426-.001.593.055.118.041.237.059.386.05l2.393-.143c.29-.017.58-.047.87-.047.21.002.364.077.553.115.052.011.14-.002.21-.005 1.015-.06 2.033-.115 3.043-.182.264-.018.404.036.58.075.061.014.127.043.18.041.364-.017.724-.04 1.089-.061.434-.025.873-.044 1.304-.079.351-.028.483.109.764.113.215.005.434-.022.649-.034.435-.025.87-.054 1.304-.076.154-.008.273-.033.321-.09.009-.01-.066-.034-.114-.048-.584-.161-.584-.161-1.173-.126q-.544.034-1.088.063c-.062.003-.132-.01-.194-.02-.175-.026-.158-.058-.008-.114.149-.057.263-.126.39-.19l.536.122.435-.025c.724-.041 1.449-.084 2.173-.121.053-.004.119.028.18.044.176.045.334.085.588.067.65-.045 1.304-.078 1.954-.118.286-.017.286-.017.786.08a1 1 0 0 0 .193.021c.655-.036 1.304-.076 1.959-.113a.8.8 0 0 1 .377.058c.04.019.031.05.198.309.518.209.873.187 1.234.168.153-.008.289-.016.39-.047.053-.017.119-.043.119-.063 0-.016-.097-.041-.158-.044-.435-.032-.848.034-1.274.049-.197.006-.368-.05-.403-.139a1 1 0 0 0-.036-.077c-.013-.025-.021-.052-.035-.077-.171-.008-.272.02-.347.074a.7.7 0 0 1-.267.118c-.119.025-.281.02-.426.028-.141.008-.294.028-.426.017-.132-.012-.237-.058-.36-.086-.057-.014-.128-.035-.185-.032a94 94 0 0 0-1.506.089c-.263.018-.395-.048-.562-.089-.131-.031-.263-.023-.285.05-.057.172.145.245.593.212.369-.029.702-.033.992.074a.6.6 0 0 0 .189.017c.36-.019.715-.042 1.075-.061.066-.003.137.003.198.01.896.084.896.086 1.199.067.145-.01.285-.017.272-.257.277-.257.716-.274 1.142-.312.276-.023.395.046.575.082.061.013.127.038.184.035q1.415-.078 2.823-.165c.158-.01.272 0 .395.04.158.052.334.086.584.067.501-.038 1.01-.062 1.519-.093.26-.016.26-.016.782.082a1 1 0 0 0 .193.02c.509-.027 1.015-.06 1.519-.088a.9.9 0 0 1 .378.057c.11.042.241.064.378.056.509-.028 1.014-.06 1.519-.088a1 1 0 0 1 .193.019c.536.098.536.098.781.082.36-.024.729-.035 1.085-.066.347-.032.527.06.764.11.65-.036 1.304-.066 1.949-.11.264-.02.404.033.58.074.061.014.123.044.18.042.219-.006.435-.023.65-.036l.65-.038c.245.046.408.153.759.117.211-.022.435-.027.65-.04l.65-.037c.145-.008.294-.013.434-.027.259-.024.387.053.571.088.062.011.132.03.189.027.435-.022.874-.041 1.3-.077.329-.029.553.019.785.085a.7.7 0 0 0 .194.019c.509-.027 1.014-.06 1.519-.089a.9.9 0 0 1 .377.059.9.9 0 0 0 .382.055c.505-.029 1.015-.06 1.52-.088a.8.8 0 0 1 .193.022c.492.097.492.099.781.08l.215-.013c.36-.022.734-.03 1.085-.067.404-.043.698.01.983.1.36-.018.729-.03 1.08-.061.264-.024.404.036.58.076.062.014.127.042.18.039.509-.027 1.019-.05 1.519-.09.272-.022.391.049.575.085.062.013.128.035.185.032q.435-.021.869-.05c.338-.02.338-.018.786.078.211.046.422.01.628-.002.219-.012.426-.022.601.043a1 1 0 0 0 .378.06c.29-.014.584-.028.869-.052.229-.019.426-.006.593.052.119.04.242.061.386.052l1.954-.114a.7.7 0 0 1 .189.026q.184.043.36.091c.285-.014.58-.02.861-.043.298-.022.57-.03.803.057a.5.5 0 0 0 .176.044c.219-.006.434-.022.65-.034l.649-.038c.251.04.409.153.76.116.211-.022.435-.026.65-.039q.324-.02.65-.038c.07-.003.149-.01.21-.005.066.007.123.029.18.045.176.045.338.09.589.064.21-.022.434-.027.65-.04.294-.018.294-.018.781.081.198.041.422-.013.61.022.128.024.237.063.36.09a1 1 0 0 0 .198.012c.29-.014.584-.028.869-.051.233-.02.426 0 .589.056.118.041.237.058.386.049.724-.044 1.449-.082 2.169-.13.246-.018.443.009.579.065.233.098.563-.017.804.062.149.049.299.105.571.082.5-.041 1.01-.063 1.515-.092l.544.128q.435-.026.869-.05c.215-.013.435-.027.65-.038.07-.003.145-.01.211-.002s.118.029.18.044c.303.077.303.08.803.048.215-.015.422-.024.602.039.167.058.364.07.593.052.43-.032.865-.055 1.304-.077a1 1 0 0 1 .377.06c.171.064.382.058.597.04.286-.022.567-.044.808.045a.5.5 0 0 0 .176.044c.36-.013.724-.022 1.076-.052.351-.03.522.067.764.115l1.084-.062c.07-.004.154-.019.215-.01.259.032.408.15.764.114.206-.02.43-.027.646-.031a.4.4 0 0 1 .171.045c.022.011 0 .041-.027.057-.079.044-.175.085-.245.13-.009.007.074.035.122.048.119.028.255.024.413.011a.75.75 0 0 1 .373.058c.04.02.027.05-.057.155 0 .077.093.042.123-.008.049-.073-.044-.096-.219-.057-.123.028-.185.07-.154.103.018.017.101.039.25-.038.387-.095.677-.112.966-.13.075-.004.163-.02.215-.01.189.037.365.083.549.126.211-.01.409-.034.615.028.29.086.303.079.584.061q.217-.014.435-.025c.144-.008.259.016.386.052.259.074.281.074.452-.027a.35.35 0 0 1 .299-.053c.421.096.426.102.786.074.298-.024.579-.03.799.06.149.063.197.048.316-.018.316-.175.461-.171 1.054-.045.276.06.562-.005.843-.013.237-.006.404.032.421.13.013.062.053.106.211.127.061.008.136.019.197.015.365-.018.725-.04 1.089-.063.185-.01.286-.085.251-.182-.04-.104.03-.142.294-.172.158-.017.285-.014.412.014.141.032.101.06-.021.117-.295.138-.26.223.118.32.132.033.237.063.268.111.017.026 0 .059.039.078.216.105.514.173.848.223.32-.042.54.029.786.085.193.044.421.006.628-.01a1.5 1.5 0 0 1 .592.054c.119.041.242.06.387.052.289-.017.584-.028.869-.053.246-.022.43.01.584.063.193.067.408.022.61.031.272.011.409.151.764.114.211-.022.431-.03.65-.037a.5.5 0 0 1 .176.044c.232.087.505.082.803.057.206-.017.408-.033.61.027.334.1.703.189 1.054.282.048.072.013.157.264.2.131.022.254.055.355.091.123.043.237.054.395.043.286-.022.584-.027.865-.055.259-.026.422.026.58.075a.8.8 0 0 0 .399.03.76.76 0 0 1 .4.033c.18.058.193.052.79.07a.4.4 0 0 1 .172.045c.017.011-.022.043-.053.058a.5.5 0 0 1-.158.046c-.65.041-1.304.077-1.954.118a1 1 0 0 0-.184.032c-.053.017-.119.04-.119.063 0 .015.088.034.149.045.193.037.422-.019.611.022.127.027.232.065.36.09.052.011.136.01.202.006.219-.01.434-.026.654-.036.061-.001.132.014.189.027.421.095.421.095.786.074.144-.008.298-.031.434-.022.132.01.246.052.365.079.246.056.478.112.496.234.009.048.153.089.298.092.141.003.29-.014.435-.024.342-.019.342-.019.786.077.123.027.254.03.413.014a1 1 0 0 1 .202.008c.215.024.215.054.074.11-.197.084-.18.092.373.163.211.027.374.077.549.121.286.07.281.07.092.164q-.063.03-.127.064c-.127.062-.228.128-.492.134-.289.007-.579.032-.869.05-.281.016-.356.054-.329.161.03.13.088.144.592.142.145 0 .273.013.382.055-.052.05-.149.09-.289.1-.36.023-.725.043-1.085.064l-.869.052c-.18.01-.294.093-.246.184q.038.078.07.156c.048.104.141.13.435.126.075-.002.145-.014.215-.011.285.011.421.142.764.115.285-.022.584-.027.865-.055.259-.025.404.031.584.074.061.014.127.044.18.042.364-.017.729-.034 1.084-.064.167-.013.268-.003.4.034.316.092.325.087.795.059.342-.022.347-.02.786.077a1.4 1.4 0 0 0 .412.014c.207-.016.422-.04.637-.017.066.006.149.025.171.045.013.015-.048.05-.101.06-.386.082-.838.068-1.26.101a.9.9 0 0 1-.373-.063.9.9 0 0 0-.386-.052c-.29.017-.584.028-.87.054a1.5 1.5 0 0 1-.588-.063c-.057-.016-.123-.046-.18-.044-.65.031-1.304.063-1.95.107-.259.019-.408-.032-.584-.074-.061-.015-.122-.044-.18-.043-.219.006-.434.024-.654.036q-1.196.072-2.393.139c-.052.003-.118-.03-.18-.044q-.178-.042-.364-.082c-.22.013-.435.028-.654.038-.158.006-.299.028-.321.088-.013.04.132.076.286.072.149-.003.298-.022.421-.001.61.1.61.102.992.082.334-.02.299-.035.593.052.127.037.242.06.386.05q.542-.034 1.089-.063a.8.8 0 0 1 .189.025c.43.095.43.098.786.074.465-.028.483-.036.795.06.215.066.412.02.619.017.237.062.496.117.711.186.255.082.523.068.812.044.215-.017.426-.023.602.041.167.06.369.066.597.05.206-.013.417-.043.632-.009.057.01.145.033.141.048-.005.022-.062.053-.119.063-.404.064-.847.063-1.273.092-.057.005-.132-.012-.189-.025q-.183-.044-.36-.091c-.215.01-.435.013-.645.031a1 1 0 0 1-.404-.025c-.11-.034-.229-.077-.36-.088-.132-.011-.286.013-.431.022-.144.01-.311.005-.425.03-.115.025-.185.08-.26.124-.083.05-.197.065-.364.07a1 1 0 0 1-.391-.046 1 1 0 0 0-.18-.046c-.061-.01-.131-.028-.189-.025-.654.036-1.304.076-1.958.114-.325.018-.32.018-.996-.074-.062-.008-.137-.02-.198-.016-.364.019-.724.04-1.089.063-.369.022-.364.019-.992-.08-.114-.02-.281.006-.417.003-.286-.008-.426-.14-.76-.115-.285.022-.584.026-.869.055-.259.025-.408-.03-.584-.073-.062-.014-.127-.045-.18-.042-.654.034-1.304.074-2.173.079-.216 0-.119.033.021.044.202.017.268-.016.159-.08a.5.5 0 0 0-.286-.054c-.048.006-.11.036.106.09.228.06.215.092.254.111a.8.8 0 0 0 .373.059c.22-.011.435-.027.655-.037a.8.8 0 0 1 .193.02c.483.099.487.105 1.001.067a1.3 1.3 0 0 1 .408.019c.176.04.303.11.571.088.356-.03.72-.047 1.084-.064.057-.004.119.025.185.037.18.038.312.109.579.08a7 7 0 0 1 .65-.036.36.36 0 0 1 .171.045c.053.036-.013.078-.162.108-.061.013-.145.01-.215.014q-.435.029-.87.05c-.153.009-.298.032-.316.09-.013.04.145.075.295.071.219-.004.439-.017.649-.037.374-.035.698-.026 1.001.074.216.069.202.044.431.248.057.052.228.057.377.054q.541-.01.496.065c-.039.06-.166.078-.329.086-.29.013-.579.033-.869.05-.07.005-.15.015-.215.012-.066-.004-.128-.022-.185-.037-.123-.03-.228-.075-.36-.086s-.285.012-.43.022c-.145.008-.299.031-.43.02-.132-.01-.242-.058-.36-.086-.057-.015-.128-.037-.185-.035-.29.013-.579.033-.869.049-.356.02-.356.02-.786-.077a1.4 1.4 0 0 0-.413-.014c-.351.025-.355.02-.996-.071a1 1 0 0 0-.198-.016q-.98.055-1.954.113c-.557.033-.557.033-.865.19-.228.117-.233.117-.009.17.18.045.343.11.54.133.185.022.413-.049.615.024.101.036.233.075.36.082.202.008.417-.038.611.031.096.035.241.071.364.073.215.003.435-.022.65-.033.066-.004.14-.004.202.004.066.01.123.029.18.044.175.054.364.08.592.052.374-.044.707-.022.997.08a.6.6 0 0 0 .198.009c.158-.016.294-.018.412.012.049.013.119.035.11.049-.013.024-.066.055-.123.063-.413.053-.856.06-1.282.088-.057.003-.127-.017-.184-.031-.123-.029-.229-.076-.36-.087-.132-.011-.286.01-.431.017-.144.008-.298.032-.43.022a1.6 1.6 0 0 1-.36-.085.95.95 0 0 0-.404-.028c-.211.02-.43.024-.645.035q-.177-.047-.36-.092a.8.8 0 0 0-.189-.03q-.435.021-.869.05c-.29.017-.29.017-.782-.081a1 1 0 0 0-.193-.02c-.365.018-.725.042-1.089.06a.9.9 0 0 1-.382-.056.9.9 0 0 0-.378-.058c-.579.033-1.159.064-1.738.104-.233.016-.431.001-.589-.055-.184-.065-.39-.05-.605-.036-.488.031-.492.03-.804-.05-.061-.017-.123-.047-.18-.045-.505.024-1.014.046-1.515.083-.263.02-.404-.034-.579-.075-.062-.014-.128-.044-.18-.041-.365.017-.729.033-1.085.065-.355.031-.492-.115-.759-.114-.365.002-.725.038-1.085.06l-.869.052c-.29.017-.58.031-.87.052a1 1 0 0 1-.395-.043c-.162-.052-.355-.093-.531-.14-.268-.068-.268-.068-.593-.049l-.215.013c-.531.035-.531.031-1.207-.068a.4.4 0 0 0-.141.025c-.092.041-.175.086-.259.128-.118-.025-.263-.04-.342-.076-.224-.102-.575.038-.804-.063a1.2 1.2 0 0 0-.36-.08c-.136-.01-.29.013-.43.022-.364.024-.364.022-.676.162-.158.07-.387.057-.593.073-.215.017-.421.027-.601-.038a1.4 1.4 0 0 0-.593-.054c-.286.024-.58.038-.869.052a1 1 0 0 1-.198-.014c-.672-.093-.672-.094-.997-.074-.145.01-.294.013-.434.027a1.4 1.4 0 0 1-.589-.058c-.057-.016-.123-.046-.18-.044q-.434.013-.86.036c-.22.01-.439.017-.65.04-.351.036-.523-.067-.764-.114-.36.02-.725.035-1.085.063a1 1 0 0 1-.404-.03c-.162-.047-.311-.1-.575-.077-.351.031-.72.042-1.08.061-.241-.049-.417-.148-.764-.112-.21.022-.434.027-.65.04q-.434.024-.869.052c-.312.019-.307.014-.786-.079-.276-.055-.562.006-.843.016-.219.008-.329.08-.276.173s-.066.165-.268.178c-.505.03-1.015.061-1.519.088a1 1 0 0 1-.194-.019c-.54-.099-.54-.097-.781-.083-.36.023-.729.036-1.085.066a1.4 1.4 0 0 1-.584-.066 1 1 0 0 0-.395-.041c-1.738.105-3.477.203-5.211.312-.259.015-.409-.03-.584-.073-.062-.014-.119-.044-.18-.044-.145 0-.29.014-.435.024-.65.038-1.3.083-1.954.112-.276.012-.351.085-.47.144a.85.85 0 0 1-.36.071 1 1 0 0 1-.395-.042 1.4 1.4 0 0 0-.584-.065c-.285.025-.575.036-.869.054-.149.008-.264.036-.312.093-.009.01.084.033.136.047.176.047.343.102.54.135.202.033.422-.004.632-.014.075-.003.145-.012.216-.01.065 0 .145.009.193.023.228.07.47.12.786.077.272.02.413.151.759.117.211-.021.431-.03.65-.038.057-.002.119.027.18.04.176.04.316.103.58.076.281-.028.579-.033.865-.055a.9.9 0 0 1 .395.04c.158.051.338.09.584.066.211-.022.434-.027.65-.041.281-.018.281-.016.781.082a1 1 0 0 0 .193.02c.365-.019.725-.043 1.089-.061a.8.8 0 0 1 .373.058c.04.019.027.05.04.077-.725.043-1.449.079-2.169.13-.272.021-.395-.043-.575-.08-.062-.012-.128-.039-.185-.036q-.763.039-1.519.09a.9.9 0 0 1-.395-.041c-.303-.121-.672-.055-1.014-.038-.264.013-.347.062-.316.166.039.122.197.16.601.138q.218-.014.435-.025a1 1 0 0 1 .382.057c.11.042.241.064.377.058.29-.014.584-.028.865-.052.233-.019.426-.003.589.055.18.065.391.05.601.036.492-.031.496-.03.804.05.061.015.123.045.18.043.505-.023 1.014-.044 1.51-.082.259-.018.409.032.58.073.061.014.123.045.18.042.364-.017.729-.034 1.084-.064.167-.014.268-.005.404.033.325.093.334.09.795.06.14-.01.294-.027.426-.014.131.012.237.058.36.086.057.013.127.03.189.027.289-.013.579-.032.869-.049.272-.017.272-.016.781.082.207.04.422.006.628-.006.224-.014.426-.014.597.047.172.061.378.058.598.046.206-.013.417-.048.627-.005.483.098.483.1.782.08.435-.027.865-.052 1.304-.075.057-.004.132.015.189.028.123.028.228.075.36.086.131.013.285-.006.426-.015.452-.03.483-.041.786.063.254.085.57-.038.807.06.137.055.321.099.576.072.21-.022.43-.028.649-.04.347-.021.347-.02.786.075a.8.8 0 0 0 .189.025c.29-.013.584-.024.865-.052.329-.033.54.027.786.085.193.046.422.008.628-.008.224-.016.426-.01.593.05.175.063.382.056.601.043.206-.011.417-.047.628-.003.452.097.452.097.781.079q.435-.029.87-.05c.057-.002.127.018.184.032.123.029.229.076.36.087.132.01.286-.01.431-.017.144-.008.298-.032.43-.022.132.009.254.048.36.083a.9.9 0 0 0 .404.03c.211-.02.43-.025.645-.036.119.03.242.06.356.093.118.034.246.031.408.02.54-.038.545-.033.997.065.206.044.421.008.628-.003.219-.013.426-.02.597.044.167.06.373.067.593.048.14-.012.289-.02.434-.025a.8.8 0 0 1 .193.018c.233.066.461.126.782.083.281.013.421.142.76.117.285-.022.583-.027.864-.056.26-.025.444.02.576.074.237.098.57-.034.808.062.136.055.311.1.575.075.289-.025.382.008.465.108.048.056.04.102-.048.146-.088.046-.185.038-.325-.014-.162-.058-.356-.07-.588-.057-.229.013-.369-.07-.558-.1-.189-.034-.413.021-.61-.021-.466-.1-.466-.1-.782-.08-.215.012-.439.018-.65.04-.25.027-.412-.021-.584-.066-.061-.015-.123-.045-.175-.044-.505.024-1.015.046-1.515.085-.263.02-.404-.036-.58-.075-.061-.014-.127-.043-.18-.04q-.65.035-1.299.077c-.084.043-.176.084-.255.13-.083.047-.197.067-.364.066-.277 0-.549.066-.826-.018-.285-.085-.307-.08-.584-.06-.351.027-.724.021-1.053.083-.058.01-.119.04-.119.063-.004.014.088.034.145.047.193.038.417-.018.61.022.128.025.233.063.36.09.053.01.132.01.202.008.075-.002.145-.013.215-.011a1 1 0 0 1 .189.025c.242.06.496.115.711.185.211.07.409.023.619.02.843.11.844.111 1.41.077.14-.008.285-.018.43-.016.062 0 .119.028.18.044.176.047.343.09.589.065.21-.023.434-.027.649-.042.29-.017.29-.017.782.082.123.026.255.023.413.01a.8.8 0 0 1 .373.058c.039.019.026.05.039.077-.434.026-.873.043-1.295.08-.272.024-.395-.043-.575-.08-.062-.012-.127-.04-.184-.036q-.646.035-1.291.082c-.053.003-.119.04-.123.061-.009.041.101.08.259.08.21-.002.417-.03.606.035.158.057.355.082.588.057.14-.014.29-.014.43-.027.374-.037.712-.03.993.077.215.029.425.002.632-.012.154-.011.303-.022.413.008.232.063.461.126.781.083.347.044.61.137.9.213a.9.9 0 0 0 .4.033c.066-.01.145-.01.215-.014.145-.008.298-.032.43-.022s.242.056.36.085c.057.014.123.037.18.036.22-.008.435-.024.65-.036l.645-.033.545.123q.436-.027.865-.05c.32-.02.32-.018.781.08.207.043.426.015.624-.005.329-.033.549.026.781.09.049.012.136.02.193.014q.343-.034.593.053c.119.041.237.06.382.052q.757-.046 1.515-.088a.8.8 0 0 1 .189.024c.448.096.452.1.781.075.294-.022.567-.031.799.055a.5.5 0 0 0 .176.044c.36-.015.724-.033 1.08-.06.163-.012.277-.007.404.029.162.046.307.1.575.08.742-.058.747-.049 1.625.06.061.008.145-.005.215-.011a1 1 0 0 1 .391.042c.294.082.303.078.584.06.215-.014.439-.017.649-.04.325-.035.54.026.782.085.193.045.417.007.623-.007.224-.016.426-.01.593.049a.95.95 0 0 0 .382.055q.757-.044 1.515-.088a1 1 0 0 1 .193.02c.501.098.501.103.997.067.158-.011.289-.015.408.018.114.032.237.062.356.092.215-.011.434-.014.645-.033a1.1 1.1 0 0 1 .404.025c.167.042.307.116.571.08.136-.017.294-.012.43-.028a.85.85 0 0 1 .4.033c.158.049.32.1.575.074.281-.028.579-.033.865-.055a.9.9 0 0 1 .395.04c.158.053.338.086.584.065.5-.039.505-.031.992.068.123.025.255.022.413.01a.8.8 0 0 1 .373.058c.092.05.083.082.092.108M259.051 1.71c-.145.008-.29.017-.501-.12-.013-.024-.004-.052-.035-.072a.7.7 0 0 0-.312-.077c-.237-.007-.522.047-.518.088q.006.05.224.093c.061.01.11.03.167.042.167.036.298.107.54.071-.044-.098-.022-.049 0 0q-.034.092.202.12c.044.004.11.001.145-.008.136-.035.158-.082.057-.206-.018.02-.005.056.035.066a.6.6 0 0 0 .184-.01c.123-.03.185-.07.154-.102a.33.33 0 0 0-.154-.04c-.092 0-.175.035-.188.155m35.502 18.263c-.321.03-.689.02-1.01.08-.057.012-.114.04-.118.062-.005.014.083.035.136.046.118.025.25.017.404.01.232-.012.368.06.549.097a1 1 0 0 0 .193.016q.531-.03 1.062-.062c.062-.005.128-.015.18-.03.176-.045.158-.075-.013-.11-.189-.038-.338-.1-.531-.13-.277-.043-.558.014-.852.021m-24.934 1.15-.641.038c-.071.005-.145.006-.211.012a.56.56 0 0 0-.303.096.9.9 0 0 0 .36.06c.215-.01.426-.03.641-.034.233-.007.369.064.549.1.057.012.127.013.193.015.325.006.523-.076.461-.19-.044-.09-.211-.144-.413-.133-.21.01-.425.024-.636.036m26.436-3.477c.052-.027.109-.046.136-.07.079-.08.048-.14-.097-.203-.176-.077-.391-.025-.588-.017a.26.26 0 0 0-.128.055c-.017.014-.017.044.009.052.215.063.444.121.668.183m-38.089-4.652c-.211.012-.426.022-.637.039a.3.3 0 0 0-.131.055c-.057.038.004.09.184.095.206.006.422-.02.637-.033.272-.016.434-.074.333-.125-.096-.049-.228-.058-.386-.031M26.849 9.627c.14-.008.285-.014.425-.025a.56.56 0 0 0 .3-.098 1 1 0 0 0-.37-.058q-.322.014-.636.038c-.132.01-.26.044-.29.098-.03.04.263.064.57.045m212.549-.242c.057.014.114.042.171.042.141 0 .286-.01.418-.025a.24.24 0 0 0 .127-.057c.017-.014.013-.04-.013-.052-.128-.075-.637-.049-.72.038-.009.016.013.036.017.054M225.546.76c.013.025.017.05.035.075.035.048.132.082.272.106q.167-.06.163-.13a.2.2 0 0 0-.036-.076c-.035-.048-.131-.082-.272-.106q-.164.057-.162.13m80.655 20.635a2 2 0 0 1-.123.06c.119.046.229.06.312.035.053-.016.084-.04.123-.06a.5.5 0 0 0-.312-.035m-2.731.214c.057.015.11.033.172.043a.33.33 0 0 0 .263-.068c-.057-.014-.11-.033-.171-.042a.33.33 0 0 0-.264.067m1.73-.288q-.048.057.193.096c.04-.02.093-.04.119-.061.044-.037-.031-.07-.189-.095q-.065.03-.123.06m-9.268-1.698c-.031.038.03.07.193.096.039-.02.092-.039.118-.061.044-.036-.03-.07-.188-.095a2 2 0 0 0-.123.06M283.304 8.481q-.058.03-.123.06c.119.045.229.06.312.034.053-.016.083-.04.123-.06a.5.5 0 0 0-.312-.034m-12.096-5.912a.36.36 0 0 0 .268-.07c-.057-.014-.11-.033-.171-.042a.33.33 0 0 0-.264.068zm-6.423-.37q-.059.03-.123.06c.118.045.228.06.311.034.053-.016.084-.04.123-.06a.5.5 0 0 0-.311-.034m-43.56-1.44q-.058.03-.123.06c.119.046.229.06.312.035.053-.016.084-.04.123-.06a.52.52 0 0 0-.312-.035M4.333 13.572q-.087-.02-.166-.044c-.128.043-.167.082-.097.112.044.019.11.03.167.044q.196-.063.096-.112"/><path fill="#ffe492" d="M29.798 8.011c-.505.03-1.005.068-1.51.087-.268.01-.365.077-.474.14-.088.05-.19.066-.352.076q-2.054.117-4.1.239c-.172-.02-.255-.054-.216-.093a.2.2 0 0 1 .128-.06c.935-.058 1.866-.118 2.805-.164.268-.012.343-.082.479-.138.044-.02.079-.047.136-.058.057-.013.14-.012.215-.015q2.266-.134 4.531-.267c.172.02.255.053.215.093a.2.2 0 0 1-.127.06q-.869.049-1.73.1M306.259 16.398c-.229.018-.518.045-.755-.046a.9.9 0 0 0-.387-.049q-.323.023-.654.038a.8.8 0 0 1-.189-.03c-.123-.028-.228-.076-.36-.088-.132-.013-.29.022-.426.014-.18-.011-.254-.054-.206-.093a.26.26 0 0 1 .136-.058c.812-.058.817-.058 1.045-.002.176.044.338.093.588.066.211-.022.435-.026.65-.04.299-.02.299-.018.782.081.123.026.254.024.412.01a.9.9 0 0 1 .378.056.56.56 0 0 1-.307.098c-.22.016-.435.027-.707.043M298.176 15.912c.553-.033 1.111-.061 1.664-.099.228-.016.408.002.566.055.171.059.365.054.575.043a.7.7 0 0 1 .347.063c.035.017.027.049.04.074q-.725.044-1.458.083a.7.7 0 0 1-.18-.025c-.118-.027-.219-.074-.347-.083-.272-.022-.544.02-.821.028a.8.8 0 0 1-.347-.063c-.035-.02-.026-.05-.039-.076M98.25 2.372l1.725-.103c.171.022.25.054.215.093a.2.2 0 0 1-.128.06q-1.726.105-3.446.206c-.171-.022-.25-.053-.215-.093a.2.2 0 0 1 .127-.06q.857-.053 1.721-.103M9.62 11.123c-.258.004-.53.062-.82.018-.057-.008-.136-.033-.132-.048.009-.023.062-.053.119-.063.25-.039.562-.044.69-.154.06-.057.175-.075.328-.086a1.2 1.2 0 0 1 .404.025c.167.042.308.12.571.08.013.025.044.053.03.077s-.07.046-.122.063a1 1 0 0 1-.176.035c-.29.019-.58.034-.891.053M237.967 10.807c.215-.013.439-.019.65-.04a1 1 0 0 1 .404.03c.224.067.237.06.786.07a.4.4 0 0 1 .171.046c.022.01-.009.04-.035.056a.4.4 0 0 1-.15.048c-.346.004-.698.097-1.036-.01a1.4 1.4 0 0 0-.592-.055c-.141.014-.29.02-.435.027a.8.8 0 0 1-.373-.059c-.128-.069-.053-.096.175-.09.145.002.29-.015.435-.023M317.542 21.662c.277-.015.554-.034.835-.047.057-.003.127.014.18.025.21.047.18.128.188.199.005.074-.483.134-.689.083-.228-.057-.435-.121-.751-.087a.65.65 0 0 1-.347-.06c-.118-.067-.052-.094.172-.09.131.004.272-.013.412-.023M178.149.227c.286-.017.571-.044.857-.046.166-.001.25.05.21.088a.2.2 0 0 1-.127.06q-.857.055-1.712.104c-.167-.022-.251-.055-.211-.093a.22.22 0 0 1 .127-.06c.286-.022.571-.036.856-.053M312.067 16.536c.276-.016.557-.04.834-.047.145-.003.259.033.277.074.008.019-.062.052-.119.06-.395.053-.821.06-1.234.086a.7.7 0 0 1-.351-.061c-.118-.068-.053-.093.171-.088.141.001.281-.016.422-.024M245.22 11.02c.14-.008.285-.029.421-.022.145.007.237.053.281.099.048.052.044.1 0 .145-.07.075-.14.072-.303.022-.25-.08-.268-.07-.764-.066a.5.5 0 0 1-.171-.045c-.066-.031-.031-.08.123-.108.114-.02.272-.018.413-.025"/><path fill="#ffe492" d="M301.78 16.02c.206-.013.413-.034.619-.034.145-.001.259.035.272.075.005.018-.061.05-.114.06-.25.042-.531.045-.803.06a.7.7 0 0 1-.347-.064c-.119-.066-.048-.096.167-.087.066.004.136-.006.206-.01M269.303 14.087c-.307.02-.597-.004-.575-.045.03-.054.158-.088.289-.098q.315-.023.637-.038a.9.9 0 0 1 .369.058.57.57 0 0 1-.299.098c-.136.011-.281.017-.421.025M267.286 13.886c.206-.013.413-.033.619-.033.145-.002.259.034.272.074.005.019-.061.05-.114.06-.25.042-.531.045-.803.06a.7.7 0 0 1-.347-.064c-.119-.066-.049-.096.167-.086.065.003.136-.007.206-.011M242.731 11.007c.207-.013.413-.033.619-.035.145-.001.259.035.273.074.004.02-.062.05-.115.06-.25.043-.531.046-.803.06a.7.7 0 0 1-.347-.063c-.118-.066-.048-.096.167-.087.066.004.136-.006.206-.01"/><path fill="#ffe492" d="M241.575 10.914c.219-.013.29-.02.36-.02.132 0 .268.018.347.064.118.066.048.085-.167.088-.277.003-.549.036-.825.043-.145.003-.26-.035-.268-.074-.005-.02.061-.052.114-.059.184-.023.386-.037.439-.042M265.499 1.649c-.14.008-.289.03-.421.022-.176-.011-.246-.054-.202-.093a.25.25 0 0 1 .127-.058c.281-.022.567-.036.848-.052.167.023.241.057.197.096a.26.26 0 0 1-.127.058c-.136.016-.281.02-.422.027M95.1 2.558q.207-.002.365.058a.6.6 0 0 1-.294.097c-.066.007-.14.011-.211.013a1 1 0 0 1-.364-.058.6.6 0 0 1 .294-.098c.066-.006.14-.008.21-.012M310.566 16.53c-.004-.046.264-.098.505-.096a.8.8 0 0 1 .334.066c.114.065.048.09-.167.085-.132-.003-.272.024-.404.019-.149-.002-.237-.036-.268-.074M246.492 11.21c-.004-.017-.026-.038-.013-.054.083-.086.588-.113.72-.037.022.014.031.037.013.052a.26.26 0 0 1-.127.056 4 4 0 0 1-.417.025c-.062 0-.119-.026-.176-.042M11.183 10.871c-.518.033-.527.03-.435-.049.083-.07.237-.113.46-.113.067 0 .137-.003.194.003.062.008.15.024.163.043.026.036-.049.075-.18.102-.058.013-.132.01-.202.014M101.587 2.336c-.154.027-.286.017-.382-.033s.057-.11.325-.125c.07-.003.145-.015.21-.01a.5.5 0 0 1 .172.043c.07.032.026.074-.114.11-.057.015-.141.012-.211.015M309.652 16.411a2 2 0 0 1 .123-.06c.162.027.232.059.188.095-.026.022-.079.041-.118.061q-.245-.04-.193-.096M18.137 28.8c0-.02.061-.05.11-.056a.5.5 0 0 1 .285.055c.11.064.044.097-.158.08-.14-.013-.237-.045-.237-.08M248.282 9.744q.087.02.166.044a.33.33 0 0 1-.263.068c-.062-.01-.114-.029-.171-.043a.35.35 0 0 1 .268-.07M246.761 9.673a.53.53 0 0 1 .316.034c-.039.02-.074.045-.123.06a.5.5 0 0 1-.311-.034 2 2 0 0 1 .118-.06M245.596 9.742q.086.02.167.044a.33.33 0 0 1-.264.068c-.061-.01-.114-.029-.171-.043a.35.35 0 0 1 .268-.07M244.742 9.659c.066.031.031.069-.096.111-.057-.014-.123-.025-.167-.044-.07-.03-.035-.069.096-.112q.08.023.167.045"/></svg>