<svg xmlns="http://www.w3.org/2000/svg" width="483" height="30" fill="none" viewBox="0 0 483 30"><path fill="#ffe492" d="M453.683 15.244c-.661.026-1.329.044-1.977.082-.42.024-.601-.044-.882-.079-.094-.012-.195-.036-.281-.033q-.982.04-1.963.083c-.2.06-.326.14-.633.17-.3.029-.654.03-.988.044l-1.322.051c-.221.008-.401.038-.473.093-.014.01.133.032.214.046.268.045.529.097.823.132.281.033.628-.023.929.02.676.096.683.094 1.197.075q.66-.029 1.322-.05c.087-.003.187.02.281.031.281.034.462.11.876.08.314-.023.661-.028.988-.041.275.044.529.094.824.129.274.033.354.06.208.104-.133.042-.32.059-.567.063-.221.001-.441.016-.661.024l-.327.013c-.421.017-.421.017-1.191-.08-.301-.038-.641.017-.928-.02-.194-.024-.362-.06-.549-.086a2 2 0 0 0-.308-.009c-.334.011-.668.02-.988.04-.227.014-.36.058-.333.1.007.017.168.042.261.043.214.003.441-.02.648-.009.201.01.408.041.556.075.301.07.641.006.928.024.301.02.549.08.837.117.074.01.214-.006.327-.011q.491-.017.982-.033c.274.044.569.084.817.134.448.091.93.126 1.51.08.327-.025.648-.016.909.043.268.061.576.055.916.042.314-.013.634-.048.956-.005.695.094.702.099 1.523.06.248-.01.434-.014.622.02.174.033.361.06.542.09.327-.01.661-.022.989-.035.42-.018.654.003.755.09.061.051.089.099.236.134.174.043.361.04.615.028.24-.011.414-.028.513-.084a1 1 0 0 1 .193-.063 1 1 0 0 1 .207-.033c.1.006.234.023.268.043.329.185.329.187.664.24.368.06.75.112 1.085.18.301.059.601.032.929.032.247 0 .408.039.388.079-.013.023-.106.057-.186.06a137 137 0 0 1-1.977.082c-.08.003-.18-.024-.274-.038-.187-.027-.355-.07-.556-.079-.2-.009-.434.015-.654.023s-.454.028-.655.016c-.2-.012-.361-.056-.548-.085-.087-.014-.208-.033-.281-.029a4.2 4.2 0 0 1-1.197-.079 1.6 1.6 0 0 0-.294-.02c-.775.028-1.543.06-2.317.09-.314.013-.569-.04-.637-.13-.034-.051-.101-.102-.102-.152-.001-.093-.369-.143-.636-.131-.441.016-.888.029-1.322.053q-.533.028-.896-.054c-.281-.063-.602-.05-.922-.032-.241.012-.307.063-.292.19.015.104-.099.136-.533.154q-.822.035-1.656.063c-.087.003-.187-.023-.274-.037-.187-.027-.355-.072-.556-.08-.2-.01-.434.013-.654.022s-.454.03-.654.02c-.201-.01-.369-.056-.549-.085-.087-.014-.194-.034-.281-.03q-.662.021-1.322.05c-.495.019-.495.019-1.197-.075-.321-.043-.642-.008-.955.005-.334.012-.648.019-.91-.042a2.2 2.2 0 0 0-.575-.056c-.554.02-1.101.044-1.656.063a1.6 1.6 0 0 1-.294-.018 4.5 4.5 0 0 0-1.197-.08c-.427.028-.888.03-1.315.057-.234.014-.34.063-.293.102.027.02.168.042.261.042.214.001.448-.022.648-.013.414.017.623.146 1.164.11.32-.022.654-.03.988-.037.087-.002.181.027.275.042.267.041.502.095.889.067.32-.023.661-.03.988-.042.521-.021.521-.02 1.197.073.321.044.641.008.955-.003.234-.008.454-.024.641-.003.288.032.496.105.85.1.334-.005.661-.027.995-.035.207-.005.401.019.569.06.174.041.361.06.588.05.327-.013.661-.03.995-.037.094-.002.201.012.288.024q.279.043.549.088c.327-.01.661-.013.981-.032.247-.015.421-.009.622.021.254.041.462.115.876.079.207-.017.448-.013.654-.029.254-.02.428-.013.609.033.342.087.769.087 1.21.053.48-.038.842.005 1.203.072.382.07.382.068.678.238.087.05.335.072.542.062.347-.016.647-.009.902.05.268.062.589.054.916.036.434-.024.868-.044 1.223.044.174.043.361.053.595.042.661-.029 1.329-.047 1.976-.082.394-.022.622.027.89.068.361.056.756.106.758.227 0 .02.094.043.174.058.174.032.361.06.542.09.268.046.529.084.896.059.32-.02.661-.028.988-.042s.628-.023.923.035c.341.066.703.128 1.091.177.274.034.634-.026.929.021.18.029.354.062.548.087.081.01.208.002.315-.001.22-.007.447-.012.661-.027.247-.018.434-.015.621.02.174.032.349.076.549.085.301.014.634-.049.936.022.154.035.348.068.548.079s.434-.013.648-.012c.094 0 .208.024.261.044.034.01-.013.04-.059.055a1 1 0 0 1-.233.047q-.992.041-1.984.08c-.394.016-.394.016-1.19-.08a4 4 0 0 0-.628-.006c-.314.014-.634.041-.962.014-.428-.104-.956-.112-1.517-.071a2.7 2.7 0 0 1-.622-.011c-.368-.058-.756-.111-1.084-.18-.254-.053-.375-.057-.481.017-.033.023-.066.047-.059.069.041.076.115.152.156.228.014.022-.039.047-.072.07-.106.064-.247.06-.481.007a3 3 0 0 0-.889-.063c-.321.022-.668.02-.989.043a4.4 4.4 0 0 1-1.196-.08 1.6 1.6 0 0 0-.295-.017c-.995.037-1.983.078-2.978.115a2 2 0 0 1-.575-.055 2.2 2.2 0 0 0-.582-.055c-.881.034-1.763.065-2.644.106a3.5 3.5 0 0 1-.896-.055 2.5 2.5 0 0 0-.595-.047c-.254.005-.434.021-.561.066-.119.043-.032.069.235.102.288.037.556.084.83.126.221-.006.441-.019.655-.018.093 0 .181.028.274.043.268.044.516.088.896.063.321-.022.661-.027.988-.042.454-.018.455-.018 1.191.078.187.024.387.022.628.008.207-.01.421.01.568.056.061.018.041.05-.085.15.001.076.141.042.187-.007.073-.071-.068-.094-.335-.055-.186.028-.279.068-.232.1.027.017.154.038.38-.037.587-.093 1.034-.105 1.462-.13.253-.015.414-.009.615.03.241.048.482.098.876.073.427-.028.881-.032 1.315-.056.401-.022.609.045.863.085.308.047.648-.008.929.02.294.027.502.094.843.106.494-.043.809.034 1.183.084.295.037.642.003.956-.014.353-.02.648-.003.895.052.282.062.596.048.916.034.748-.032.775-.037 1.21.047.315.06.615.032.929.024.274.041.542.085.83.122.073.009.213-.007.327-.012l.988-.038c.221-.008.454-.032.655-.023.2.01.368.055.548.084s.369.057.543.088c.268.045.522.083.896.06.32-.02.654-.028.988-.042.421-.018.407-.013 1.19.078.421.05.855-.012 1.282-.02a2 2 0 0 1 .569.058c.06.018.041.05.061.075-1.102.044-2.21.08-3.299.134-.42.02-.641-.035-.869-.08-.375-.073-.868.035-1.223-.06a2.8 2.8 0 0 0-.89-.06c-.213.016-.44.015-.661.03-.56.034-1.075.036-1.524-.069-.154-.037-.374-.056-.535-.091a2.4 2.4 0 0 0-.589-.051q-1.49.056-2.971.119c-.087.003-.174.026-.247.043-.187.043-.126.077.175.104.1.01.181.029.275.044.18.029.348.075.548.085s.435-.011.655-.02c.22-.007.454-.03.654-.022.201.01.368.055.556.082.087.014.194.037.281.035.441-.01.875-.028 1.315-.042.275.04.509.1.837.113.207.01.427-.008.641-.005a.9.9 0 0 1 .261.044c.027.012-.059.043-.126.058-.253.06-.601.05-.914.068-.341.02-.648.015-.91-.044a2.2 2.2 0 0 0-.582-.053c-.554.02-1.101.045-1.656.063a2 2 0 0 1-.294-.021c-.702-.093-.702-.096-1.197-.075-.727.03-.727.03-1.216-.05-.094-.015-.194-.044-.274-.043a161 161 0 0 0-2.311.089c-.254.01-.427.011-.615-.028a3.4 3.4 0 0 0-.549-.08c-.207-.01-.434.014-.654.022s-.454.028-.648.016c-.2-.012-.375-.054-.549-.085a2.8 2.8 0 0 0-.621-.017c-.761.036-.768.032-1.524-.062a2 2 0 0 0-.294-.02c-.555.02-1.102.044-1.656.063a1.9 1.9 0 0 1-.569-.056c-.06-.018-.041-.049-.081-.109-.047-.013.006.011.02.034.1-.003.221 0 .294-.013.187-.03.28-.068.232-.1a.7.7 0 0 0-.234-.038c-.147 0-.273.034-.312.117-.421.052-.868.063-1.302.089a2.2 2.2 0 0 1-.615-.031 3 3 0 0 0-.883-.071c-.427.028-.881.034-1.322.056-.507.025-.73-.113-1.157-.109-.441.004-.881.031-1.322.05-.387.016-.388.016-1.19-.082-.295-.036-.641.018-.929-.02-.194-.024-.362-.06-.549-.087-.08-.01-.207-.01-.307-.007-.555.02-1.116.033-1.65.068a5.4 5.4 0 0 1-1.504-.091c-.548.017-1.102.027-1.643.058-.394.022-.621-.029-.889-.07-.094-.013-.174-.036-.275-.042-.1-.006-.22.006-.327.011-.441.018-.895.026-1.322.055-.527.036-.729-.09-1.137-.104-.273.076-.419.179-.96.187-.441.007-.881.033-1.322.05l-.661.026c-.354.014-.52.075-.445.167q.058.075.108.152c.068.09-.098.167-.378.178-.775.031-1.543.063-2.318.09a2.1 2.1 0 0 1-.575-.058 2.2 2.2 0 0 0-.582-.052c-.774.03-1.542.063-2.317.09-.087.004-.2-.012-.287-.024-.188-.027-.368-.059-.549-.088-.441.015-.875.025-1.309.044-.701.029-.701.03-1.217-.053-.093-.015-.187-.044-.274-.043-.334.007-.661.023-.995.037-.981.042-.982.042-1.269-.004-.261-.042-.496-.094-.89-.069-.427.029-.881.039-1.322.055-.327.011-.654.024-.982.028-.086.001-.18-.028-.274-.043a3.4 3.4 0 0 0-.896-.058c-.214.015-.441.019-.661.027-.574.022-.574.022-1.517-.068a2 2 0 0 0-.301-.015c-.775.03-1.543.061-2.317.089a3 3 0 0 1-.301-.014c-1.057-.087-1.057-.087-2.178-.042-.428.016-.441.022-.89-.058a2.5 2.5 0 0 0-.601-.04c-.882.038-1.77.064-2.645.108-.394.02-.621-.026-.889-.067-.094-.014-.194-.045-.274-.043-.882.03-1.763.068-2.645.098-.08.004-.181-.027-.274-.04-.181-.028-.355-.07-.556-.078-.207-.009-.434.015-.661.023-.554.02-.554.02-1.197-.07-.087-.013-.2-.03-.287-.026-.882.032-1.77.06-2.644.106a4.8 4.8 0 0 1-1.197-.083 1.6 1.6 0 0 0-.294-.016c-.995.037-1.984.079-2.979.116a2.2 2.2 0 0 1-.575-.058c-.268-.062-.582-.054-.916-.04-.767.034-.774.033-1.229-.04-.094-.015-.174-.035-.275-.043-.093-.007-.213-.003-.314 0l-1.322.052c-.441.018-.888.028-1.322.055-.534.033-.789-.066-1.164-.112-.547.021-1.108.034-1.649.067-.414.026-.608-.042-.883-.076-.093-.012-.194-.038-.281-.035q-1.494.053-2.978.117c-.24.01-.401-.002-.602-.039-.448-.082-.468-.079-1.216-.047-.327.015-.641.027-.923-.035-.248-.056-.548-.07-.902-.05-.434.023-.882.036-1.322.052-.441.018-.882.042-1.322.05-.354.008-.569-.063-.85-.1a2 2 0 0 0-.307-.009c-.441.015-.895.027-1.323.053-.52.034-.809-.05-1.177-.099a2 2 0 0 0-.314 0l-2.317.092-.83-.121-1.322.05c-.334.013-.674.018-.988.041-.407.032-.609-.04-.883-.075-.094-.012-.194-.038-.281-.035q-.833.026-1.656.065c-.521.027-.729-.111-1.157-.109-.441.002-.895.023-1.322.052a4.5 4.5 0 0 1-1.197-.081 1.6 1.6 0 0 0-.294-.018c-.554.02-1.102.043-1.656.063a3 3 0 0 1-.301-.014c-1.057-.089-1.057-.09-1.517-.07-.327.012-.661.028-.995.036a2 2 0 0 1-.295-.022c-.696-.093-.696-.095-1.196-.075l-1.323.053c-.274-.041-.555-.08-.829-.122-.548.021-1.109.038-1.65.066a2.4 2.4 0 0 1-.615-.03c-.241-.045-.482-.099-.882-.072-.428.029-.882.033-1.316.056-.521.029-.736-.11-1.157-.108-.441.002-.895.023-1.322.051a4.5 4.5 0 0 1-1.197-.08 1.6 1.6 0 0 0-.294-.019c-1.215.047-2.424.094-3.639.143-.748.031-.748.032-2.172-.05a3 3 0 0 0-.308-.008c-.44.014-.895.026-1.322.053-.52.033-.809-.05-1.177-.1-.08-.01-.207-.004-.314 0-.334.01-.661.025-.995.038l-1.322.053-.83-.12c-.547.021-1.108.033-1.649.066-.414.025-.608-.039-.883-.075-.093-.012-.194-.038-.281-.037q-1.494.052-2.978.118c-.407.019-.595-.05-.869-.085-.094-.01-.201-.03-.288-.027q-.991.035-1.983.077c-.374.016-.374.016-1.19-.078a2 2 0 0 0-.294-.018c-2.097.08-4.187.166-6.284.246a2 2 0 0 1-.575-.056 2.2 2.2 0 0 0-.582-.054c-.882.034-1.77.065-2.644.106a3.4 3.4 0 0 1-.896-.055 2.3 2.3 0 0 0-.596-.045q-.66.028-1.322.053l-1.322.053c-.44.018-.888.027-1.322.054-.534.034-.796-.061-1.164-.108q-.993.035-1.976.074-1.322.052-2.645.103c-.08.003-.18-.024-.274-.038-.274-.038-.475-.091-.883-.074-1.976.085-3.966.158-5.949.24-.414.019-.595-.047-.876-.082-.094-.01-.201-.032-.288-.029q-1.653.061-3.305.129c-.448.018-.448.018-1.197-.076a2 2 0 0 0-.295-.021c-1.435.054-2.864.112-4.3.168a2.2 2.2 0 0 1-.582-.054 2.1 2.1 0 0 0-.575-.056c-1.322.052-2.651.102-3.966.158a3.6 3.6 0 0 1-.903-.053 2.2 2.2 0 0 0-.588-.046c-1.983.079-3.967.154-5.95.238a3.5 3.5 0 0 1-.889-.063 2.5 2.5 0 0 0-.602-.04c-.254.007-.407.024-.547.07-.18.061-.292.137-.72.142-.441.005-.888.024-1.322.051-.414.027-.608-.042-.869-.083a3 3 0 0 0-.622-.018 1.6 1.6 0 0 0-.5.088c-.292.105-.319.105-.681.04a2.6 2.6 0 0 0-.582-.056q-1.322.048-2.644.104c-.508.021-.514.024-.896-.052a2.3 2.3 0 0 0-.588-.047c-2.424.097-4.848.19-7.272.291a4 4 0 0 1-.896-.061c-.087-.016-.174-.037-.274-.043s-.214 0-.321.004c-1.763.069-3.533.135-5.289.212-.4.017-.615-.031-.889-.071-.094-.014-.174-.035-.274-.041-.101-.004-.221.006-.328.011-1.763.07-3.532.136-5.288.212-.421.018-.602-.046-.876-.08-.094-.012-.194-.035-.281-.031-.555.018-1.102.042-1.656.062q-1.984.078-3.967.158c-.507.02-.729-.116-1.157-.109-.554.009-1.102.04-1.656.063q-.661.026-1.322.053c-.434.018-.434.018-1.517-.07-.094-.007-.208-.018-.301-.014-1.543.06-3.092.119-4.628.183-.354.014-.648.007-.902-.05a2.2 2.2 0 0 0-.589-.049c-2.317.092-4.627.183-6.944.273a2 2 0 0 1-.288-.024c-.187-.027-.368-.06-.549-.088-.133.036-.306.068-.393.108-.119.054-.279.07-.533.08a2.4 2.4 0 0 1-.615-.033 3.4 3.4 0 0 0-.883-.07c-2.424.1-4.848.192-7.272.291-.4.016-.588-.05-.869-.086-.094-.01-.201-.027-.288-.024-.995.037-1.983.077-2.978.116-2.758.11-5.515.214-8.267.33-.5.02-.842-.018-1.196-.083a1.6 1.6 0 0 0-.295-.018q-5.79.227-11.572.456a2.2 2.2 0 0 1-.575-.056 2.2 2.2 0 0 0-.582-.052q-2.644.103-5.288.209c-.441.017-.448.019-.903-.054-.094-.015-.194-.044-.268-.041-.153.008-.3.046-.406.099-.106.055-.273.071-.52.082a2.5 2.5 0 0 1-.615-.03c-.248-.045-.475-.09-.876-.073-5.068.205-10.137.403-15.205.607-.407.016-.595-.048-.876-.083-.094-.01-.187-.026-.288-.029-.106-.003-.22.007-.327.012l-24.8.98c-.494.02-.487.02-1.027.161-.066.017-.153.04-.246.044q-3.799.153-7.606.302-1.653.066-3.305.13c-.394.015-.394.015-1.334.182-.08.014-.174.033-.267.036q-6.61.263-13.228.522c-.348.013-.628.041-.787.115-.113.053-.26.084-.48.093q-4.626.185-9.262.365c-.367.015-.587.058-.767.123-.06.021-.113.046-.2.062-.08.014-.2.018-.3.023-2.644.105-5.288.212-7.94.312-.393.015-.553.072-.746.132-.066.02-.113.048-.2.062-.086.012-.213.012-.32.016q-3.306.13-6.61.262c-.428-.007-.52.082-.727.136-.074.019-.127.043-.213.056-.094.012-.214.01-.328.014-1.762.07-3.525.143-5.295.208-.407.014-.486.093-.706.147-.073.017-.146.043-.233.048q-1.653.07-3.306.131c-.367.015-.367.013-1.013.166-.073.018-.16.036-.254.04q-2.475.101-4.96.198c-.215.009-.361.046-.467.098s-.26.087-.474.095q-1.983.081-3.966.156c-.367.012-.607.051-.767.12-.12.053-.266.08-.5.09-1.322.05-2.644.107-3.973.152-.387.013-.587.066-.747.13-.126.053-.273.071-.52.081-2.424.093-4.854.187-7.271.29-.408.017-.616-.037-.883-.074-.382-.053-.736-.111-.738-.231 0-.019-.114-.04-.194-.055-.596-.114-.596-.114-.691-.237-.055-.075-.116-.152-.163-.229-.089-.125-.303-.157-.917-.133q-.33.014-.661.026c-.328.01-.575-.04-.637-.132-.034-.05-.074-.1-.108-.151.334-.013.327-.015.912-.202.247-.079.247-.079-.229-.156-.18-.029-.354-.06-.548-.088-.088-.012-.201-.02-.295-.017-.554.02-1.101.042-1.649.065-.881.035-.882.035-1.779-.12-.073-.012-.187-.035-.174-.047.073-.057.253-.082.48-.089.334-.01.661-.026.988-.038l.661-.026c.207-.059.42-.116.613-.176.306-.093.306-.096-.116-.16-.267-.043-.555-.08-.83-.12l-.988.039c-.414.014-.581-.015-.69-.114-.094-.088.019-.163.34-.182.326-.02.634-.032.8-.11.16-.076.44-.106.787-.113q.33-.01.66-.025c.288-.013.44-.092.38-.18-.035-.056-.102-.104-.363-.115-1.156-.052-1.17-.05-1.745-.154-.054-.01-.094-.037-.074-.05a.4.4 0 0 1 .186-.062 166 166 0 0 1 2.304-.092c.253-.008.44-.02.526-.076.12-.079.065-.15-.17-.204a1.3 1.3 0 0 0-.274-.037c-.881.03-1.756.066-2.637.096a.8.8 0 0 1-.261-.043c-.067-.037.032-.086.266-.103.307-.024.62-.026.827-.103.286-.11.639-.21.958-.315.053-.019.14-.054.12-.057-.168-.034-.362-.06-.536-.092-.294-.053-.295-.128-.23-.2.053-.059.253-.082.5-.083.107 0 .241 0 .328-.014.226-.034.3-.077.185-.11a1 1 0 0 0-.267-.04c-1.43.053-2.865.104-4.287.17-.421.019-.615-.04-.87-.08a2.2 2.2 0 0 0-.615-.02c-.227.021-.447.01-.588-.041-.114-.041.086-.077.627-.118.1-.008.213-.012.287-.028.772-.167.772-.169 1.306-.191.521-.021.521-.023.794-.112.127-.042.266-.084.386-.127.047-.017.127-.048.1-.057-.148-.047-.349-.058-.582-.046-.52.026-1.136.006-1.408.152-.106.056-.273.072-.513.081-2.418.093-4.835.193-7.259.283-.394.015-.573.072-.726.135-.133.053-.28.068-.534.078s-.454.015-.602-.036c-.087-.03-.014-.074.186-.117.287-.062.232-.139.138-.21-.068-.048-.275-.082-.496-.078-.327.006-.64.024-.915-.037-.16-.035-.362-.06-.543-.09-.348-.062-.696-.126-1.183-.084-.334-.015-.569-.07-.836-.112-.449-.07-.49-.08-.17-.156.36-.085.078-.196.278-.279.212-.09.506-.168.765-.252l.193-.063c-.154-.03-.295-.069-.475-.09-.234-.027-.355-.06-.343-.156-.047-.014-.027.022.027.03.06.01.207.002.28-.009.187-.03.28-.068.233-.1a.7.7 0 0 0-.234-.038c-.147 0-.274.034-.313.117-.747.064-1.522.096-2.296.122-.08.004-.181-.027-.275-.042-.308-.052-.308-.05-1.21-.064a.9.9 0 0 1-.267-.044c-.195-.094-.19-.197-.285-.296q.258-.097.526-.192c.359-.128.825-.24 1.104-.381-.06-.075-.142-.15.151-.212.834-.079.828-.079 1.054-.153.645-.21 1.284-.421 1.956-.628.18-.055.18-.084-.141-.106a4 4 0 0 0-.314-.004c-.334.011-.668.04-.995.034-.328-.004-.57-.072-.837-.113q-.412-.064-.823-.13c-.314.005-.627.049-.942-.02-.241-.053-.543-.091-.817-.135.206-.117.592-.207.892-.31.272-.095.279-.093 1.013-.167.347-.034.465-.208.17-.258-.354-.061-.73-.117-1.09-.175-.315.005-.635.047-.936-.021a3.1 3.1 0 0 0-.89-.066c-.654.034-1.322.052-1.983.081-.227.01-.474.004-.575-.048-.067-.037.126-.088.346-.099.334-.016.635-.035.8-.112.16-.077.454-.1.8-.112a1 1 0 0 0 .248-.04c.24-.09.505-.167 1.02-.165.213-.03.326-.07.259-.106a.8.8 0 0 0-.261-.043c-.554.017-1.109.033-1.65.061-.253.013-.447.017-.608-.03-.114-.03-.054-.071.16-.116.186-.039.239-.084.225-.136-.035-.121-.236-.156-.877-.147-.461.007-.575-.013-.676-.117-.027-.025-.095-.059-.048-.076.286-.105.471-.234 1.012-.284.214-.019.44-.02.574-.06s.253-.086.392-.125c.174-.046.293-.09.213-.118-.135-.052-.348-.056-.595-.038-.214.016-.441.018-.661.028-.394.017-.715-.022-.763-.09-.13-.178-.265-.354-.38-.532-.014-.022.019-.05.072-.068.186-.065.386-.127.579-.19.226-.073.587-.06.894-.074.434-.02.434-.019 1.014-.167.226-.06.62-.037.854-.09.073-.016.186-.044.166-.06-.027-.02-.16-.035-.261-.044a2 2 0 0 0-.307-.008c-1.216.046-2.424.096-3.64.141-.207.008-.434-.025-.508-.073-.074-.044-.055-.098-.069-.149.193-.063.413-.122.579-.19.126-.052.273-.075.527-.079.334-.005.66-.024 1.035-.038.692-.226 1.37-.462 2.116-.688.3-.091.225-.183.284-.28.059-.09.507-.076.807-.103.24-.022.32-.071.226-.105a1 1 0 0 0-.268-.042c-.22 0-.44.014-.661.022-.22.008-.474.004-.655.03-.173.026-.286.078-.399.123-.126.05-.293.066-.547.07-.327.004-.654.018-.981.03-.362-.06-.737-.118-1.085-.18-.067-.012-.08-.048-.074-.07.012-.06-.088-.097-.31-.126-.187-.024-.34-.06-.515-.09.133-.041.28-.082.386-.127.233-.094.526-.162 1.034-.16.2-.06.359-.134.619-.176.247-.04.668 0 .854-.092.093-.045.233-.095.413-.114.287-.03.661-.015.827-.102.1-.049.246-.094.44-.106.22-.015.447-.018.607-.048.087-.015.18-.04.18-.061 0-.014-.134-.035-.228-.044-.087-.011-.2-.018-.301-.015-.334.01-.661.027-.995.037-.093.003-.2-.008-.3-.017-.295-.024-.275-.054-.042-.11.233-.054.4-.124.592-.187.214-.011.481-.007.628-.037.246-.047.42-.117.619-.177.22-.01.447-.013.654-.03.087-.007.127-.04.2-.06.133-.04.246-.095.426-.114.294-.028.655-.018.827-.102.1-.05.253-.102.44-.106.52-.007.74-.092 1.007-.172.2-.06.627-.03.847-.09.146-.04.253-.087.4-.124.06-.016.186-.024.286-.028.548-.024 1.102-.042 1.65-.068.086-.005.166-.028.233-.046.14-.04.226-.096.4-.122.172-.027.42-.027.633-.035.688-.024.742-.018 1.054-.15.253-.106.875-.032 1.08-.149.12-.068.34-.123.734-.132.554-.011 1.102-.042 1.656-.063.494-.019.487-.019 1.02-.163.24-.065.594-.056.908-.069.334-.013.64-.032.8-.109.16-.075.453-.1.794-.112.314-.011.668-.004.914-.066.6-.148.593-.15 1.014-.166l1.983-.079c.44-.017.901-.021 1.315-.056.3-.025.433-.111.626-.171l1.643-.07q1.153-.048 2.317-.093c.333-.058.378-.187.94-.195.334-.003.66-.024.995-.037.554-.022 1.101-.05 1.656-.062.42-.009.493-.092.713-.145.073-.018.14-.044.226-.05.868-.044 1.763-.055 2.61-.119.088-.006.167-.039.187-.062.013-.012-.1-.035-.174-.046a2 2 0 0 0-.294-.02l-8.274.324c-.387.016-.387.015-1.327.185-.08.014-.173.03-.274.035-.44.019-.888.03-1.322.054-.354.02-.648.001-.902-.054a2.5 2.5 0 0 0-.595-.048c-.254.005-.42.022-.567.064-.193.057-.293.131-.7.147-1.876.07-3.753.147-5.623.22-.26-.02-.388-.053-.321-.091a.5.5 0 0 1 .2-.057c.767-.034 1.542-.063 2.31-.095.107-.005.254-.002.313-.017.293-.07.4-.182.954-.19.32-.006.647-.03.954-.052.087-.006.167-.038.187-.061.006-.013-.101-.036-.181-.046-.295-.044-.635.01-.93-.02-.1-.01-.24-.026-.26-.044-.014-.017.1-.045.18-.062.073-.016.173-.03.273-.034.881-.037 1.763-.076 2.644-.105.36-.011.614-.05.774-.12.12-.053.266-.081.493-.09 1.542-.059 3.085-.125 4.634-.18.387-.012.587-.063.747-.13.126-.052.273-.071.52-.08 2.21-.084 4.407-.177 6.617-.258.408-.014.527-.08.734-.138.073-.02.12-.045.212-.057.094-.013.214-.011.328-.015 1.763-.069 3.526-.142 5.295-.207.414-.014.493-.091.706-.146.074-.017.14-.044.227-.05q1.983-.08 3.966-.158l2.645-.105c.434-.016.434-.017 1.02-.164a1.4 1.4 0 0 1 .246-.042c2.538-.103 5.069-.2 7.606-.302.214-.008.367-.044.473-.096.107-.053.26-.088.467-.096q2.973-.121 5.956-.235c.36-.013.614-.05.774-.12.12-.052.266-.08.493-.088 1.983-.077 3.966-.159 5.956-.233a2.4 2.4 0 0 0 .754-.129c.066-.022.12-.057.2-.06.987-.045 1.969-.091 2.964-.122.414-.013.554-.078.72-.14.133-.049.286-.066.54-.073a70 70 0 0 0 1.643-.069c.08-.004.18-.038.186-.06.013-.04-.141-.067-.395-.08l-7.94.313c-.434.017-.434.017-1.02.164-.066.017-.16.037-.253.042l-7.606.302a1.2 1.2 0 0 0-.473.096c-.106.053-.26.088-.466.096q-3.634.147-7.279.287c-.36.012-.614.048-.773.12-.12.052-.267.08-.494.088-2.317.09-4.627.184-6.951.271-.234.008-.408-.036-.395-.077.006-.022.106-.057.186-.06 1.209-.053 2.41-.108 3.626-.148.407-.013.527-.081.733-.138.067-.02.12-.047.207-.057.093-.013.213-.012.327-.015 2.864-.114 5.73-.23 8.6-.337.414-.016.494-.092.707-.146.073-.019.14-.046.226-.05q1.323-.056 2.645-.106l4.634-.183c.447-.017.447-.017 1.02-.163a1.2 1.2 0 0 1 .247-.042l12.24-.485c.213-.008.366-.044.473-.096.106-.051.26-.088.466-.098 5.516-.218 11.025-.437 16.54-.652.361-.015.614-.047.774-.12.113-.052.266-.08.493-.09l18.196-.72c4.08-.16 8.16-.324 12.24-.482.374-.014.574-.062.76-.126.06-.021.12-.057.2-.06q1.311-.06 2.624-.113l.823.121c.206-.059.406-.119.613-.178 1.322-.047 2.624-.118 3.96-.142.086-.001.18.028.274.043.622.095.976.087 1.369-.043.14-.046.259-.088.473-.096.661-.028 1.329-.048 1.983-.081a3.5 3.5 0 0 1 .903.052c.181.04.368.056.588.046 1.216-.048 2.424-.094 3.64-.146.086-.003.166-.03.233-.048.14-.04.259-.083.392-.125.181.026.382.046.529.08.188.039.361.038.615.027 4.848-.194 9.703-.384 14.55-.58.414-.016.596.048.877.082.093.012.187.027.287.03.107.003.22-.007.327-.011l10.918-.433c.481-.019.481-.019 1.197.075.087.012.201.026.294.021q2.486-.096 4.961-.194c.214-.008.395.016.589.05.382.07.408.07.688-.033.133-.047.273-.077.493-.091.24-.016.434-.012.621.016.268.038.463.102.87.084 1.763-.075 3.532-.138 5.288-.215.401-.017.616.034.883.072.094.014.181.035.281.04s.221-.007.327-.011c2.204-.087 4.414-.173 6.611-.265.414-.018.595.048.876.081.094.012.201.033.288.03 1.322-.05 2.651-.103 3.973-.156.474-.019.474-.017 1.197.075.087.012.201.024.294.021 1.543-.06 3.092-.12 4.634-.182.474-.019.474-.019 1.845.059.1.006.207.015.307.011 1.763-.069 3.533-.136 5.295-.21.354-.015.648-.003.903.052.181.04.368.056.588.047 1.984-.079 3.974-.155 5.95-.238.381-.016.628.017.896.061.087.016.174.037.275.043.1.006.213 0 .32-.005 1.983-.079 3.973-.153 5.95-.238.4-.017.615.034.882.072.094.014.195.041.275.04.774-.028 1.549-.052 2.317-.092.414-.022.595.048.876.082.094.01.201.033.288.03q2.486-.095 4.961-.196c.234-.01.408.004.595.043.248.054.536.075.896.057.768-.037 1.543-.062 2.317-.093.454-.018.454-.018 1.845.06.1.006.207.015.307.012 1.322-.052 2.651-.102 3.967-.158.354-.016.648-.003.902.052.181.04.362.057.589.047l3.639-.145c.441-.017.881-.047 1.322-.048.321 0 .556.074.843.11.081.011.214-.001.321-.005 1.542-.06 3.092-.117 4.627-.186.401-.017.615.034.883.072.094.014.194.042.274.04.555-.018 1.102-.042 1.656-.063.661-.026 1.329-.045 1.984-.08.534-.029.736.105 1.163.108.328.004.661-.022.989-.035.661-.026 1.322-.055 1.983-.077.234-.008.414-.033.487-.089.013-.01-.101-.033-.175-.047-.89-.155-.89-.155-1.785-.12-.554.023-1.102.045-1.656.065-.093.003-.2-.01-.294-.018-.268-.026-.241-.057-.015-.113.227-.055.399-.123.592-.186l.817.118.661-.026q1.653-.064 3.305-.124c.081-.003.181.028.275.043.268.044.509.082.896.064.988-.046 1.983-.08 2.971-.12.434-.018.434-.018 1.197.076.087.01.201.023.294.02.995-.037 1.983-.078 2.978-.116a2 2 0 0 1 .576.056c.06.018.047.049.304.3.791.203 1.332.18 1.879.161.234-.008.441-.016.594-.047.08-.017.18-.042.18-.062 0-.015-.148-.04-.241-.042-.662-.03-1.289.036-1.937.05-.301.008-.562-.046-.616-.133a.5.5 0 0 0-.055-.075c-.02-.025-.034-.051-.054-.076-.26-.007-.414.021-.527.074a1.4 1.4 0 0 1-.406.115c-.18.025-.427.021-.648.03-.213.007-.447.028-.647.017-.201-.012-.362-.056-.549-.083-.087-.014-.194-.034-.281-.03-.768.027-1.529.054-2.291.09-.4.019-.601-.046-.856-.085-.2-.03-.401-.022-.433.048-.085.17.223.24.904.206.561-.029 1.069-.034 1.511.07.06.013.2.02.287.016.548-.02 1.089-.043 1.636-.063.1-.003.207.003.301.009 1.364.08 1.364.082 1.825.063.22-.01.434-.018.411-.251.417-.251 1.085-.27 1.733-.307.421-.024.602.043.876.078.094.012.194.037.281.033a961 961 0 0 0 4.294-.168c.24-.01.414-.001.601.038.241.05.509.082.89.063.761-.038 1.535-.062 2.31-.094.394-.016.394-.016 1.19.078.087.01.201.022.294.019.775-.027 1.543-.061 2.311-.09.214-.008.407.013.575.054s.368.063.575.055l2.311-.09c.093-.004.207.007.294.017.816.094.816.094 1.19.078.547-.024 1.108-.035 1.649-.067.528-.032.803.057 1.164.105.988-.037 1.983-.068 2.965-.112.4-.02.615.03.882.07.094.014.188.043.275.041.334-.006.661-.024.988-.037l.989-.038c.374.044.623.148 1.157.111.32-.022.661-.027.988-.04l.988-.038c.221-.008.448-.013.661-.028.394-.023.589.052.87.085.093.01.201.029.287.026.661-.023 1.329-.043 1.977-.08.501-.028.842.018 1.197.082.073.013.2.02.294.018.774-.028 1.542-.061 2.31-.09.207-.008.408.016.576.055q.261.064.581.053l2.311-.09a2 2 0 0 1 .294.021c.749.094.749.096 1.19.077l.327-.013c.548-.023 1.116-.031 1.65-.07a5.3 5.3 0 0 1 1.497.096c.548-.019 1.109-.03 1.643-.062.4-.024.615.034.883.072.093.014.194.041.274.038.775-.028 1.549-.052 2.31-.092.414-.022.596.047.877.082.093.012.194.033.28.03q.661-.021 1.323-.05c.514-.02.514-.02 1.196.073.322.044.642.008.956-.003.334-.013.647-.023.915.04.168.04.369.064.576.057.441-.014.888-.029 1.322-.053a3.4 3.4 0 0 1 .902.05c.181.039.369.059.589.05.988-.04 1.983-.08 2.971-.117a1.6 1.6 0 0 1 .288.024q.279.042.549.089c.434-.015.881-.022 1.309-.044.454-.023.868-.03 1.223.053.074.018.181.044.268.043.334-.007.661-.023.988-.036l.988-.039c.381.038.623.148 1.157.112.321-.022.662-.027.989-.04l.988-.039c.107-.003.227-.01.321-.005.1.006.187.028.274.043.268.044.515.088.896.061.32-.022.661-.027.988-.041.448-.018.448-.018 1.19.077.301.04.641-.013.929.02.194.023.362.061.549.087.08.01.207.015.301.012.441-.015.888-.03 1.322-.053.354-.02.648-.001.896.053.181.04.361.057.588.047 1.102-.045 2.204-.084 3.299-.133.374-.018.675.008.882.063.356.094.855-.019 1.224.058.228.047.455.102.869.078.761-.041 1.536-.064 2.304-.093l.83.123q.661-.028 1.322-.052c.327-.013.661-.027.988-.038.107-.003.221-.01.321-.002.1.007.181.027.274.042.462.075.462.076 1.223.044.328-.014.642-.024.916.037.255.056.555.067.903.05q.981-.047 1.983-.08a2.2 2.2 0 0 1 .575.058c.261.062.582.056.909.038.434-.022.861-.044 1.23.041.074.018.188.044.268.043.547-.014 1.102-.024 1.636-.054s.796.065 1.164.11l1.649-.063c.107-.004.234-.018.327-.01.395.03.623.145 1.164.11.314-.021.654-.028.982-.033a1 1 0 0 1 .261.044c.033.01 0 .04-.04.055-.119.043-.266.084-.372.128-.014.007.114.034.187.046.181.028.388.023.628.01.207-.011.421.01.569.056.06.018.041.049-.085.15.001.076.141.042.187-.008.073-.07-.068-.093-.335-.054-.187.028-.279.068-.232.1.027.017.154.038.38-.038.587-.093 1.028-.11 1.468-.128.114-.005.247-.02.327-.011.288.036.556.08.837.121.321-.01.621-.033.936.026.441.084.461.076.889.058q.33-.014.661-.025c.22-.008.394.014.588.05.395.07.429.07.688-.028.153-.06.26-.08.454-.053.642.093.649.099 1.196.07.454-.024.882-.03 1.217.056.228.061.301.048.481-.017.479-.172.699-.169 1.603-.048.421.058.855-.006 1.282-.014.361-.007.615.03.643.126.021.06.081.103.322.123.094.007.208.018.301.014.554-.019 1.102-.041 1.656-.064.28-.011.433-.084.379-.179-.062-.101.045-.138.445-.168.24-.017.434-.015.628.013.215.03.155.058-.032.113-.446.136-.391.22.185.312.2.032.361.06.408.108.027.025.001.057.061.076.329.102.784.167 1.292.215.488-.042.822.027 1.197.081.295.043.642.005.955-.01.354-.018.648-.006.903.05.181.04.368.058.588.05.441-.018.889-.03 1.323-.055.373-.022.654.008.889.06.295.066.622.02.929.03.414.01.623.146 1.164.108.32-.022.654-.03.988-.037a1.1 1.1 0 0 1 .268.042c.355.084.769.079 1.223.054.314-.018.621-.034.929.024.509.098 1.071.183 1.607.272.074.07.021.154.403.195.2.02.388.053.542.088.187.041.361.052.602.04.434-.022.888-.027 1.315-.056.394-.025.642.025.883.072.194.039.375.057.608.029.24-.027.414-.01.608.03.275.057.295.051 1.204.066a1 1 0 0 1 .261.044c.027.011-.033.042-.08.057-.06.019-.153.04-.24.045-.988.042-1.983.08-2.971.12-.1.006-.207.017-.28.032-.08.017-.18.04-.18.062 0 .015.134.033.228.044.294.035.641-.02.929.02.194.026.354.062.548.086.081.011.208.01.308.006.334-.011.661-.027.995-.037.093-.002.2.013.287.026.643.09.643.09 1.197.07.221-.008.454-.032.661-.023.201.009.375.05.556.076.375.055.729.108.757.228.014.046.235.085.456.088.213.003.44-.015.661-.024.521-.02.521-.02 1.197.073.187.026.387.028.628.013.093-.007.207 0 .307.007.328.022.328.051.115.107-.3.082-.273.09.57.157.321.026.568.075.836.117.435.069.429.069.143.16-.067.02-.127.041-.193.063-.193.06-.346.125-.747.132-.441.007-.882.032-1.322.05-.428.017-.541.055-.499.159.048.126.135.14.903.137.221 0 .414.011.582.052-.08.05-.226.088-.44.098-.547.024-1.101.045-1.649.066l-1.322.053c-.274.011-.447.091-.372.18q.06.075.109.152c.074.101.215.127.662.122.114-.002.221-.014.328-.011.434.01.643.137 1.163.11.434-.023.889-.028 1.316-.056.394-.026.615.03.889.07.094.014.195.043.275.041.554-.018 1.108-.035 1.649-.066.254-.012.408-.003.608.033.482.088.496.084 1.21.055.521-.023.528-.02 1.197.073.187.026.388.026.628.013.314-.016.641-.041.969-.019a1 1 0 0 1 .261.044c.02.014-.073.048-.153.059-.587.08-1.275.068-1.916.102a2 2 0 0 1-.569-.06 2.2 2.2 0 0 0-.588-.05c-.441.017-.889.029-1.323.054a3.5 3.5 0 0 1-.896-.06c-.087-.015-.187-.044-.274-.042-.988.032-1.983.065-2.965.11-.394.018-.621-.03-.889-.071-.094-.014-.188-.043-.275-.041-.333.006-.661.024-.995.037-1.215.048-2.424.096-3.639.141-.08.003-.181-.029-.274-.042l-.556-.08c-.334.014-.661.03-.995.04-.24.006-.454.028-.486.086-.02.039.201.074.435.07.227-.003.454-.022.641-.003.93.097.93.099 1.511.078.507-.02.454-.035.902.049.194.036.369.058.589.048.547-.022 1.102-.045 1.656-.064.087-.004.2.012.287.024.656.09.656.094 1.197.07.708-.029.735-.037 1.21.056.328.064.628.019.942.015.362.06.757.113 1.085.18.388.079.795.064 1.236.04.327-.017.648-.024.916.039.254.058.562.064.909.048.314-.015.634-.045.962-.011.087.009.221.032.214.045-.006.022-.093.053-.179.062-.614.064-1.289.064-1.937.094-.086.005-.2-.012-.287-.024-.188-.027-.368-.06-.549-.088-.327.01-.661.013-.982.032a2.4 2.4 0 0 1-.615-.023c-.167-.034-.348-.075-.549-.085-.2-.01-.434.013-.654.022-.22.01-.474.006-.648.03-.173.026-.279.08-.392.123-.127.048-.3.063-.554.068a2.3 2.3 0 0 1-.595-.043 3 3 0 0 0-.275-.044c-.093-.01-.2-.028-.287-.024-.995.037-1.983.077-2.978.115-.494.02-.488.02-1.518-.07-.093-.007-.207-.017-.3-.014-.555.02-1.102.042-1.657.064-.56.023-.554.02-1.51-.075-.174-.018-.428.007-.635.004-.434-.007-.65-.136-1.157-.11-.434.022-.888.027-1.322.056-.394.025-.622-.028-.889-.07-.094-.013-.195-.044-.275-.04-.995.035-1.983.075-3.306.082-.327 0-.18.033.034.043.308.017.407-.016.24-.077a1.2 1.2 0 0 0-.435-.053c-.074.006-.167.036.161.087.348.058.329.09.389.109.147.044.355.062.569.055.333-.01.661-.027.995-.037a2 2 0 0 1 .294.02c.736.094.742.1 1.524.062.247-.011.427-.012.621.017.268.04.462.107.87.085.54-.03 1.095-.048 1.649-.066.087-.003.181.024.281.036.274.037.476.105.883.075.313-.023.654-.03.988-.035a.8.8 0 0 1 .261.042c.081.036-.019.077-.246.107-.093.012-.22.01-.327.014q-.661.028-1.322.052c-.234.008-.454.031-.48.088-.02.039.221.072.448.069.334-.006.668-.019.989-.04.567-.034 1.062-.025 1.524.07.328.068.308.043.657.242.088.05.349.055.576.051q.822-.011.755.062c-.059.059-.253.077-.5.085-.441.013-.881.034-1.322.052-.107.005-.227.014-.327.011s-.194-.021-.281-.035c-.187-.029-.348-.073-.549-.083s-.434.013-.654.022-.454.032-.655.022c-.2-.01-.368-.057-.549-.084-.087-.014-.194-.035-.281-.033-.44.013-.881.033-1.322.05-.541.02-.541.02-1.197-.074a3 3 0 0 0-.628-.012c-.534.025-.541.02-1.517-.067a2 2 0 0 0-.301-.015q-1.49.056-2.971.116c-.848.034-.848.034-1.314.188-.346.115-.353.115-.012.166.275.043.523.105.824.128.281.02.627-.049.935.021.154.035.355.073.549.08.307.006.634-.039.929.028.147.034.368.069.555.07.328.003.662-.023.989-.034.1-.003.213-.003.307.004.1.01.187.027.274.043a3.3 3.3 0 0 0 .903.049c.567-.044 1.075-.024 1.518.074.06.014.207.015.3.009a3 3 0 0 1 .628.01c.074.013.181.034.168.048-.02.023-.1.054-.186.062-.628.053-1.302.06-1.95.09-.087.003-.194-.017-.281-.03-.187-.028-.348-.074-.549-.084-.2-.01-.434.01-.654.018s-.454.031-.655.022c-.2-.01-.388-.048-.549-.082a2.2 2.2 0 0 0-.615-.026c-.32.02-.654.024-.981.035q-.27-.045-.549-.088a2 2 0 0 0-.288-.029c-.44.013-.881.033-1.322.05s-.441.018-1.19-.076a2 2 0 0 0-.294-.02c-.554.02-1.102.044-1.656.063a2.2 2.2 0 0 1-.582-.054 2.1 2.1 0 0 0-.575-.056c-.882.034-1.763.066-2.645.106-.353.016-.654.003-.896-.052-.281-.063-.595-.047-.922-.034-.741.032-.748.03-1.223-.047-.094-.015-.188-.044-.274-.042-.768.024-1.543.047-2.304.085-.401.02-.615-.033-.883-.072-.094-.014-.194-.043-.274-.04-.555.018-1.109.035-1.65.066-.54.032-.749-.11-1.157-.108-.554.002-1.102.038-1.649.06l-1.322.054c-.441.018-.882.032-1.322.053a2.4 2.4 0 0 1-.602-.04c-.248-.05-.542-.09-.81-.136-.408-.065-.408-.065-.903-.046l-.327.013c-.808.035-.808.032-1.838-.063a1 1 0 0 0-.213.025c-.14.04-.266.083-.393.125-.18-.024-.401-.038-.522-.073-.342-.099-.875.039-1.223-.06a2.7 2.7 0 0 0-.549-.076c-.207-.01-.441.013-.654.022-.555.024-.555.023-1.027.16-.24.068-.587.057-.901.072-.327.018-.641.028-.916-.035a3.3 3.3 0 0 0-.902-.05c-.434.023-.882.038-1.322.052a3 3 0 0 1-.301-.013c-1.024-.089-1.024-.09-1.518-.07-.22.01-.447.014-.661.028a3.4 3.4 0 0 1-.896-.055c-.087-.016-.187-.045-.274-.043q-.66.014-1.309.038c-.334.011-.668.018-.988.04-.534.036-.796-.063-1.164-.109-.548.021-1.102.036-1.649.065a2.4 2.4 0 0 1-.615-.029c-.248-.045-.476-.097-.876-.073-.535.031-1.096.043-1.643.062-.368-.047-.637-.143-1.164-.107-.32.022-.661.028-.988.04q-.662.026-1.322.053c-.474.02-.468.015-1.197-.074-.422-.053-.855.007-1.283.017-.334.009-.5.08-.418.17.081.09-.099.162-.406.174-.768.03-1.542.063-2.31.09a2 2 0 0 1-.294-.018c-.823-.095-.823-.093-1.19-.079-.548.024-1.109.037-1.65.067a3.2 3.2 0 0 1-.889-.062 2.3 2.3 0 0 0-.602-.04c-2.644.108-5.288.208-7.926.319-.394.016-.622-.029-.889-.07-.094-.013-.181-.042-.275-.042-.22 0-.441.014-.661.024-.988.039-1.976.085-2.971.114-.421.013-.534.084-.714.143-.139.045-.299.063-.546.07-.241.007-.415 0-.602-.04a3.2 3.2 0 0 0-.889-.062c-.434.025-.875.037-1.323.055-.227.008-.4.036-.473.091-.013.01.128.032.208.046.268.045.522.099.823.13.308.032.641-.005.962-.015.113-.003.22-.013.327-.011.1.001.221.009.295.022.348.069.716.116 1.196.074.415.019.63.146 1.157.111.321-.02.655-.03.989-.039.086-.001.18.026.274.04.268.038.482.099.883.072.427-.028.881-.034 1.315-.056a2.2 2.2 0 0 1 .602.037c.241.05.515.089.889.063.321-.022.661-.027.988-.041.428-.018.428-.016 1.19.078.087.01.201.022.295.02.554-.02 1.101-.044 1.656-.064.213-.008.421.012.568.056.061.018.041.05.061.075-1.102.044-2.203.081-3.298.134-.414.02-.602-.042-.877-.077-.093-.012-.194-.038-.28-.035q-1.16.04-2.311.091c-.24.012-.421.006-.602-.038-.462-.118-1.022-.052-1.543-.035-.401.013-.527.061-.479.163.061.12.302.156.917.133.22-.008.44-.019.661-.025q.32-.009.582.054c.167.04.368.062.575.056.44-.015.888-.03 1.315-.053.354-.02.648-.005.896.052.275.062.595.048.916.034.748-.033.754-.03 1.223.045.094.015.187.044.274.043.768-.025 1.543-.046 2.297-.084.394-.02.622.03.883.069.094.013.188.044.275.04.554-.017 1.108-.035 1.649-.065a2.4 2.4 0 0 1 .615.031c.495.09.509.087 1.21.057.213-.01.447-.027.648-.015.2.011.361.056.548.083.087.012.194.029.288.026.441-.013.881-.033 1.322-.05.414-.018.414-.016 1.19.078.315.039.642.005.956-.008.34-.015.647-.015.909.044.261.06.575.056.909.043.314-.012.634-.047.955-.006.736.094.736.095 1.19.076.661-.027 1.316-.053 1.983-.077.087-.003.201.015.288.027.187.028.348.073.549.084.2.012.434-.007.648-.017.687-.03.734-.04 1.196.06.389.082.868-.039 1.23.056.208.053.489.096.876.07.32-.023.654-.03.988-.043.528-.02.528-.019 1.197.072.087.012.201.027.288.024.44-.013.888-.024 1.315-.053.501-.033.822.025 1.197.081.294.044.641.007.955-.01.341-.015.648-.011.903.048.268.061.582.053.915.04.314-.011.634-.047.956-.005.689.095.689.095 1.19.075.44-.017.881-.037 1.322-.05.087-.003.194.017.281.03.187.028.348.074.549.084.2.01.434-.01.654-.018s.454-.031.655-.023c.2.01.388.047.548.08.188.04.362.045.615.029.321-.02.655-.026.982-.037.181.029.368.058.542.09.181.033.375.03.622.019.821-.039.828-.034 1.517.06.314.042.642.006.955-.005.334-.013.648-.02.909.042.255.058.569.065.903.046.213-.013.441-.021.661-.026.1-.002.22.004.294.016.355.064.703.122 1.19.08.428.011.643.137 1.157.111.434-.022.888-.027 1.316-.056.394-.025.675.018.876.071.362.095.868-.035 1.23.058.208.053.475.096.876.072.44-.025.581.007.709.103.074.055.062.1-.071.143-.134.045-.281.038-.495-.013-.248-.056-.542-.066-.896-.053-.347.012-.562-.067-.85-.097-.287-.032-.627.022-.928-.019-.71-.095-.71-.095-1.19-.076-.328.013-.668.02-.989.042-.38.027-.628-.02-.889-.063-.094-.015-.188-.044-.268-.043-.768.025-1.543.047-2.304.087-.4.02-.615-.034-.882-.072-.094-.014-.195-.041-.275-.038-.661.023-1.315.051-1.976.079-.127.041-.267.082-.386.126-.127.047-.3.067-.554.066-.421 0-.834.066-1.256-.015-.435-.082-.469-.077-.889-.057-.534.027-1.102.022-1.603.083-.086.01-.18.04-.179.062-.007.014.134.033.221.045.294.037.634-.018.929.02.194.025.354.061.548.087.081.01.201.009.308.007.113-.002.22-.013.327-.011.1.001.207.01.288.024.368.058.756.11 1.084.18.322.066.622.02.942.016 1.284.105 1.284.107 2.146.072.213-.008.434-.018.654-.017.094 0 .181.027.275.043.267.045.522.086.896.061.32-.022.661-.027.988-.042.441-.017.441-.017 1.19.078.187.024.388.021.628.008.207-.01.421.012.569.056.06.019.04.05.061.075-.661.026-1.329.044-1.97.082-.414.024-.602-.042-.876-.077-.094-.012-.194-.038-.281-.035q-.982.037-1.963.084c-.08.003-.18.038-.187.06-.013.04.155.078.395.076.321-.002.635-.029.923.034.241.055.542.079.895.054.214-.014.441-.015.655-.028.567-.037 1.082-.03 1.511.073.327.027.648 0 .962-.014.233-.011.46-.022.628.007.354.06.703.121 1.19.08.528.041.93.131 1.372.204.207.035.368.055.608.031.1-.01.22-.01.327-.014.221-.008.454-.032.655-.023.2.01.368.055.549.082.087.014.187.037.274.035.334-.008.661-.024.988-.037l.982-.034c.274.04.555.079.83.118l1.315-.051c.488-.02.488-.018 1.19.076.315.043.648.015.949-.006.5-.033.835.025 1.19.086.074.012.207.02.294.013q.52-.034.903.05c.18.04.361.058.581.05q1.152-.046 2.304-.09c.094-.003.201.01.288.023.682.092.689.097 1.19.071.447-.022.861-.032 1.216.052.074.018.188.044.268.043a82 82 0 0 0 1.643-.062c.247-.012.421-.008.615.027.247.044.469.098.876.077 1.128-.059 1.135-.05 2.472.054.094.007.221-.005.328-.011.227-.016.394.005.595.04.448.08.461.075.889.057.327-.014.668-.018.988-.042.494-.034.822.025 1.19.081.295.044.635.007.949-.008.34-.016.648-.012.902.046.174.04.362.061.582.053l2.304-.09c.093-.003.207.009.294.02.763.094.763.098 1.517.062.241-.012.441-.015.622.017.174.03.361.06.542.088.327-.011.661-.015.982-.034.247-.014.42-.008.615.024.254.04.469.112.869.076.207-.017.447-.013.654-.028.247-.02.415-.009.609.03.241.048.489.097.876.072.427-.029.881-.034 1.315-.057.24-.012.408 0 .602.04.241.05.515.081.889.06.761-.039.768-.031 1.511.064.187.024.388.021.628.008.207-.01.421.012.568.056.141.05.128.08.142.106M393.984 1.49c-.221.009-.441.018-.763-.115-.021-.023-.007-.05-.054-.07a1.5 1.5 0 0 0-.476-.075c-.36-.006-.794.047-.787.087q.01.05.342.09c.093.011.167.03.254.041.255.035.456.104.823.068-.068-.095-.034-.047 0 0q-.05.09.308.116c.067.005.168.002.221-.008.207-.034.239-.08.084-.201-.026.02-.006.055.054.064.061.01.208.002.281-.01.187-.029.28-.067.233-.1a.7.7 0 0 0-.235-.038c-.14 0-.267.035-.285.151m54.236 17.723c-.488.03-1.049.02-1.536.081-.086.011-.173.039-.179.06-.007.014.127.034.207.044.181.025.381.017.615.009.354-.012.562.059.836.093.087.011.201.019.294.015.541-.019 1.075-.04 1.616-.062.094-.005.194-.016.274-.03.267-.045.239-.074-.022-.108-.287-.036-.515-.097-.809-.126-.422-.04-.849.016-1.296.024m-37.925 1.188-.976.038c-.106.005-.22.007-.32.013q-.31.018-.46.094c.154.04.342.063.549.058.327-.01.647-.03.975-.036.354-.006.562.062.836.097.087.01.194.012.294.014.494.005.794-.076.699-.188-.068-.087-.322-.139-.629-.128zm40.182-3.463c.08-.026.166-.044.206-.067.12-.079.072-.137-.149-.198-.268-.075-.595-.024-.896-.016a.5.5 0 0 0-.193.054c-.026.014-.026.043.014.051.328.06.676.117 1.018.176m-58.009-4.437c-.321.013-.648.022-.968.04a.6.6 0 0 0-.2.054c-.087.037.007.088.281.092.314.005.641-.021.969-.034.414-.016.66-.073.506-.122-.148-.048-.348-.057-.588-.03M40.769 9.83c.214-.008.434-.015.648-.026.2-.011.354-.045.453-.096a2.2 2.2 0 0 0-.561-.056c-.328.01-.648.023-.969.038-.2.01-.393.044-.44.097-.046.04.402.062.87.043m323.404-.799c.087.014.174.041.261.041.214 0 .434-.01.634-.025a.5.5 0 0 0 .193-.056c.027-.014.02-.038-.02-.05-.195-.074-.97-.047-1.096.038-.013.016.021.035.028.052M342.993.655c.02.025.028.05.055.074.054.046.201.08.415.102.166-.039.253-.082.246-.128a.2.2 0 0 0-.055-.074c-.054-.046-.201-.08-.415-.102-.167.037-.246.08-.246.128M465.96 20.572q-.089.03-.186.059c.181.044.348.058.475.033.08-.016.126-.039.186-.059a1.2 1.2 0 0 0-.475-.033m-4.153.216c.087.014.168.032.262.041a.7.7 0 0 0 .399-.067c-.087-.013-.167-.031-.261-.04a.7.7 0 0 0-.4.066m2.629-.285c-.046.037.048.067.295.093.06-.02.14-.039.18-.06.066-.036-.048-.068-.289-.092q-.098.028-.186.059m-14.123-1.632c-.046.037.048.067.295.093.06-.02.14-.038.18-.06.066-.036-.047-.068-.288-.092q-.099.029-.187.059M430.968 8.033q-.088.03-.187.06c.181.043.348.057.475.032.08-.015.127-.039.186-.059a1.2 1.2 0 0 0-.474-.033m-18.476-5.735a.8.8 0 0 0 .407-.068c-.087-.014-.167-.032-.261-.041a.7.7 0 0 0-.4.067zm-9.777-.344q-.088.03-.187.059c.181.044.348.058.475.033.08-.016.126-.039.186-.059a1.2 1.2 0 0 0-.474-.033M336.42.665q-.088.03-.187.059c.181.044.348.057.475.033.08-.016.126-.039.186-.059a1.2 1.2 0 0 0-.474-.033M6.558 13.738l-.254-.043c-.193.042-.253.08-.146.11.067.018.168.028.255.042q.298-.063.145-.11"/></svg>