<svg xmlns="http://www.w3.org/2000/svg" width="73" height="60" fill="none" viewBox="0 0 73 60"><path fill="#1a3453" d="M72.65 6.988a31 31 0 0 1-8.582 2.352c3.088-1.843 5.445-4.74 6.553-8.232-2.88 1.716-6.058 2.929-9.445 3.605A14.93 14.93 0 0 0 50.296 0c-8.245 0-14.883 6.693-14.883 14.898 0 1.18.1 2.316.345 3.396-12.383-.604-23.34-6.538-30.7-15.579-1.285 2.23-2.038 4.782-2.038 7.529 0 5.158 2.656 9.73 6.615 12.378-2.393-.046-4.74-.74-6.729-1.835v.164c0 7.237 5.163 13.25 11.933 14.634-1.213.331-2.534.49-3.905.49-.954 0-1.916-.054-2.82-.254 1.93 5.898 7.406 10.235 13.917 10.376a29.93 29.93 0 0 1-18.467 6.352c-1.221 0-2.393-.055-3.564-.205 6.598 4.255 14.417 6.684 22.849 6.684 27.407 0 42.39-22.703 42.39-42.382 0-.658-.022-1.294-.054-1.925 2.956-2.098 5.44-4.718 7.465-7.733"/></svg>