<svg xmlns="http://www.w3.org/2000/svg" width="299" height="29" fill="none" viewBox="0 0 299 29"><path fill="#ffe492" d="M280.718 18.562c-.409.018-.823.03-1.224.058-.26.017-.372-.033-.545-.059-.058-.01-.12-.027-.174-.025q-.607.028-1.215.06c-.124.044-.203.103-.393.124-.186.02-.405.02-.612.03q-.408.02-.818.037c-.136.006-.248.027-.293.069-.009.006.082.023.132.034.165.034.326.072.508.098.174.026.389-.015.575.016.417.072.421.07.74.057q.409-.02.818-.035c.054-.002.116.015.174.024.173.025.285.082.541.06.194-.017.409-.02.612-.03.169.034.327.071.508.097.17.025.22.044.129.078q-.124.044-.352.045c-.136.001-.273.011-.409.017l-.203.01c-.26.012-.26.012-.735-.061-.186-.029-.397.011-.575-.016-.12-.018-.223-.046-.339-.065a1 1 0 0 0-.19-.007c-.207.008-.413.014-.612.029-.14.01-.223.042-.206.074.004.012.103.03.161.031.132.003.273-.013.401-.005.124.008.252.03.343.056.186.052.397.005.574.019.186.015.339.06.517.087.045.007.132-.004.203-.008l.607-.022c.17.033.352.062.505.1.276.068.574.094.934.061.202-.018.401-.011.562.033.165.046.355.04.566.032.194-.01.393-.034.591-.002.43.07.434.073.943.046.153-.008.268-.01.384.016.108.024.223.044.335.067l.612-.025c.26-.012.405.004.467.067.037.039.054.074.144.1.108.032.224.03.381.022.149-.008.256-.02.318-.061a.5.5 0 0 1 .12-.047.5.5 0 0 1 .128-.024.5.5 0 0 1 .165.032c.203.137.203.138.41.178.227.045.463.084.669.134.186.045.372.025.575.025.153 0 .252.03.24.06-.009.017-.067.042-.116.044q-.608.034-1.224.058c-.049.002-.111-.018-.169-.029-.116-.02-.219-.052-.343-.059s-.269.01-.405.016c-.137.006-.281.02-.405.012-.124-.01-.224-.042-.339-.064-.054-.01-.129-.025-.174-.022a2.2 2.2 0 0 1-.74-.06 1 1 0 0 0-.182-.015q-.717.03-1.434.064c-.194.01-.351-.03-.393-.098-.021-.037-.062-.075-.062-.112 0-.069-.227-.106-.392-.098-.273.011-.55.02-.819.037q-.33.02-.554-.04c-.173-.047-.372-.038-.57-.026-.149.01-.19.047-.182.142.008.076-.062.1-.331.112q-.51.025-1.025.044c-.054.003-.116-.017-.169-.027-.116-.02-.22-.053-.344-.06-.124-.008-.268.009-.405.016-.136.005-.281.021-.405.013s-.227-.042-.339-.063c-.053-.01-.12-.025-.173-.023q-.41.016-.819.035c-.306.014-.306.014-.74-.057-.198-.031-.396-.006-.591.003-.206.009-.401.013-.562-.032a1.1 1.1 0 0 0-.355-.042q-.513.021-1.025.044a1 1 0 0 1-.182-.014 2.3 2.3 0 0 0-.74-.06c-.265.02-.55.02-.815.04-.144.01-.21.047-.181.075a.4.4 0 0 0 .161.032c.132.001.277-.016.401-.01.256.014.384.11.719.084.198-.016.405-.022.612-.026.053-.002.111.02.169.031.166.031.31.07.55.05.198-.015.409-.02.612-.03.322-.014.322-.013.74.057.198.033.396.006.591-.002.144-.005.281-.017.397 0 .177.023.305.078.525.074.206-.003.409-.019.615-.025.129-.003.248.015.352.046.107.03.223.044.363.037q.306-.015.616-.026c.058-.001.124.01.178.018.116.02.227.045.339.066.203-.006.409-.009.608-.023.153-.01.26-.005.384.018.157.03.285.085.542.059.128-.013.277-.01.405-.02a.9.9 0 0 1 .376.024c.211.065.475.066.748.041.298-.027.521.005.744.055.236.052.236.05.418.177.053.037.206.053.334.047.215-.012.401-.006.558.037.166.047.364.041.567.029.268-.017.537-.032.756.034.108.032.223.04.368.032.409-.02.823-.033 1.224-.058.244-.016.384.02.549.05.224.043.467.08.467.17 0 .015.058.032.108.043.107.024.223.045.335.067.165.035.326.063.554.045.198-.015.409-.02.611-.03a2 2 0 0 1 .571.027q.315.077.674.132c.169.027.392-.018.574.017.112.022.219.047.339.065.05.008.128.002.194 0 .137-.004.277-.008.41-.02.153-.012.268-.01.384.017.108.024.215.057.339.063.186.01.393-.035.579.017.095.027.215.052.339.06s.268-.01.401-.008c.057 0 .128.018.161.033.02.008-.008.03-.037.04a.5.5 0 0 1-.145.035q-.613.029-1.228.056c-.244.012-.244.012-.736-.06a2 2 0 0 0-.388-.006c-.194.01-.393.03-.595.01-.265-.078-.591-.085-.939-.055a1.4 1.4 0 0 1-.384-.01c-.227-.042-.467-.082-.67-.133-.157-.04-.231-.043-.297.011-.021.017-.042.035-.037.051.024.057.07.113.095.17.008.016-.025.034-.046.05-.066.049-.153.045-.297.005a1.6 1.6 0 0 0-.55-.047c-.199.016-.414.013-.612.03a2.3 2.3 0 0 1-.74-.06 1 1 0 0 0-.182-.014c-.616.027-1.227.056-1.843.082a1.1 1.1 0 0 1-.356-.042 1.1 1.1 0 0 0-.359-.04q-.82.033-1.637.074a1.8 1.8 0 0 1-.554-.042 1.3 1.3 0 0 0-.368-.035c-.157.004-.269.015-.347.048-.075.032-.021.051.144.076.178.027.343.063.513.094.136-.004.273-.013.405-.012.058 0 .112.02.169.032.166.033.319.066.554.047.199-.015.41-.019.612-.03.281-.012.281-.012.736.06.116.018.24.017.388.007a.9.9 0 0 1 .352.042c.037.014.025.036-.054.111 0 .056.087.03.116-.006.045-.052-.042-.069-.207-.04-.116.02-.173.05-.145.073.017.013.096.029.236-.027.364-.068.641-.076.905-.094.157-.01.257-.006.381.024.148.035.297.073.541.054.265-.02.546-.022.814-.04.248-.015.377.035.534.064.19.035.401-.004.574.016.182.02.31.07.521.08.306-.031.5.026.732.063.182.029.396.004.591-.009a1.7 1.7 0 0 1 .554.04c.173.047.368.036.566.026.463-.023.479-.026.748.037.194.045.38.025.575.019.169.03.335.063.512.09.046.008.133-.004.203-.007.202-.01.409-.018.612-.027.136-.006.281-.023.405-.016.124.008.227.04.339.062.111.022.227.043.334.066.166.034.323.063.554.046.199-.015.405-.02.612-.03.26-.012.252-.01.736.06.26.037.529-.009.793-.013.133-.003.261.01.352.043.037.014.025.036.037.056-.682.03-1.368.056-2.042.094-.26.015-.397-.026-.537-.06-.232-.055-.538.025-.757-.046a1.4 1.4 0 0 0-.55-.045c-.132.011-.272.01-.409.02-.347.025-.665.026-.942-.052-.095-.027-.232-.042-.331-.068a1.2 1.2 0 0 0-.364-.039q-.922.04-1.839.084c-.054.002-.108.02-.153.032q-.173.047.107.077c.062.007.112.022.17.033.112.022.215.056.339.064s.269-.008.405-.014c.136-.005.281-.023.405-.016.124.008.227.041.343.062.054.01.12.027.174.026.273-.007.541-.02.814-.03.17.031.314.075.517.086.128.006.264-.006.397-.004a.5.5 0 0 1 .161.033c.016.01-.037.032-.079.043-.157.043-.372.036-.566.05-.211.014-.401.01-.562-.035a1.2 1.2 0 0 0-.36-.04c-.343.015-.682.032-1.025.045a1 1 0 0 1-.182-.016c-.434-.07-.434-.072-.74-.057-.45.021-.45.021-.752-.039-.058-.011-.12-.033-.17-.032-.479.019-.954.037-1.43.063a1.2 1.2 0 0 1-.38-.022 2 2 0 0 0-.339-.06c-.128-.007-.269.01-.405.016s-.281.02-.401.011c-.124-.009-.231-.04-.339-.063a1.4 1.4 0 0 0-.384-.014c-.472.026-.476.023-.943-.048a1 1 0 0 0-.182-.014c-.343.013-.682.03-1.025.044a1 1 0 0 1-.351-.042c-.037-.014-.025-.037-.05-.08-.029-.011.004.007.013.024.062-.002.136 0 .182-.009.115-.022.173-.05.144-.074a.4.4 0 0 0-.144-.028c-.091 0-.17.025-.195.086-.26.038-.537.046-.806.064a1.1 1.1 0 0 1-.38-.024 1.6 1.6 0 0 0-.546-.053c-.264.02-.545.023-.818.04-.314.018-.451-.085-.715-.083-.273.003-.546.022-.819.036-.239.011-.239.011-.735-.063-.182-.027-.397.013-.575-.016-.12-.018-.223-.045-.339-.065a1 1 0 0 0-.19-.005c-.343.013-.69.023-1.021.047a2.8 2.8 0 0 1-.93-.069c-.339.013-.682.02-1.017.041-.244.016-.384-.021-.55-.052-.058-.01-.107-.027-.169-.032s-.137.005-.203.008c-.273.012-.554.018-.818.039-.327.026-.451-.067-.703-.079-.169.056-.26.132-.595.138-.273.004-.546.022-.819.035l-.409.018c-.219.01-.322.055-.277.123q.037.056.066.112c.042.067-.062.124-.235.132-.48.022-.955.045-1.435.064a1.1 1.1 0 0 1-.355-.044 1.1 1.1 0 0 0-.36-.04q-.717.035-1.434.065a1 1 0 0 1-.178-.019q-.172-.032-.339-.066c-.273.01-.541.017-.81.031-.434.02-.434.022-.752-.04-.058-.012-.116-.034-.17-.033q-.307.009-.616.027c-.607.03-.607.03-.785-.005-.161-.032-.306-.07-.55-.052-.264.02-.545.027-.818.038q-.304.014-.608.02c-.054 0-.111-.02-.169-.032a1.7 1.7 0 0 0-.554-.044c-.132.01-.273.013-.409.019-.356.016-.356.016-.939-.052a1 1 0 0 0-.186-.012q-.717.032-1.434.063a2 2 0 0 1-.186-.01c-.653-.066-.653-.066-1.348-.035-.264.012-.272.016-.549-.044a1.3 1.3 0 0 0-.372-.03c-.546.027-1.096.045-1.637.077-.244.013-.385-.02-.55-.052-.058-.01-.12-.032-.169-.031-.546.021-1.092.047-1.637.069-.05.002-.112-.02-.17-.03-.112-.021-.219-.052-.343-.059-.128-.007-.269.01-.409.016-.343.015-.343.014-.74-.053-.054-.01-.124-.022-.178-.02-.546.023-1.095.043-1.637.076a2.5 2.5 0 0 1-.74-.063 1 1 0 0 0-.182-.012q-.92.04-1.843.081a1.1 1.1 0 0 1-.356-.043c-.165-.046-.359-.04-.566-.03-.475.023-.479.022-.76-.032-.058-.012-.108-.026-.17-.032-.058-.006-.132-.002-.194 0l-.819.036c-.272.013-.549.02-.818.039-.331.024-.488-.05-.719-.084-.339.015-.687.024-1.021.047-.257.019-.376-.031-.546-.058-.058-.009-.12-.028-.174-.026q-.924.038-1.843.083a1.3 1.3 0 0 1-.372-.03c-.277-.06-.289-.058-.752-.036-.203.01-.397.02-.571-.027a1.7 1.7 0 0 0-.558-.038c-.269.016-.546.026-.818.037-.273.012-.546.03-.819.035-.219.006-.351-.047-.525-.075a1 1 0 0 0-.19-.007c-.273.01-.554.018-.818.038-.323.024-.5-.039-.728-.075a1 1 0 0 0-.194 0c-.48.02-.955.043-1.435.065l-.512-.091-.819.035c-.206.009-.417.012-.611.03-.252.022-.376-.031-.546-.057-.058-.01-.12-.029-.173-.026a50 50 0 0 0-1.026.045c-.322.02-.45-.083-.715-.082-.273.001-.554.016-.818.037a2.3 2.3 0 0 1-.74-.062 1 1 0 0 0-.182-.014c-.343.014-.682.031-1.025.045a1 1 0 0 1-.186-.01c-.653-.067-.653-.069-.938-.055q-.306.016-.616.026a1 1 0 0 1-.182-.017c-.43-.07-.43-.07-.74-.057l-.819.038-.512-.091c-.339.015-.686.026-1.021.046a1.2 1.2 0 0 1-.38-.022c-.149-.034-.298-.074-.546-.055-.265.02-.546.023-.814.04-.323.02-.455-.083-.715-.082-.273.001-.554.016-.819.037a2.3 2.3 0 0 1-.74-.062 1 1 0 0 0-.182-.014c-.752.033-1.5.066-2.252.102-.463.021-.463.022-1.344-.04a2 2 0 0 0-.19-.007c-.273.01-.554.018-.818.038-.323.023-.501-.038-.728-.075-.05-.009-.128-.004-.194-.002-.207.008-.409.019-.616.028l-.819.037-.512-.09c-.339.015-.686.023-1.021.047-.256.018-.376-.03-.546-.057-.058-.009-.12-.028-.173-.027q-.925.036-1.844.083c-.252.014-.368-.038-.537-.064-.058-.008-.124-.023-.178-.02q-.613.025-1.228.054c-.231.012-.231.012-.735-.059a1 1 0 0 0-.182-.014c-1.298.057-2.592.118-3.89.174a1.1 1.1 0 0 1-.355-.042 1.1 1.1 0 0 0-.36-.04c-.546.023-1.095.045-1.637.075a1.8 1.8 0 0 1-.554-.043 1.2 1.2 0 0 0-.368-.034q-.409.02-.818.038l-.819.037c-.272.013-.549.02-.818.039-.331.024-.492-.047-.719-.082l-1.224.052q-.819.037-1.637.073c-.049.003-.111-.018-.169-.028-.17-.029-.294-.068-.546-.056-1.223.06-2.455.111-3.683.17-.256.013-.368-.036-.541-.062-.058-.008-.124-.024-.178-.021q-1.023.044-2.046.09c-.277.013-.277.013-.74-.058-.054-.008-.124-.018-.182-.015-.889.038-1.773.08-2.662.119a1.1 1.1 0 0 1-.36-.041 1.1 1.1 0 0 0-.355-.042c-.819.036-1.641.072-2.455.111a1.8 1.8 0 0 1-.558-.04 1.2 1.2 0 0 0-.364-.035q-1.842.082-3.683.169a1.8 1.8 0 0 1-.55-.048 1.3 1.3 0 0 0-.372-.03 1 1 0 0 0-.339.051c-.111.045-.182.1-.446.104-.273.003-.55.017-.819.036-.256.02-.376-.032-.537-.062a1.5 1.5 0 0 0-.385-.015.9.9 0 0 0-.31.065c-.181.077-.198.077-.421.028a1.4 1.4 0 0 0-.36-.042q-.818.035-1.637.074c-.314.015-.318.017-.554-.04a1.2 1.2 0 0 0-.363-.035c-1.501.068-3.001.134-4.502.206a2 2 0 0 1-.554-.047c-.053-.011-.107-.027-.169-.032-.062-.004-.132 0-.199.002-1.091.05-2.186.096-3.273.15-.248.013-.381-.023-.55-.053-.058-.01-.108-.026-.17-.03s-.136.004-.202.007c-1.091.05-2.187.096-3.274.15-.26.013-.372-.035-.541-.06-.058-.009-.12-.026-.174-.024q-.512.021-1.025.045-1.228.054-2.456.111c-.314.015-.45-.086-.715-.082-.343.006-.682.029-1.025.045q-.409.017-.818.037c-.269.013-.269.013-.938-.053-.058-.006-.129-.014-.186-.012-.955.042-1.914.084-2.865.13-.219.01-.401.004-.558-.038a1.2 1.2 0 0 0-.364-.037c-1.434.065-2.864.13-4.299.193a1 1 0 0 1-.177-.018q-.173-.032-.339-.066c-.083.026-.191.05-.244.08-.075.04-.174.05-.331.057a1.3 1.3 0 0 1-.38-.024 1.8 1.8 0 0 0-.546-.054c-1.5.072-3.001.136-4.501.207-.248.011-.364-.039-.538-.065-.058-.008-.124-.02-.177-.018q-.922.04-1.844.082c-1.707.077-3.414.151-5.117.233a2.6 2.6 0 0 1-.74-.063 1 1 0 0 0-.182-.013l-7.164.323a1.1 1.1 0 0 1-.355-.043 1.1 1.1 0 0 0-.36-.04l-3.273.148c-.273.013-.277.014-.558-.04-.058-.012-.12-.033-.166-.031a.6.6 0 0 0-.252.073c-.066.04-.169.052-.322.06a1.3 1.3 0 0 1-.381-.023c-.153-.034-.293-.067-.541-.056-3.138.146-6.275.286-9.412.43-.252.011-.368-.036-.542-.062-.058-.008-.115-.02-.177-.022-.067-.002-.137.005-.203.008l-15.352.693c-.306.014-.302.014-.637.119-.04.012-.095.03-.153.032q-2.35.108-4.708.213-1.023.047-2.046.092c-.244.01-.244.01-.826.133-.05.01-.108.024-.166.026q-4.091.186-8.188.37c-.215.009-.389.03-.488.084a.7.7 0 0 1-.298.068q-2.864.131-5.733.258c-.227.01-.364.042-.475.09-.038.016-.07.034-.124.046-.05.01-.124.013-.186.016q-2.455.113-4.915.221c-.244.01-.343.052-.463.097-.041.014-.07.035-.124.045s-.133.01-.199.012q-2.046.091-4.092.185c-.264-.006-.322.06-.45.1-.046.014-.079.032-.133.04-.057.01-.132.009-.202.011-1.092.049-2.183.101-3.278.147-.252.01-.302.068-.438.108-.046.012-.091.031-.145.035q-1.023.05-2.046.093c-.227.01-.227.01-.628.122a.8.8 0 0 1-.157.03l-3.072.14a.6.6 0 0 0-.289.07.64.64 0 0 1-.293.07q-1.228.058-2.456.11c-.227.01-.376.038-.475.089a.7.7 0 0 1-.31.065c-.819.036-1.637.076-2.46.108-.24.009-.363.048-.463.095-.078.039-.17.053-.322.06-1.5.065-3.005.131-4.501.204-.253.012-.38-.027-.546-.056-.236-.04-.455-.083-.455-.171 0-.014-.07-.03-.12-.041-.367-.085-.367-.085-.425-.176-.033-.056-.07-.113-.1-.17-.053-.093-.186-.117-.566-.1q-.204.01-.41.018c-.202.008-.355-.03-.392-.097-.02-.038-.045-.075-.066-.113.207-.01.203-.01.566-.148.153-.058.153-.058-.14-.116-.112-.021-.22-.045-.34-.066a1 1 0 0 0-.181-.012q-.514.022-1.02.045c-.547.025-.547.025-1.1-.09-.046-.01-.116-.027-.108-.036.045-.042.157-.06.298-.065.206-.006.409-.018.611-.027l.41-.018c.128-.043.26-.085.38-.13.19-.068.19-.07-.07-.118-.166-.032-.344-.06-.513-.09-.203.01-.41.02-.612.027-.256.01-.36-.01-.425-.085-.058-.064.012-.12.21-.134.203-.014.393-.023.496-.08.1-.056.273-.078.488-.082q.205-.007.41-.019c.177-.009.272-.067.235-.131-.02-.043-.062-.078-.223-.087-.715-.04-.724-.038-1.08-.116-.032-.007-.057-.027-.045-.037a.2.2 0 0 1 .116-.046q.713-.038 1.426-.065c.157-.005.273-.013.327-.055.074-.058.041-.112-.104-.151a.7.7 0 0 0-.169-.028c-.546.02-1.087.047-1.633.067a.4.4 0 0 1-.16-.032c-.042-.027.02-.063.164-.076.19-.017.385-.018.513-.075.178-.08.397-.154.595-.232.033-.013.087-.04.075-.042-.104-.025-.224-.044-.331-.068-.182-.04-.182-.095-.14-.149.032-.043.156-.06.31-.06.066 0 .148 0 .202-.01.14-.025.186-.057.116-.081a.6.6 0 0 0-.166-.03c-.884.037-1.773.073-2.653.12-.26.014-.38-.03-.538-.06a1.2 1.2 0 0 0-.38-.016.8.8 0 0 1-.364-.031c-.07-.03.054-.057.389-.086.062-.006.132-.01.177-.02.48-.124.48-.125.81-.14.323-.015.323-.017.493-.083.078-.03.165-.061.24-.093.028-.012.078-.035.061-.042a.9.9 0 0 0-.36-.035c-.322.02-.702.003-.872.111-.066.041-.169.053-.318.06-1.496.065-2.992.136-4.493.2-.244.01-.355.052-.45.098-.083.04-.174.05-.331.057s-.281.01-.372-.027c-.054-.023-.009-.055.115-.086.178-.046.145-.103.087-.156-.041-.035-.17-.06-.306-.058-.202.004-.396.017-.566-.029-.1-.026-.223-.044-.335-.067-.215-.046-.43-.094-.731-.063-.207-.012-.352-.053-.517-.084-.277-.053-.302-.06-.103-.116.223-.063.05-.145.173-.206.132-.066.314-.124.476-.185l.12-.047c-.096-.023-.182-.051-.294-.067-.145-.02-.22-.046-.21-.116-.03-.01-.017.016.016.023a.7.7 0 0 0 .173-.007c.116-.022.174-.05.145-.074a.4.4 0 0 0-.145-.028c-.09 0-.17.025-.194.086-.463.047-.942.07-1.422.087-.05.003-.112-.02-.17-.031-.19-.039-.19-.038-.748-.05a.5.5 0 0 1-.165-.032c-.12-.07-.116-.146-.173-.22l.326-.14c.223-.095.513-.178.686-.281-.037-.056-.087-.112.095-.157.517-.057.513-.057.653-.112.401-.154.798-.31 1.216-.462.111-.04.111-.062-.087-.079a2 2 0 0 0-.194-.003c-.207.008-.414.028-.616.024-.203-.004-.352-.054-.517-.084l-.508-.098c-.195.003-.389.035-.583-.016-.15-.04-.335-.068-.505-.101.129-.087.368-.153.554-.229.17-.07.174-.068.629-.121.215-.025.289-.154.107-.191-.219-.046-.45-.088-.674-.131-.194.003-.392.034-.578-.017a1.6 1.6 0 0 0-.55-.05c-.405.025-.819.037-1.228.058-.14.007-.293.002-.355-.037-.042-.027.078-.064.215-.072.206-.012.392-.025.496-.082.099-.057.28-.074.496-.082a.5.5 0 0 0 .153-.03c.148-.066.314-.122.632-.12.132-.023.203-.051.161-.078a.4.4 0 0 0-.16-.032c-.344.011-.687.022-1.022.043-.157.009-.277.011-.376-.023-.07-.023-.033-.053.1-.086.115-.029.148-.062.14-.1-.021-.09-.145-.116-.542-.11-.285.004-.355-.01-.417-.088-.017-.018-.058-.043-.03-.056.179-.077.294-.173.63-.209.131-.014.272-.014.355-.043.082-.03.157-.064.243-.092.108-.034.182-.066.133-.088-.083-.038-.215-.042-.368-.028-.132.011-.273.012-.41.02-.243.012-.442-.018-.47-.068-.08-.132-.162-.262-.232-.394-.008-.016.012-.037.045-.05.116-.048.24-.094.36-.14.14-.054.364-.043.554-.054.269-.014.269-.013.628-.122.14-.044.385-.027.53-.065.045-.013.115-.033.103-.044a.5.5 0 0 0-.162-.034c-.057-.006-.128-.01-.19-.006-.752.033-1.5.068-2.252.1-.129.005-.27-.02-.315-.055-.045-.033-.033-.073-.041-.11.12-.047.256-.09.36-.14.078-.039.17-.056.326-.058.207-.003.41-.017.64-.027.43-.166.852-.34 1.315-.506.186-.067.14-.135.178-.207.037-.066.314-.056.5-.075.15-.016.199-.052.14-.077a.5.5 0 0 0-.165-.032c-.136 0-.272.01-.409.016-.136.005-.293.002-.405.021-.107.019-.178.057-.248.09-.078.037-.182.05-.339.051-.202.003-.405.013-.607.02-.224-.044-.455-.087-.67-.133-.041-.01-.05-.036-.046-.053.009-.044-.053-.071-.19-.093-.115-.018-.21-.044-.318-.067.083-.03.174-.06.24-.093.144-.07.326-.12.64-.117.124-.044.224-.1.385-.13.153-.03.413 0 .529-.067a.7.7 0 0 1 .256-.084c.178-.022.41-.01.513-.074a.6.6 0 0 1 .273-.078c.136-.01.277-.013.376-.034.053-.012.111-.03.111-.046a1.075 1.075 0 0 0-.327-.044c-.206.007-.408.02-.615.026-.058.002-.124-.006-.186-.013-.182-.018-.17-.04-.025-.081.145-.04.248-.091.368-.138.132-.008.298-.005.389-.026.152-.035.26-.087.384-.13.136-.008.277-.01.405-.022.054-.005.079-.03.124-.045.083-.028.153-.07.265-.083.182-.02.405-.012.512-.075a.57.57 0 0 1 .273-.077c.322-.005.459-.067.624-.126.124-.045.389-.022.525-.066.091-.029.157-.064.248-.091a1 1 0 0 1 .178-.02c.339-.018.682-.03 1.02-.048.055-.004.104-.02.146-.034.086-.03.14-.07.248-.09s.26-.02.392-.025c.426-.017.46-.013.653-.11.157-.078.542-.022.67-.108.074-.05.21-.091.455-.097.343-.008.682-.03 1.025-.044.306-.014.302-.014.632-.12.149-.048.368-.04.562-.05.207-.009.397-.023.496-.08.1-.055.281-.073.492-.081.195-.008.414-.003.567-.048.372-.11.367-.11.628-.122l1.228-.055c.272-.013.558-.015.814-.04.186-.018.269-.082.388-.126l1.017-.05q.714-.034 1.435-.065c.206-.043.235-.139.582-.143.207-.003.41-.017.616-.027.343-.015.682-.036 1.026-.044.26-.006.305-.067.442-.106.045-.013.087-.033.14-.036.538-.032 1.092-.039 1.616-.085.054-.005.104-.029.116-.046.009-.009-.062-.026-.107-.034a1 1 0 0 0-.182-.016l-5.121.23c-.24.011-.24.01-.823.135-.05.01-.108.022-.17.025-.272.014-.55.022-.818.039-.22.013-.401 0-.558-.041a1.3 1.3 0 0 0-.368-.036c-.157.003-.26.015-.351.046-.12.042-.182.097-.434.108-1.162.049-2.323.104-3.48.156-.162-.016-.24-.04-.2-.068a.26.26 0 0 1 .125-.042c.475-.024.955-.045 1.43-.067.066-.004.157-.002.194-.013.182-.051.248-.134.591-.14.199-.003.401-.02.591-.036.054-.005.104-.029.116-.046.004-.009-.062-.026-.111-.034-.182-.033-.393.007-.575-.016a.6.6 0 0 1-.161-.033c-.008-.012.062-.033.111-.045a1 1 0 0 1 .17-.025q.819-.04 1.637-.074c.223-.008.38-.036.48-.089a.7.7 0 0 1 .305-.064c.955-.042 1.91-.09 2.869-.128.24-.009.364-.046.463-.095.078-.039.17-.053.322-.06 1.369-.059 2.728-.124 4.097-.181.252-.01.326-.06.454-.101.046-.015.075-.033.133-.043.057-.009.132-.007.202-.01q1.636-.075 3.278-.146c.256-.01.306-.067.438-.107.046-.013.087-.033.14-.037l2.456-.112 1.637-.074c.269-.011.269-.012.632-.12a.7.7 0 0 1 .153-.031q2.355-.108 4.708-.214a.64.64 0 0 0 .294-.07.6.6 0 0 1 .29-.07q1.84-.086 3.686-.167c.224-.009.38-.036.48-.087a.7.7 0 0 1 .306-.065c1.227-.055 2.455-.113 3.687-.165a1.3 1.3 0 0 0 .467-.094c.041-.016.074-.042.124-.045.612-.031 1.22-.065 1.835-.086.257-.01.343-.057.447-.102.082-.037.177-.05.335-.054.343-.01.682-.03 1.016-.049.05-.003.112-.028.116-.044.008-.03-.087-.05-.244-.06l-4.915.221c-.268.013-.268.013-.632.12a.7.7 0 0 1-.157.032l-4.708.213a.64.64 0 0 0-.294.07.6.6 0 0 1-.289.071q-2.25.105-4.506.203c-.223.009-.38.035-.479.087a.7.7 0 0 1-.306.065c-1.434.064-2.864.13-4.303.192-.145.006-.252-.027-.244-.058.004-.016.066-.042.116-.044.748-.038 1.492-.076 2.244-.105.253-.009.327-.059.455-.101.041-.015.075-.034.128-.042.058-.01.133-.008.203-.01q2.658-.123 5.324-.239c.256-.011.306-.067.438-.107.045-.014.087-.034.14-.036q.82-.04 1.637-.075l2.869-.13c.277-.012.277-.012.633-.12a.7.7 0 0 1 .152-.03q3.79-.173 7.577-.343a.64.64 0 0 0 .294-.07.66.66 0 0 1 .29-.072q5.118-.233 10.238-.462c.223-.01.38-.034.48-.087a.7.7 0 0 1 .305-.066L75 9.903c2.526-.113 5.051-.23 7.577-.34.232-.01.355-.046.471-.093.037-.016.075-.042.124-.044q.813-.042 1.625-.08l.508.09.38-.13c.819-.034 1.625-.085 2.452-.1.053-.002.111.02.17.031.383.072.603.066.847-.03.086-.033.16-.064.293-.07.41-.02.823-.034 1.228-.058.219-.012.4 0 .558.04.111.03.227.042.364.035.752-.034 1.5-.067 2.252-.103.054-.002.103-.022.145-.035.087-.03.161-.062.244-.093.111.02.235.035.326.06.116.03.224.03.38.021 3.002-.137 6.007-.271 9.008-.41.256-.012.368.036.541.061q.086.017.178.023c.066.002.136-.005.202-.008l6.759-.306c.297-.013.297-.013.74.057.053.01.124.02.182.016q1.538-.068 3.071-.138c.132-.005.244.013.364.039.235.051.252.051.425-.024a.9.9 0 0 1 .306-.067c.149-.011.269-.008.385.013.165.028.285.076.537.063 1.091-.053 2.187-.098 3.274-.152.248-.013.38.026.545.055.058.01.112.026.174.03.062.002.136-.005.203-.009 1.364-.061 2.732-.122 4.092-.187.256-.013.368.036.541.06.058.01.124.026.178.024l2.459-.11c.294-.014.294-.013.74.056.054.01.124.018.182.016l2.869-.128c.293-.014.293-.014 1.141.045.062.005.128.012.19.01 1.091-.05 2.187-.097 3.278-.15.219-.01.401 0 .558.04.111.03.227.042.364.035 1.227-.055 2.459-.109 3.683-.168.235-.011.388.014.553.047.054.011.108.027.17.032.062.004.132 0 .198-.004 1.228-.056 2.46-.108 3.683-.168.248-.013.381.026.546.054.058.01.12.031.169.03.48-.02.959-.036 1.435-.065.256-.016.368.037.541.062.058.008.124.025.178.022q1.539-.066 3.071-.138c.145-.007.252.003.368.033.153.04.331.055.554.043.475-.026.955-.045 1.434-.066.281-.013.281-.013 1.141.046.062.005.128.012.19.01.819-.037 1.641-.072 2.456-.112.219-.011.401 0 .558.04.111.03.223.042.363.035l2.253-.102c.273-.013.546-.034.819-.034.198 0 .343.056.521.083.049.008.132-.001.198-.004.955-.043 1.914-.083 2.865-.131.248-.013.38.026.545.054.058.01.12.03.17.03.343-.013.682-.03 1.025-.045.409-.018.822-.032 1.227-.057.331-.02.455.079.72.082.202.004.409-.016.611-.025q.615-.029 1.228-.054c.145-.006.256-.024.302-.065.008-.008-.062-.025-.108-.035-.549-.116-.549-.116-1.103-.091q-.512.025-1.025.045c-.058.003-.124-.007-.182-.013-.166-.02-.149-.042-.009-.083.141-.041.248-.091.368-.138l.505.089q.204-.01.409-.018 1.023-.046 2.046-.088c.05-.002.112.02.169.032.166.033.315.061.554.049.612-.033 1.228-.057 1.84-.086.268-.012.268-.012.74.058.053.008.124.017.182.015q.92-.04 1.843-.082c.132-.005.261.01.356.042.037.014.029.037.186.223.487.151.822.136 1.161.122.145-.006.273-.012.368-.034.05-.013.112-.03.112-.046 0-.011-.091-.03-.149-.032-.409-.022-.798.025-1.199.036-.186.004-.347-.036-.38-.1q-.013-.029-.033-.056c-.013-.018-.021-.038-.033-.056-.161-.005-.257.015-.327.054a.8.8 0 0 1-.252.085c-.112.018-.265.015-.401.02-.132.006-.277.02-.401.013-.124-.01-.223-.042-.339-.063-.054-.01-.12-.025-.173-.022q-.713.027-1.418.063c-.248.014-.372-.034-.529-.063-.124-.023-.248-.017-.269.035-.054.125.136.177.558.153.347-.02.661-.024.934.054.037.01.124.015.178.012q.506-.021 1.013-.044c.062-.002.128.002.186.007.843.061.843.062 1.128.049.137-.007.269-.013.256-.186.261-.185.674-.197 1.075-.225.261-.017.372.033.542.06.057.008.119.027.173.024a499 499 0 0 0 2.658-.119c.149-.007.256 0 .372.03.149.037.314.061.55.047.471-.027.951-.044 1.43-.067.244-.011.244-.011.736.06.054.007.124.016.182.014q.718-.031 1.43-.063c.132-.006.252.01.355.04.104.031.228.047.356.041q.718-.032 1.43-.063c.058-.003.128.005.182.013.504.07.504.07.736.06.339-.018.686-.026 1.021-.048.326-.023.496.043.719.08.612-.027 1.228-.048 1.835-.08.248-.014.381.024.546.053.058.01.116.032.169.03.207-.004.41-.016.612-.025l.612-.028c.231.033.384.11.715.085.198-.016.409-.02.612-.029l.612-.027c.136-.006.276-.01.409-.02.244-.017.364.04.537.064.058.008.124.022.178.02.409-.016.822-.03 1.223-.056.31-.02.521.013.74.061.046.01.124.016.182.014q.719-.031 1.43-.064c.128-.006.253.013.356.042.107.03.227.046.359.04q.716-.031 1.431-.064a1 1 0 0 1 .182.016c.463.07.463.072.735.058.066-.003.137-.005.203-.009.339-.016.69-.021 1.021-.049.38-.03.657.008.926.073.339-.014.686-.022 1.017-.044.248-.017.38.026.545.054.058.01.12.03.17.029.479-.02.959-.037 1.43-.065.256-.016.368.035.541.061.058.01.12.025.174.023q.41-.016.819-.035c.318-.015.318-.014.739.055.199.033.397.007.592 0 .206-.01.4-.017.566.03.103.03.227.048.355.043.273-.01.55-.02.819-.037.215-.014.401-.005.558.037.111.03.227.045.364.038.611-.028 1.227-.056 1.839-.082a1 1 0 0 1 .178.018q.172.03.339.066c.268-.01.545-.015.81-.03.281-.017.537-.022.756.04a.6.6 0 0 0 .166.032c.206-.005.409-.016.611-.025.203-.01.41-.018.612-.027.236.028.385.11.715.084.199-.016.409-.02.612-.029l.612-.027c.066-.002.14-.008.198-.003.062.004.116.02.17.032.165.033.318.066.554.046.198-.016.409-.02.611-.03.277-.012.277-.012.736.06.186.03.397-.01.575.016.12.017.223.045.339.064.049.008.128.012.186.01.272-.01.549-.02.818-.038q.326-.02.554.041c.112.03.223.042.364.035.682-.032 1.364-.059 2.042-.094.231-.013.417.007.545.048.219.07.529-.013.757.044.14.035.281.076.537.059.471-.03.951-.045 1.426-.066l.513.092q.409-.019.818-.036.306-.016.612-.027c.066-.003.136-.007.198-.002.062.006.112.02.17.032.285.056.285.057.756.034.203-.01.397-.017.567.029.157.042.343.05.558.037q.607-.033 1.227-.055c.128-.006.248.013.356.043.161.046.359.042.562.03.269-.017.533-.033.76.031a.6.6 0 0 0 .166.032c.339-.01.682-.016 1.013-.038s.491.05.719.083l1.021-.044c.066-.003.144-.014.202-.008.244.024.385.11.72.083.194-.015.405-.02.607-.023a.5.5 0 0 1 .161.033c.021.008 0 .03-.024.041-.075.032-.166.062-.232.095-.008.004.07.025.116.034.111.02.24.017.388.008a.9.9 0 0 1 .352.042c.037.013.025.036-.054.111 0 .056.087.03.116-.006.045-.052-.042-.069-.207-.04-.116.02-.173.05-.145.073.017.013.095.029.236-.027.364-.068.637-.08.909-.093.071-.003.153-.015.203-.008.178.027.343.06.517.09.198-.006.384-.023.578.021.273.063.286.057.55.045l.409-.018c.137-.006.244.01.364.037.244.053.265.053.426-.02a.4.4 0 0 1 .281-.038c.397.07.401.074.74.053.281-.017.545-.021.752.044.141.045.186.035.298-.013.297-.126.434-.124.992-.033.26.043.529-.003.793-.009.224-.004.381.023.397.094.013.045.05.077.199.091.058.006.128.014.186.012.343-.014.682-.03 1.025-.046.173-.008.269-.061.235-.132-.037-.075.029-.102.277-.123.149-.013.269-.01.389.01.132.023.095.043-.021.084-.277.1-.244.161.112.23.124.025.223.046.252.081.017.019 0 .042.037.056.203.076.484.125.798.162.302-.031.508.02.74.06.182.033.397.005.591-.006.219-.012.401-.003.558.039.112.03.227.043.364.037.273-.012.55-.02.818-.038a1.6 1.6 0 0 1 .55.045c.182.049.384.016.575.023.256.008.384.109.719.082.198-.016.405-.022.612-.027a.6.6 0 0 1 .165.032c.219.063.475.06.756.041.195-.012.385-.024.575.02.314.072.661.136.992.203.045.052.012.114.248.144.124.016.24.04.335.066.116.031.223.039.372.031.268-.016.55-.02.814-.04.244-.018.397.02.546.055.12.028.231.042.376.021a.9.9 0 0 1 .376.024c.17.042.182.038.744.05a.5.5 0 0 1 .161.033c.017.008-.02.031-.049.042a.6.6 0 0 1-.149.033q-.92.043-1.84.086a1 1 0 0 0-.173.022c-.05.013-.112.03-.112.046 0 .011.083.025.141.033.182.026.397-.014.574.016.12.019.219.046.339.064.05.008.128.007.19.005.207-.008.41-.02.616-.026.058-.001.124.01.178.02.397.067.397.067.74.053.136-.006.281-.023.409-.016.124.006.232.037.343.056.232.042.451.081.467.17.009.034.145.064.281.066.133.002.273-.01.41-.017.322-.014.322-.014.74.055.115.02.239.022.388.01.058-.004.128 0 .19.006.203.018.203.04.071.08-.186.06-.17.066.351.117.198.02.351.056.517.088.268.05.264.05.086.118l-.119.046c-.12.045-.215.092-.463.097-.273.005-.546.023-.819.035-.264.013-.335.04-.31.117.029.094.083.104.558.103.137 0 .256.009.36.04a.53.53 0 0 1-.273.071c-.339.017-.682.032-1.021.047l-.818.037c-.17.008-.277.067-.232.133q.037.056.066.113c.046.075.132.094.409.09.071 0 .137-.01.203-.007.269.008.397.102.719.083.269-.016.55-.02.815-.04.243-.018.38.023.549.053.058.01.12.032.17.031.343-.012.686-.025 1.021-.046.157-.01.252-.003.376.025.297.065.306.062.748.042.323-.016.327-.014.74.055.116.02.24.02.389.01.194-.01.396-.03.599-.012a.5.5 0 0 1 .161.033c.013.01-.045.035-.095.043-.364.06-.789.049-1.186.073a1 1 0 0 1-.352-.046 1.1 1.1 0 0 0-.363-.037c-.273.012-.55.02-.819.038a1.8 1.8 0 0 1-.554-.045c-.054-.011-.115-.033-.169-.032-.612.023-1.228.046-1.835.078-.244.013-.385-.023-.55-.054-.058-.01-.116-.032-.17-.03-.206.004-.409.017-.616.026-.752.034-1.5.068-2.252.1-.05.002-.112-.022-.17-.032l-.343-.06c-.207.01-.409.021-.616.028-.149.005-.281.02-.302.064-.012.028.124.054.269.052.141-.002.281-.016.397-.001.574.072.574.074.934.059.314-.014.281-.025.558.037.12.028.227.044.364.037q.51-.024 1.025-.046a1 1 0 0 1 .178.018c.405.069.405.071.74.054.438-.02.454-.026.748.043.202.048.388.015.583.013.223.044.467.084.669.134.24.059.492.049.765.032.202-.013.401-.018.566.03.157.042.347.047.562.036.195-.01.393-.032.596-.007.053.007.136.024.132.034-.004.016-.058.038-.112.045-.38.047-.797.046-1.198.067-.054.004-.124-.009-.178-.018q-.173-.032-.339-.066c-.203.007-.409.01-.608.023-.153.01-.268.009-.38-.018-.103-.025-.215-.056-.339-.064s-.269.01-.405.016c-.136.007-.294.003-.401.022-.107.018-.174.058-.244.09-.078.035-.186.046-.343.05a1.2 1.2 0 0 1-.368-.033 1 1 0 0 0-.169-.034c-.058-.008-.124-.02-.178-.018q-.922.04-1.844.082c-.306.014-.301.014-.938-.053-.058-.006-.128-.014-.186-.012q-.513.021-1.025.046c-.347.016-.343.013-.934-.058-.108-.014-.265.004-.393.002-.269-.006-.401-.101-.715-.083-.269.016-.55.02-.819.04-.243.018-.384-.022-.549-.052-.058-.01-.12-.033-.17-.031-.616.025-1.227.053-2.046.057-.202 0-.112.024.021.032.19.012.252-.012.149-.057a.6.6 0 0 0-.269-.04c-.046.005-.103.026.099.065.215.043.203.067.24.08a1 1 0 0 0 .351.043c.207-.008.409-.02.616-.027a1 1 0 0 1 .182.015c.455.07.459.075.942.048.153-.008.265-.008.385.014.165.03.285.08.537.063q.505-.03 1.021-.046c.054-.003.112.018.174.027.169.027.293.078.545.057.195-.017.406-.022.612-.025a.4.4 0 0 1 .161.032c.05.026-.012.056-.153.078-.057.01-.136.007-.202.01q-.41.02-.819.037c-.144.005-.281.022-.297.064-.013.029.136.054.277.052.206-.004.413-.013.612-.028.351-.025.657-.018.942.054.203.05.19.031.405.18.054.037.215.04.356.038q.51-.008.467.047c-.038.043-.157.056-.31.062q-.41.017-.819.036c-.066.004-.14.01-.202.008s-.12-.015-.174-.026c-.116-.021-.215-.054-.339-.062s-.269.009-.405.016c-.136.005-.281.022-.405.014s-.227-.042-.339-.062c-.054-.01-.12-.026-.174-.025-.272.009-.545.024-.818.035-.335.015-.335.015-.74-.056a1.6 1.6 0 0 0-.388-.01c-.331.018-.335.015-.939-.05a1 1 0 0 0-.186-.012q-.923.04-1.839.082c-.525.023-.525.023-.815.137-.215.084-.219.084-.008.123.17.032.323.078.509.095.173.016.388-.035.578.017.095.027.219.055.339.06.19.005.393-.028.575.022.091.025.227.051.343.053.202.002.409-.016.612-.024.062-.003.132-.003.19.003q.091.012.169.032c.166.039.343.057.558.037.352-.031.666-.016.939.057a.7.7 0 0 0 .186.007c.148-.011.277-.012.388.01.046.008.112.024.103.034-.012.017-.062.04-.115.046-.389.039-.806.043-1.207.064-.054.002-.12-.013-.174-.023-.116-.02-.215-.055-.339-.063s-.268.007-.405.013c-.136.005-.281.023-.405.016a2 2 0 0 1-.339-.062 1.2 1.2 0 0 0-.38-.02c-.199.015-.405.017-.608.025q-.166-.035-.339-.066a1 1 0 0 0-.177-.022q-.41.016-.819.036c-.273.012-.273.012-.736-.058a1 1 0 0 0-.182-.015l-1.025.044a1.1 1.1 0 0 1-.359-.04 1.1 1.1 0 0 0-.356-.043q-.818.034-1.637.075a1.8 1.8 0 0 1-.554-.04c-.173-.046-.368-.035-.57-.026-.459.023-.463.022-.757-.036-.057-.011-.115-.033-.169-.032-.475.017-.955.033-1.426.06-.248.015-.38-.025-.546-.054-.058-.01-.12-.032-.169-.03-.343.013-.686.024-1.021.047s-.463-.083-.715-.082c-.343.001-.682.027-1.021.043l-.819.038q-.409.016-.818.037a1.2 1.2 0 0 1-.372-.03c-.153-.038-.335-.068-.5-.102-.252-.049-.252-.049-.558-.035l-.203.01c-.5.024-.5.022-1.137-.05a.5.5 0 0 0-.132.018c-.087.03-.165.062-.244.093-.111-.019-.248-.029-.322-.055-.211-.074-.542.027-.757-.046a1.4 1.4 0 0 0-.339-.057c-.128-.007-.272.009-.405.015-.343.017-.343.016-.636.118-.149.05-.364.04-.558.052-.203.012-.397.02-.567-.027a1.7 1.7 0 0 0-.558-.04c-.268.018-.545.028-.818.038a1 1 0 0 1-.186-.01c-.632-.067-.633-.068-.938-.053-.137.007-.277.009-.41.02a1.7 1.7 0 0 1-.553-.043c-.054-.011-.116-.033-.17-.032q-.408.01-.81.026c-.207.008-.413.013-.612.029-.331.026-.492-.048-.719-.082-.339.015-.682.025-1.021.045-.157.01-.26.006-.38-.021-.153-.034-.294-.073-.542-.056-.331.023-.678.03-1.017.044-.227-.035-.392-.106-.719-.08-.198.016-.409.019-.612.028q-.409.018-.818.038c-.294.013-.29.01-.74-.057-.26-.04-.529.004-.794.011-.206.006-.31.058-.26.125s-.062.12-.252.129q-.716.033-1.431.063a1 1 0 0 1-.181-.013c-.509-.072-.509-.07-.736-.06-.339.017-.686.026-1.021.047a1.7 1.7 0 0 1-.55-.047 1.2 1.2 0 0 0-.372-.03c-1.637.076-3.274.146-4.906.225-.244.011-.385-.022-.55-.052-.058-.01-.112-.032-.17-.032-.136 0-.273.01-.409.017-.612.027-1.223.06-1.839.08-.261.01-.331.062-.443.105a1 1 0 0 1-.339.051 1.3 1.3 0 0 1-.372-.03 1.6 1.6 0 0 0-.549-.047c-.269.018-.542.026-.819.039-.14.005-.248.026-.293.067-.009.007.078.024.128.034.165.034.322.074.508.098.19.024.397-.004.595-.01.071-.003.137-.01.203-.008.062 0 .136.006.182.016.215.052.442.087.74.056.256.015.388.11.715.084.198-.014.405-.021.612-.027.053-.001.111.02.169.03.166.028.298.074.546.054.264-.02.545-.024.814-.04.149-.009.256 0 .372.029.149.037.318.066.55.047.198-.015.409-.019.612-.029.264-.012.264-.011.735.06.054.007.124.016.182.014l1.025-.044a1 1 0 0 1 .352.042c.037.013.025.036.037.055-.682.031-1.364.057-2.042.095-.256.014-.372-.032-.542-.058-.057-.01-.119-.029-.173-.026q-.719.028-1.43.064a1.1 1.1 0 0 1-.372-.03c-.286-.087-.633-.039-.955-.027-.248.01-.327.045-.298.12.037.088.186.116.566.1q.205-.01.41-.018.198-.006.359.04c.104.031.228.047.356.043.273-.01.55-.02.814-.038q.327-.022.554.04c.169.047.368.036.566.026.463-.023.467-.021.757.035.058.012.116.033.169.032.476-.017.955-.032 1.422-.059.244-.014.385.023.546.052.058.01.116.033.169.031.343-.013.686-.025 1.021-.047.157-.01.252-.003.381.024.305.067.314.065.748.043.132-.006.277-.019.401-.01.124.01.223.042.339.063.053.009.119.021.177.02q.41-.016.819-.036c.256-.013.256-.011.736.059.194.03.396.005.591-.005.211-.01.401-.01.562.035.161.044.355.042.562.033.194-.01.393-.035.591-.004.455.07.455.072.736.058.409-.02.814-.037 1.228-.054.053-.003.124.01.177.02.116.02.215.054.339.063s.269-.005.401-.012c.426-.022.455-.03.74.046.24.061.538-.028.761.043.128.04.301.071.541.052.199-.016.405-.02.612-.03.326-.014.326-.013.74.055.054.01.124.02.178.018.272-.009.549-.017.814-.037.31-.024.508.02.74.061.182.033.397.006.591-.005.211-.012.401-.008.558.036.165.045.36.04.566.03.195-.007.393-.034.591-.002.426.07.426.07.736.057q.41-.02.819-.035c.053-.002.119.012.173.023.116.02.215.054.339.062s.269-.007.405-.012c.137-.006.281-.023.405-.016s.24.035.339.06c.116.03.223.033.381.022.198-.015.405-.019.607-.027.112.022.227.044.335.067.112.026.231.023.384.015.509-.027.513-.024.939.047.194.032.397.006.591-.002.207-.01.401-.014.562.031.157.044.351.05.558.036.132-.01.273-.015.409-.018a1 1 0 0 1 .182.012c.219.048.434.09.736.06.264.01.397.102.715.084.269-.016.55-.019.814-.04.244-.018.418.014.542.054.223.07.537-.025.76.044.129.04.294.072.542.055.273-.018.359.006.438.077.045.041.037.074-.045.106-.083.033-.174.027-.306-.01a1.8 1.8 0 0 0-.554-.041c-.215.009-.347-.05-.525-.073-.178-.024-.389.016-.575-.015-.438-.071-.438-.071-.735-.058-.203.01-.414.014-.612.03-.236.02-.389-.016-.55-.048-.058-.011-.116-.033-.165-.032-.476.017-.955.033-1.426.062-.249.014-.381-.026-.546-.055-.058-.01-.12-.03-.17-.028q-.611.025-1.223.055c-.079.031-.165.06-.24.094a.9.9 0 0 1-.343.047c-.26 0-.517.048-.777-.012-.269-.062-.289-.058-.55-.043-.33.019-.682.014-.992.059-.054.008-.111.03-.111.045-.005.01.082.025.136.034.182.028.393-.012.574.016.12.018.22.046.339.065.05.008.124.007.191.006.07-.002.136-.01.202-.008.062 0 .128.008.178.018.227.043.467.083.67.134.198.05.384.016.582.014.794.08.794.08 1.327.055.133-.005.269-.012.405-.011.058 0 .112.02.17.032.165.034.322.065.554.046.198-.015.409-.019.611-.03.273-.012.273-.012.736.06.116.018.24.016.389.007a.9.9 0 0 1 .351.042c.037.013.025.036.037.056-.409.018-.822.03-1.219.058-.256.017-.372-.032-.542-.058-.057-.01-.119-.029-.173-.026q-.607.025-1.215.059c-.05.002-.112.028-.116.044-.008.03.095.058.244.057.198-.001.392-.02.57.026.149.04.335.059.554.04.132-.01.273-.01.405-.019.352-.027.67-.021.934.056.203.02.401.001.596-.009.144-.008.285-.016.388.006.219.045.434.09.736.06.326.032.574.099.847.154.128.026.228.04.376.023.062-.006.137-.006.203-.01.136-.006.281-.023.405-.016.124.008.227.041.339.062.054.01.116.027.169.026q.31-.01.612-.026l.608-.024.512.088.815-.036c.301-.014.301-.012.735.058.195.032.401.011.587-.003.31-.024.517.019.736.064.046.01.128.015.182.01q.322-.023.558.04c.112.029.223.043.36.037q.712-.034 1.426-.064a1 1 0 0 1 .178.017c.421.07.425.073.735.055.277-.016.534-.023.753.04a.6.6 0 0 0 .165.031c.339-.011.682-.023 1.017-.043.153-.009.26-.006.38.02.153.034.29.073.542.059.698-.043.702-.036 1.529.043.058.006.136-.004.203-.008.14-.012.243.004.367.03.277.06.286.056.55.044.203-.01.414-.013.612-.03.306-.025.508.02.736.062.182.033.392.005.587-.005.211-.011.401-.008.558.035.107.03.223.046.359.04q.714-.031 1.427-.064a1 1 0 0 1 .181.015c.472.07.472.074.939.048.148-.008.272-.01.384.013.108.023.223.045.335.067.202-.008.409-.01.608-.024.152-.01.26-.006.38.018.157.03.289.084.537.058.128-.013.277-.01.405-.02.153-.015.257-.006.376.023.149.035.302.072.542.054.264-.02.546-.024.814-.04.149-.01.252 0 .372.03.149.037.319.06.55.046.471-.028.475-.023.934.049.116.018.24.016.389.007a.9.9 0 0 1 .351.042c.087.036.079.059.087.078M243.884 8.31c-.137.005-.273.012-.471-.087-.013-.017-.005-.037-.033-.052a.8.8 0 0 0-.294-.056c-.223-.004-.492.034-.488.064q.006.036.211.067c.058.008.103.022.157.03.157.027.281.078.509.052-.042-.07-.021-.035 0 0q-.032.066.19.086a.6.6 0 0 0 .136-.005c.128-.025.149-.06.054-.15-.017.015-.004.042.033.048a.7.7 0 0 0 .174-.006c.115-.022.173-.05.144-.074a.4.4 0 0 0-.144-.029c-.087 0-.166.025-.178.112m33.424 13.183c-.302.021-.649.013-.951.058-.054.008-.107.028-.112.044-.004.01.079.025.129.033.111.018.235.013.38.007.219-.008.347.044.517.07.053.008.124.014.181.012q.5-.021 1.001-.045c.058-.003.12-.011.169-.021.166-.033.149-.055-.012-.08-.178-.027-.318-.073-.5-.094-.261-.03-.525.01-.802.016m-23.475.83-.603.027c-.066.003-.137.004-.199.009a.64.64 0 0 0-.285.07c.095.029.211.046.339.043.203-.007.401-.022.604-.026.219-.004.347.047.516.073.054.008.12.01.182.01.306.005.492-.054.434-.137-.041-.065-.198-.104-.388-.095q-.3.011-.6.026m24.888-2.51c.05-.02.104-.033.129-.05.074-.058.045-.102-.091-.147-.166-.056-.368-.018-.554-.012a.3.3 0 0 0-.12.04c-.017.01-.017.031.008.037.203.045.418.087.628.132m-35.858-3.358q-.3.012-.6.028a.3.3 0 0 0-.124.04c-.053.027.005.065.174.068.194.005.397-.015.599-.024.257-.011.41-.053.315-.09a.8.8 0 0 0-.364-.022m-217.586-2.43c.132-.005.268-.01.4-.018a.6.6 0 0 0 .282-.07 1.2 1.2 0 0 0-.348-.042q-.302.01-.599.027c-.124.007-.244.032-.273.07-.029.03.248.047.538.033m200.105-.175c.054.01.107.03.161.03.132 0 .269-.006.393-.017a.3.3 0 0 0 .12-.041c.016-.01.012-.029-.013-.038-.119-.054-.599-.035-.678.028-.008.011.013.026.017.038m-13.041-6.225c.012.018.016.037.033.055.033.034.124.059.256.076.103-.028.157-.06.153-.094a.13.13 0 0 0-.033-.055c-.033-.034-.124-.059-.256-.076q-.155.041-.153.094m75.933 14.895a2 2 0 0 1-.116.044.6.6 0 0 0 .294.025c.049-.012.078-.029.116-.044a.6.6 0 0 0-.294-.025m-2.571.155c.054.01.103.024.161.03a.4.4 0 0 0 .248-.048c-.054-.01-.103-.024-.161-.03a.4.4 0 0 0-.248.048m1.629-.208q-.045.04.181.07c.038-.015.087-.03.112-.045.041-.026-.029-.05-.178-.068q-.06.02-.115.043m-8.726-1.226c-.029.028.029.05.182.07.037-.015.086-.029.111-.044.041-.027-.029-.05-.178-.069q-.06.021-.115.043m-11.888-8.043q-.056.022-.116.043a.6.6 0 0 0 .293.025c.05-.011.079-.028.116-.043a.6.6 0 0 0-.293-.025M255.33 8.93a.4.4 0 0 0 .252-.05c-.054-.01-.104-.024-.161-.03a.4.4 0 0 0-.248.048q.08.018.157.032m-6.048-.267q-.055.023-.115.043a.6.6 0 0 0 .293.025c.05-.011.079-.028.116-.043a.6.6 0 0 0-.294-.025m-41.009-1.039q-.055.023-.115.043a.6.6 0 0 0 .293.025c.05-.011.079-.028.116-.043a.6.6 0 0 0-.294-.025M4.08 16.873l-.157-.032c-.12.03-.157.06-.091.08.041.015.103.022.157.033q.185-.047.09-.081M23.639 5.652c-.476.022-.947.049-1.422.063-.253.006-.343.055-.447.1-.082.037-.178.048-.33.055q-1.934.085-3.861.173c-.162-.015-.24-.039-.203-.067.02-.017.07-.04.12-.043.88-.042 1.757-.085 2.641-.118.253-.01.323-.06.451-.1.041-.014.074-.035.128-.043.054-.009.132-.007.203-.01l4.265-.193c.162.015.24.039.203.067a.23.23 0 0 1-.12.043zM283.21 11.706c-.214.013-.487.033-.71-.034a1.1 1.1 0 0 0-.364-.035q-.305.017-.616.028a1 1 0 0 1-.178-.022c-.116-.02-.215-.055-.339-.064s-.273.016-.401.01c-.169-.007-.24-.038-.194-.066a.3.3 0 0 1 .128-.043c.765-.042.769-.042.984 0 .165.031.318.066.554.047.198-.016.409-.02.612-.03.281-.013.281-.012.735.06.116.018.24.017.389.006.128-.008.252.01.355.041a.64.64 0 0 1-.289.07c-.207.012-.409.02-.666.032"/><path fill="#ffe492" d="M276.469 11.355c.52-.024 1.045-.044 1.566-.071a1.7 1.7 0 0 1 .534.04c.161.041.343.038.541.03a.9.9 0 0 1 .327.046c.033.012.024.035.037.053q-.683.031-1.373.06a1 1 0 0 1-.169-.018c-.112-.02-.207-.053-.327-.06-.256-.016-.512.014-.773.02a1 1 0 0 1-.326-.045c-.033-.015-.025-.037-.037-.055M87.162 1.581l1.624-.073c.162.015.236.038.203.067a.23.23 0 0 1-.12.043q-1.625.076-3.245.149c-.161-.016-.235-.039-.202-.067.02-.017.07-.041.12-.044q.806-.038 1.62-.075M3.87 7.898c-.244.002-.5.045-.773.013-.054-.006-.128-.024-.124-.034.008-.017.058-.039.111-.046.236-.028.53-.032.65-.111.057-.041.165-.055.31-.063.152-.009.26-.005.38.018.157.031.289.088.537.058.012.019.041.039.029.056s-.066.033-.116.046a1 1 0 0 1-.165.025zM219.523 7.67c.203-.01.414-.014.612-.03.157-.012.256-.004.38.023.211.048.223.043.74.05a.5.5 0 0 1 .161.033c.021.008-.008.03-.033.04a.4.4 0 0 1-.14.035c-.327.003-.657.07-.976-.007a1.8 1.8 0 0 0-.558-.04c-.132.01-.273.015-.409.02a.9.9 0 0 1-.351-.042c-.12-.05-.05-.07.165-.066.136.002.273-.01.409-.016M294.085 15.506q.39-.02.785-.034c.054-.003.12.01.17.018.198.034.169.092.177.143.005.053-.454.097-.649.06-.215-.04-.409-.087-.706-.062a.8.8 0 0 1-.327-.045c-.112-.047-.05-.067.161-.063.124.002.257-.01.389-.017M162.247.033c.269-.013.538-.032.806-.033.158-.001.236.036.199.064a.23.23 0 0 1-.12.043q-.806.039-1.612.075c-.157-.016-.236-.04-.198-.067.02-.017.07-.04.119-.043q.404-.022.806-.039M288.859 11.805c.26-.011.525-.028.785-.034.136-.002.244.024.26.054.009.013-.057.037-.111.043-.372.038-.773.043-1.162.062a.8.8 0 0 1-.33-.044c-.112-.049-.05-.067.161-.064.132.001.264-.011.397-.017M225.968 7.823c.132-.006.268-.02.396-.016.137.006.224.039.265.072.045.037.041.073 0 .104-.066.055-.132.053-.285.016-.236-.056-.252-.05-.72-.047a.5.5 0 0 1-.161-.032c-.062-.023-.029-.058.116-.079.107-.014.256-.012.389-.018"/><path fill="#ffe492" d="M279.491 11.432c.194-.009.389-.024.583-.024.136 0 .244.026.256.054.004.014-.058.036-.107.043-.236.03-.5.033-.757.043a.9.9 0 0 1-.326-.045c-.112-.048-.046-.07.157-.063.062.003.128-.004.194-.008M248.222 10.038c-.289.013-.562-.004-.541-.033.029-.039.148-.064.272-.07q.297-.018.6-.028a1.1 1.1 0 0 1 .347.042.65.65 0 0 1-.281.07c-.128.008-.265.013-.397.019M246.776 9.892c.195-.009.389-.024.583-.024.136 0 .244.025.256.054.005.014-.057.036-.107.043-.236.03-.5.033-.757.043a.9.9 0 0 1-.326-.045c-.112-.048-.046-.07.157-.063.062.003.128-.004.194-.008M223.222 7.814c.194-.009.388-.024.582-.025.137 0 .244.025.257.054.004.013-.058.035-.108.043-.235.03-.5.033-.756.043a.9.9 0 0 1-.327-.045c-.111-.048-.045-.07.157-.063.062.002.128-.004.195-.007M222.029 7.747c.206-.01.273-.015.339-.015.124 0 .252.014.326.047.112.048.046.061-.157.063-.26.003-.517.027-.777.031-.136.002-.244-.025-.252-.053-.004-.014.058-.038.107-.042.174-.017.364-.028.414-.031M245.661 1.06c-.132.005-.273.021-.397.015-.165-.008-.231-.038-.19-.067a.3.3 0 0 1 .12-.042q.399-.022.798-.037c.157.017.227.04.186.07a.3.3 0 0 1-.12.041c-.128.011-.264.014-.397.02M84.58 1.715q.195 0 .344.042a.7.7 0 0 1-.277.07 4 4 0 0 1-.199.01 1.2 1.2 0 0 1-.343-.042.7.7 0 0 1 .277-.07c.062-.005.133-.006.199-.01M286.937 11.801c-.004-.033.248-.07.476-.07.12.002.244.018.314.049.107.046.045.064-.157.06-.124-.001-.256.018-.38.014-.141 0-.224-.026-.253-.053M226.758 7.96c-.004-.012-.024-.027-.012-.038.079-.062.554-.082.678-.027.021.01.029.027.012.037a.3.3 0 0 1-.12.041 5 5 0 0 1-.392.018c-.058 0-.112-.019-.166-.03M6.041 7.716c-.488.024-.496.022-.41-.035.08-.051.224-.082.435-.082.062 0 .128-.002.182.002.058.006.14.018.153.031.025.026-.046.055-.17.074-.054.01-.124.007-.19.01M91.035 1.555a.74.74 0 0 1-.36-.024c-.09-.036.054-.08.306-.09.067-.002.137-.011.199-.007a.6.6 0 0 1 .161.031c.066.023.025.053-.107.08-.054.01-.133.008-.199.01"/><path fill="#ffe492" d="M286.946 11.716a2 2 0 0 1 .116-.044c.153.02.219.042.177.069-.024.016-.074.03-.111.044q-.23-.03-.182-.07M12.133 20.658c0-.014.058-.036.103-.04a.6.6 0 0 1 .269.04c.103.045.041.069-.15.056-.131-.009-.222-.031-.222-.056M228.303 6.903q.082.015.157.031a.4.4 0 0 1-.248.05c-.058-.008-.108-.021-.161-.031a.4.4 0 0 1 .252-.05M226.854 6.851a.6.6 0 0 1 .297.025c-.037.015-.07.032-.115.044a.6.6 0 0 1-.294-.025q.05-.021.112-.044M225.686 6.902q.08.015.157.031a.4.4 0 0 1-.248.05c-.058-.008-.108-.021-.162-.031a.4.4 0 0 1 .253-.05"/><path fill="#ffe492" d="M225.715 6.841c.062.023.029.05-.091.081-.054-.01-.116-.018-.157-.032-.066-.021-.033-.05.091-.08z"/></svg>